<?xml version="1.0" encoding="UTF-8" standalone="no"?>
<svg
   version="1.1"
   x="0px"
   y="0px"
   viewBox="0 0 500 500"
   enable-background="new 0 0 500 500"
   xml:space="preserve"
   id="svg10"
   width="500"
   height="500"
   xmlns="http://www.w3.org/2000/svg"
   xmlns:svg="http://www.w3.org/2000/svg"><defs
     id="defs10" /><g
     id="g9"
     transform="translate(0,-6)"
     style="fill:#d4c798;fill-opacity:1"><g
       id="g2"
       style="fill:#d4c798;fill-opacity:1"
       transform="matrix(2.8685972,0,0,2.88581,-178.84357,-186.73405)"><g
         id="g1"
         style="fill:#d4c798;fill-opacity:1"><path
           d="m 226.5,219.8 c -44.9,0 -89.7,0 -134.6,0 -6.4,0 -12.8,0 -19.2,0 3.3,3.3 6.7,6.7 10,10 0,-44.5 0,-89 0,-133.5 0,-6.4 0,-12.8 0,-19.2 -3.3,3.3 -6.7,6.7 -10,10 44.9,0 89.7,0 134.6,0 6.4,0 12.8,0 19.2,0 -3.3,-3.3 -6.7,-6.7 -10,-10 0,44.5 0,89 0,133.5 0,6.4 0,12.8 0,19.2 0,12.9 20,12.9 20,0 0,-44.5 0,-89 0,-133.5 0,-6.4 0,-12.8 0,-19.2 0,-5.4 -4.6,-10 -10,-10 -44.9,0 -89.7,0 -134.6,0 -6.4,0 -12.8,0 -19.2,0 -5.4,0 -10,4.6 -10,10 0,44.5 0,89 0,133.5 0,6.4 0,12.8 0,19.2 0,5.4 4.6,10 10,10 44.9,0 89.7,0 134.6,0 6.4,0 12.8,0 19.2,0 12.8,0 12.9,-20 0,-20 z"
           id="path1"
           style="fill:#d4c798;fill-opacity:1" /></g></g></g></svg>
