<?xml version="1.0" encoding="UTF-8" standalone="no"?>
<!-- Created with Inkscape (http://www.inkscape.org/) -->

<svg
   version="1.1"
   id="svg1"
   width="247.21481"
   height="163.7572"
   viewBox="0 0 247.21481 163.7572"
   sodipodi:docname="templebarlogo.svg"
   inkscape:version="1.4.2 (f4327f4, 2025-05-13)"
   xmlns:inkscape="http://www.inkscape.org/namespaces/inkscape"
   xmlns:sodipodi="http://sodipodi.sourceforge.net/DTD/sodipodi-0.dtd"
   xmlns:xlink="http://www.w3.org/1999/xlink"
   xmlns="http://www.w3.org/2000/svg"
   xmlns:svg="http://www.w3.org/2000/svg">
  <defs
     id="defs1">
    <linearGradient
       id="linearGradient8"
       inkscape:collect="always">
      <stop
         style="stop-color:#b39b51;stop-opacity:1;"
         offset="0"
         id="stop7" />
      <stop
         style="stop-color:#e4deb7;stop-opacity:1;"
         offset="1"
         id="stop8" />
    </linearGradient>
    <linearGradient
       id="linearGradient109"
       inkscape:collect="always">
      <stop
         style="stop-color:#fece5e;stop-opacity:1;"
         offset="0"
         id="stop108" />
      <stop
         style="stop-color:#fcf1b7;stop-opacity:1;"
         offset="1"
         id="stop109" />
    </linearGradient>
    <linearGradient
       id="linearGradient105"
       inkscape:collect="always">
      <stop
         style="stop-color:#fece5e;stop-opacity:1;"
         offset="0"
         id="stop105" />
      <stop
         style="stop-color:#fdda7e;stop-opacity:1;"
         offset="1"
         id="stop106" />
    </linearGradient>
    <linearGradient
       id="linearGradient97"
       inkscape:collect="always">
      <stop
         style="stop-color:#feeb7a;stop-opacity:1;"
         offset="0"
         id="stop97" />
      <stop
         style="stop-color:#fbf0b8;stop-opacity:1;"
         offset="1"
         id="stop98" />
    </linearGradient>
    <inkscape:path-effect
       effect="mirror_symmetry"
       start_point="129.91708,71.931793"
       end_point="136.60746,71.927887"
       center_point="133.26227,71.92984"
       id="path-effect17"
       is_visible="true"
       lpeversion="1.2"
       lpesatellites=""
       mode="free"
       discard_orig_path="false"
       fuse_paths="true"
       oposite_fuse="true"
       split_items="false"
       split_open="false"
       link_styles="false" />
    <inkscape:path-effect
       effect="mirror_symmetry"
       start_point="125.02907,1.787306"
       end_point="125.02907,43.80814"
       center_point="125.02907,22.797723"
       id="path-effect16"
       is_visible="true"
       lpeversion="1.2"
       lpesatellites=""
       mode="free"
       discard_orig_path="false"
       fuse_paths="false"
       oposite_fuse="false"
       split_items="false"
       split_open="false"
       link_styles="false" />
    <inkscape:path-effect
       effect="mirror_symmetry"
       start_point="125.02907,18.599806"
       end_point="125.02907,43.80814"
       center_point="125.02907,31.203973"
       id="path-effect14"
       is_visible="true"
       lpeversion="1.2"
       lpesatellites=""
       mode="free"
       discard_orig_path="false"
       fuse_paths="false"
       oposite_fuse="false"
       split_items="false"
       split_open="false"
       link_styles="false" />
    <inkscape:path-effect
       effect="mirror_symmetry"
       start_point="125.02907,18.599806"
       end_point="125.02907,43.80814"
       center_point="125.02907,31.203973"
       id="path-effect12"
       is_visible="true"
       lpeversion="1.2"
       lpesatellites=""
       mode="free"
       discard_orig_path="false"
       fuse_paths="false"
       oposite_fuse="false"
       split_items="false"
       split_open="false"
       link_styles="false" />
    <inkscape:path-effect
       effect="mirror_symmetry"
       start_point="125.02907,18.599806"
       end_point="125.02907,43.80814"
       center_point="125.02907,31.203973"
       id="path-effect10"
       is_visible="true"
       lpeversion="1.2"
       lpesatellites=""
       mode="free"
       discard_orig_path="false"
       fuse_paths="false"
       oposite_fuse="false"
       split_items="false"
       split_open="false"
       link_styles="false" />
    <inkscape:path-effect
       effect="mirror_symmetry"
       start_point="125.02907,18.599806"
       end_point="125.02907,43.80814"
       center_point="125.02907,31.203973"
       id="path-effect8"
       is_visible="true"
       lpeversion="1.2"
       lpesatellites=""
       mode="free"
       discard_orig_path="false"
       fuse_paths="false"
       oposite_fuse="false"
       split_items="false"
       split_open="false"
       link_styles="false" />
    <inkscape:path-effect
       effect="mirror_symmetry"
       start_point="125.02532,1.6210451"
       end_point="125.02532,165.37825"
       center_point="125.02532,83.499646"
       id="path-effect6"
       is_visible="true"
       lpeversion="1.2"
       lpesatellites=""
       mode="vertical"
       discard_orig_path="false"
       fuse_paths="false"
       oposite_fuse="false"
       split_items="false"
       split_open="false"
       link_styles="false" />
    <inkscape:path-effect
       effect="mirror_symmetry"
       start_point="125.02907,18.599806"
       end_point="125.02907,43.80814"
       center_point="125.02907,31.203973"
       id="path-effect5"
       is_visible="true"
       lpeversion="1.2"
       lpesatellites=""
       mode="free"
       discard_orig_path="false"
       fuse_paths="false"
       oposite_fuse="false"
       split_items="false"
       split_open="false"
       link_styles="false" />
    <inkscape:path-effect
       effect="mirror_symmetry"
       start_point="125.02907,18.599806"
       end_point="125.02907,43.80814"
       center_point="125.02907,31.203973"
       id="path-effect3"
       is_visible="true"
       lpeversion="1.2"
       lpesatellites=""
       mode="free"
       discard_orig_path="false"
       fuse_paths="false"
       oposite_fuse="false"
       split_items="false"
       split_open="false"
       link_styles="false" />
    <inkscape:path-effect
       effect="mirror_symmetry"
       start_point="125.02532,15.954097"
       end_point="125.02532,134.63397"
       center_point="125.02532,75.294033"
       id="path-effect28"
       is_visible="true"
       lpeversion="1.2"
       lpesatellites=""
       mode="free"
       discard_orig_path="false"
       fuse_paths="false"
       oposite_fuse="true"
       split_items="false"
       split_open="false"
       link_styles="false" />
    <inkscape:path-effect
       effect="mirror_symmetry"
       start_point="125.02532,1.6210451"
       end_point="125.02532,165.37825"
       center_point="125.02532,83.499646"
       id="path-effect2"
       is_visible="true"
       lpeversion="1.2"
       lpesatellites=""
       mode="vertical"
       discard_orig_path="false"
       fuse_paths="true"
       oposite_fuse="false"
       split_items="false"
       split_open="false"
       link_styles="false" />
    <inkscape:path-effect
       effect="mirror_symmetry"
       start_point="125.02017,91.58592"
       end_point="125.07017,133.8379"
       center_point="125.04517,112.71191"
       id="path-effect1"
       is_visible="true"
       lpeversion="1.2"
       lpesatellites=""
       mode="free"
       discard_orig_path="false"
       fuse_paths="false"
       oposite_fuse="false"
       split_items="false"
       split_open="false"
       link_styles="false" />
    <filter
       style="color-interpolation-filters:sRGB"
       inkscape:label="Drop Shadow"
       id="filter277"
       x="-0.15485559"
       y="-0.09074192"
       width="1.387139"
       height="1.2268548">
      <feFlood
         result="flood"
         in="SourceGraphic"
         flood-opacity="0.603922"
         flood-color="rgb(0,0,0)"
         id="feFlood276" />
      <feGaussianBlur
         result="blur"
         in="SourceGraphic"
         stdDeviation="1.000000"
         id="feGaussianBlur276" />
      <feOffset
         result="offset"
         in="blur"
         dx="1.200000"
         dy="1.200000"
         id="feOffset276" />
      <feComposite
         result="comp1"
         operator="in"
         in="flood"
         in2="offset"
         id="feComposite276" />
      <feComposite
         result="comp2"
         operator="over"
         in="SourceGraphic"
         in2="comp1"
         id="feComposite277" />
    </filter>
    <filter
       style="color-interpolation-filters:sRGB"
       inkscape:label="Drop Shadow"
       id="filter279"
       x="-0.19368897"
       y="-0.09649249"
       width="1.4842224"
       height="1.2412312">
      <feFlood
         result="flood"
         in="SourceGraphic"
         flood-opacity="0.603922"
         flood-color="rgb(0,0,0)"
         id="feFlood277" />
      <feGaussianBlur
         result="blur"
         in="SourceGraphic"
         stdDeviation="1.000000"
         id="feGaussianBlur277" />
      <feOffset
         result="offset"
         in="blur"
         dx="1.200000"
         dy="1.200000"
         id="feOffset277" />
      <feComposite
         result="comp1"
         operator="in"
         in="flood"
         in2="offset"
         id="feComposite278" />
      <feComposite
         result="comp2"
         operator="over"
         in="SourceGraphic"
         in2="comp1"
         id="feComposite279" />
    </filter>
    <filter
       style="color-interpolation-filters:sRGB"
       inkscape:label="Drop Shadow"
       id="filter281"
       x="-0.035787309"
       y="-0.095440915"
       width="1.0894683"
       height="1.2386023">
      <feFlood
         result="flood"
         in="SourceGraphic"
         flood-opacity="0.603922"
         flood-color="rgb(0,0,0)"
         id="feFlood279" />
      <feGaussianBlur
         result="blur"
         in="SourceGraphic"
         stdDeviation="1.000000"
         id="feGaussianBlur279" />
      <feOffset
         result="offset"
         in="blur"
         dx="1.200000"
         dy="1.200000"
         id="feOffset279" />
      <feComposite
         result="comp1"
         operator="in"
         in="flood"
         in2="offset"
         id="feComposite280" />
      <feComposite
         result="comp2"
         operator="over"
         in="SourceGraphic"
         in2="comp1"
         id="feComposite281" />
    </filter>
    <filter
       style="color-interpolation-filters:sRGB"
       inkscape:label="Drop Shadow"
       id="filter283"
       x="-0.057035237"
       y="-0.09649249"
       width="1.1425881"
       height="1.2412312">
      <feFlood
         result="flood"
         in="SourceGraphic"
         flood-opacity="0.603922"
         flood-color="rgb(0,0,0)"
         id="feFlood281" />
      <feGaussianBlur
         result="blur"
         in="SourceGraphic"
         stdDeviation="1.000000"
         id="feGaussianBlur281" />
      <feOffset
         result="offset"
         in="blur"
         dx="1.200000"
         dy="1.200000"
         id="feOffset281" />
      <feComposite
         result="comp1"
         operator="in"
         in="flood"
         in2="offset"
         id="feComposite282" />
      <feComposite
         result="comp2"
         operator="over"
         in="SourceGraphic"
         in2="comp1"
         id="feComposite283" />
    </filter>
    <filter
       style="color-interpolation-filters:sRGB"
       inkscape:label="Drop Shadow"
       id="filter285"
       x="-0.035810903"
       y="-0.095440917"
       width="1.0895272"
       height="1.2386023">
      <feFlood
         result="flood"
         in="SourceGraphic"
         flood-opacity="0.603922"
         flood-color="rgb(0,0,0)"
         id="feFlood283" />
      <feGaussianBlur
         result="blur"
         in="SourceGraphic"
         stdDeviation="1.000000"
         id="feGaussianBlur283" />
      <feOffset
         result="offset"
         in="blur"
         dx="1.200000"
         dy="1.200000"
         id="feOffset283" />
      <feComposite
         result="comp1"
         operator="in"
         in="flood"
         in2="offset"
         id="feComposite284" />
      <feComposite
         result="comp2"
         operator="over"
         in="SourceGraphic"
         in2="comp1"
         id="feComposite285" />
    </filter>
    <filter
       style="color-interpolation-filters:sRGB"
       inkscape:label="Drop Shadow"
       id="filter287"
       x="-0.074776465"
       y="-0.057922184"
       width="1.1869412"
       height="1.1448055">
      <feFlood
         result="flood"
         in="SourceGraphic"
         flood-opacity="0.603922"
         flood-color="rgb(0,0,0)"
         id="feFlood285" />
      <feGaussianBlur
         result="blur"
         in="SourceGraphic"
         stdDeviation="1.000000"
         id="feGaussianBlur285" />
      <feOffset
         result="offset"
         in="blur"
         dx="1.200000"
         dy="1.200000"
         id="feOffset285" />
      <feComposite
         result="comp1"
         operator="in"
         in="flood"
         in2="offset"
         id="feComposite286" />
      <feComposite
         result="comp2"
         operator="over"
         in="SourceGraphic"
         in2="comp1"
         id="feComposite287" />
    </filter>
    <filter
       style="color-interpolation-filters:sRGB"
       inkscape:label="Drop Shadow"
       id="filter300"
       x="-0.073289442"
       y="-0.024421716"
       width="1.1581024"
       height="1.0523505">
      <feFlood
         result="flood"
         in="SourceGraphic"
         flood-opacity="0.603922"
         flood-color="rgb(0,0,0)"
         id="feFlood299" />
      <feGaussianBlur
         result="blur"
         in="SourceGraphic"
         stdDeviation="0.100000"
         id="feGaussianBlur299" />
      <feOffset
         result="offset"
         in="blur"
         dx="0.100000"
         dy="0.100000"
         id="feOffset299" />
      <feComposite
         result="comp1"
         operator="in"
         in="flood"
         in2="offset"
         id="feComposite299" />
      <feComposite
         result="comp2"
         operator="over"
         in="SourceGraphic"
         in2="comp1"
         id="feComposite300" />
    </filter>
    <linearGradient
       inkscape:collect="always"
       xlink:href="#linearGradient97"
       id="linearGradient98"
       x1="126.33583"
       y1="99.487816"
       x2="126.33583"
       y2="140.79143"
       gradientUnits="userSpaceOnUse" />
    <linearGradient
       inkscape:collect="always"
       xlink:href="#linearGradient109"
       id="linearGradient106"
       x1="125.5"
       y1="13.25"
       x2="125.5"
       y2="97.5"
       gradientUnits="userSpaceOnUse" />
    <linearGradient
       inkscape:collect="always"
       xlink:href="#linearGradient105"
       id="linearGradient107"
       gradientUnits="userSpaceOnUse"
       x1="133.10139"
       y1="50.019554"
       x2="133.27817"
       y2="90.252159" />
    <linearGradient
       inkscape:collect="always"
       xlink:href="#linearGradient109"
       id="linearGradient1"
       gradientUnits="userSpaceOnUse"
       x1="125.5"
       y1="13.25"
       x2="125.5"
       y2="97.5" />
    <linearGradient
       inkscape:collect="always"
       xlink:href="#linearGradient109"
       id="linearGradient2"
       gradientUnits="userSpaceOnUse"
       x1="125.5"
       y1="13.25"
       x2="125.5"
       y2="97.5" />
    <linearGradient
       inkscape:collect="always"
       xlink:href="#linearGradient109"
       id="linearGradient3"
       gradientUnits="userSpaceOnUse"
       x1="125.5"
       y1="13.25"
       x2="125.5"
       y2="97.5" />
    <linearGradient
       inkscape:collect="always"
       xlink:href="#linearGradient109"
       id="linearGradient4"
       gradientUnits="userSpaceOnUse"
       x1="125.5"
       y1="13.25"
       x2="125.5"
       y2="97.5" />
    <linearGradient
       inkscape:collect="always"
       xlink:href="#linearGradient109"
       id="linearGradient5"
       gradientUnits="userSpaceOnUse"
       x1="125.5"
       y1="13.25"
       x2="125.5"
       y2="97.5" />
    <linearGradient
       inkscape:collect="always"
       xlink:href="#linearGradient8"
       id="linearGradient7"
       x1="124.36523"
       y1="-2.0096986"
       x2="124.36523"
       y2="137.29034"
       gradientUnits="userSpaceOnUse" />
  </defs>
  <sodipodi:namedview
     id="namedview1"
     pagecolor="#ffffff"
     bordercolor="#000000"
     borderopacity="0.25"
     inkscape:showpageshadow="2"
     inkscape:pageopacity="0.0"
     inkscape:pagecheckerboard="0"
     inkscape:deskcolor="#d1d1d1"
     showgrid="false"
     showguides="true"
     inkscape:zoom="2.8284271"
     inkscape:cx="102.88404"
     inkscape:cy="68.059028"
     inkscape:window-width="1920"
     inkscape:window-height="991"
     inkscape:window-x="-9"
     inkscape:window-y="-9"
     inkscape:window-maximized="1"
     inkscape:current-layer="svg1">
    <inkscape:grid
       id="grid1"
       units="px"
       originx="-1.4179162"
       originy="-1.6210451"
       spacingx="1"
       spacingy="1"
       empcolor="#0099e5"
       empopacity="0.30196078"
       color="#0099e5"
       opacity="0.14901961"
       empspacing="5"
       enabled="true"
       visible="false" />
    <sodipodi:guide
       position="76.4392,75.800305"
       orientation="0,-1"
       id="guide12"
       inkscape:locked="false" />
  </sodipodi:namedview>
  <path
     id="path28"
     style="display:inline;opacity:1;fill:#9e1512;fill-opacity:1;stroke:url(#linearGradient7);stroke-width:7.535;stroke-linecap:square;stroke-dasharray:none;stroke-opacity:1;paint-order:stroke fill markers"
     d="M 78.523945,89.53344 H 11.196287 l -8.928572,8.928575 v 25.565815 l 8.985089,8.98509 H 123.6074 V 2.2680425 C 111.21885,2.2200616 102.1078,7.3470924 94.174082,14.333052 l 3.668116,3.668116 v 10.69499 h -3.414 c 1.00004,1.90035 0.939329,3.800699 1.138,5.701049 -3.025253,3.4348 -9.203121,4.34094 -7.140364,11.856748 -3.428676,2.500622 -6.070636,3.066605 -9.852295,2.373776 z m 90.166915,0 h 67.32766 l 8.92857,8.928575 v 25.565815 l -8.98509,8.98509 H 123.6074 V 2.2680425 c 12.38855,-0.047981 21.4996,5.0790499 29.43332,12.0650095 l -3.66811,3.668116 v 10.69499 h 3.414 c -1.00004,1.90035 -0.93933,3.800699 -1.138,5.701049 3.02525,3.4348 9.20312,4.34094 7.14036,11.856748 3.42868,2.500622 6.07064,3.066605 9.85229,2.373776 z"
     sodipodi:nodetypes="ccccccccccccccc" />
  <path
     style="font-size:34.985px;font-family:'Trajan Pro 3';-inkscape-font-specification:'Trajan Pro 3, Normal';display:inline;fill:url(#linearGradient98);stroke-width:6.19816;stroke-linecap:square;paint-order:stroke fill markers;filter:url(#filter277)"
     d="m 223.3993,115.81464 v -6.15736 q 0,-6.43724 -0.07,-7.55676 -0.07,-0.94459 -0.38484,-1.36441 -0.27988,-0.45481 -1.11952,-0.62973 -0.41982,-0.10496 -1.18949,-0.10496 -0.27988,0 -0.27988,-0.209906 0,-0.27988 0.55976,-0.27988 0.6997,0 1.6443,0.03499 0.94459,0 1.60931,0.03498 0.66471,0.03499 0.6997,0.03499 0.10495,0 1.78423,-0.03499 1.71427,-0.06997 2.344,-0.06997 4.26817,0 6.40225,1.539336 0.87463,0.62973 1.6443,1.88919 0.76967,1.25946 0.76967,2.86877 0,4.16322 -4.23319,8.08154 5.56262,7.13694 7.27688,8.95616 2.06412,2.16907 4.26817,2.51892 0.66472,0.10495 1.36442,0.10495 0.31486,0 0.31486,0.20991 0,0.27988 -0.83964,0.27988 h -2.48393 q -2.51892,0 -3.7434,-0.66471 -0.6997,-0.38484 -1.57432,-1.25946 -0.83964,-0.87463 -1.25946,-1.3994 -0.41982,-0.55976 -1.88919,-2.48394 -0.80466,-1.08453 -2.16907,-2.93874 -1.36442,-1.88919 -1.6443,-2.23904 -0.20991,-0.20991 -0.4548,-0.20991 l -4.30316,-0.07 q -0.24489,0 -0.24489,0.27988 v 0.83964 q 0,6.12238 0.17492,7.59175 0.10496,0.87462 0.34985,1.36441 0.27988,0.45481 1.01457,0.55976 0.97958,0.13994 1.57432,0.13994 0.27988,0 0.27988,0.20991 0,0.27988 -0.55976,0.27988 -0.83964,0 -1.88919,-0.035 -1.01456,0 -1.71426,-0.035 -0.66472,-0.035 -0.6997,-0.035 h -0.2449 q -0.24489,0.035 -0.62973,0.035 -0.38483,0.035 -0.80465,0.035 -0.41982,0 -0.87463,0 -0.4548,0.035 -0.73468,0.035 -0.55976,0 -0.55976,-0.27988 0,-0.20991 0.27988,-0.20991 0.41982,0 1.04955,-0.13994 0.76967,-0.13994 1.01456,-1.92417 0.17493,-1.46937 0.17493,-7.59175 z m 2.7988,-14.55376 v 11.4401 q 0,0.27988 0.24489,0.41982 0.9446,0.55976 3.67343,0.55976 1.67928,0 2.62387,-0.66472 2.13409,-1.46937 2.13409,-5.38769 0,-3.28859 -1.6443,-5.14279 -1.60931,-1.85421 -4.40811,-1.85421 -1.64429,0 -2.34399,0.20991 -0.27988,0.10496 -0.27988,0.41982 z"
     transform="matrix(0.97218711,0,0,0.94206234,-3.1627336,5.2942847)"
     id="path11" />
  <path
     style="font-size:34.985px;font-family:'Trajan Pro 3';-inkscape-font-specification:'Trajan Pro 3, Normal';display:inline;fill:url(#linearGradient98);stroke-width:6.19816;stroke-linecap:square;paint-order:stroke fill markers;filter:url(#filter277)"
     d="m 208.04086,115.63972 h -7.52177 q -0.2449,0 -0.34985,0.27988 l -2.0991,6.19234 q -0.48979,1.36442 -0.48979,2.344 0,0.48979 0.38483,0.76967 0.38484,0.24489 0.87463,0.24489 h 0.31486 q 0.45481,0 0.45481,0.20991 0,0.27988 -0.62973,0.27988 -0.48979,0 -1.50436,-0.07 -0.97958,-0.035 -1.11952,-0.035 -0.035,0 -1.50435,0.035 -1.46937,0.07 -2.44895,0.07 -0.66472,0 -0.66472,-0.27988 0,-0.20991 0.48979,-0.20991 0.27988,0 0.83964,-0.07 1.11952,-0.13994 1.74925,-0.94459 0.62973,-0.83964 1.18949,-2.344 l 7.9416,-21.72568 q 0.48979,-1.364416 0.76967,-1.364416 0.27988,0 0.76967,1.259456 0.13994,0.34985 1.74925,4.61802 1.64429,4.26817 3.53348,9.20106 1.92418,4.93288 2.86877,7.27688 1.3994,3.42853 3.00871,3.88333 0.62973,0.20991 1.36442,0.20991 0.38483,0 0.38483,0.20991 0,0.27988 -0.6997,0.27988 -3.07868,0 -5.49264,-0.07 -1.04955,-0.07 -1.04955,-0.24489 0,-0.17493 0.24489,-0.2449 0.48979,-0.17492 0.20991,-0.94459 l -3.2536,-8.60631 q -0.10496,-0.20991 -0.31487,-0.20991 z m -7.13694,-1.25946 h 6.68214 q 0.20991,0 0.13994,-0.2449 l -3.32358,-9.44595 q -0.24489,-0.80465 -0.52477,0 l -3.07868,9.44595 q -0.10496,0.2449 0.10495,0.2449 z"
     transform="matrix(0.97218711,0,0,0.94206234,-3.1627336,5.2942847)"
     id="path9" />
  <path
     style="font-size:34.985px;font-family:'Trajan Pro 3';-inkscape-font-specification:'Trajan Pro 3, Normal';display:inline;fill:url(#linearGradient98);stroke-width:6.19816;stroke-linecap:square;paint-order:stroke fill markers;filter:url(#filter277)"
     d="m 175.11997,115.81464 v -6.15736 q 0,-6.43724 -0.07,-7.55676 -0.07,-0.94459 -0.38484,-1.36441 -0.27988,-0.45481 -1.11952,-0.62973 -0.41982,-0.10496 -1.01456,-0.10496 -0.45481,0 -0.45481,-0.209906 0,-0.27988 0.55976,-0.27988 0.6997,0 1.6443,0.03499 0.94459,0 1.60931,0.03498 0.66471,0.03499 0.6997,0.03499 0.31486,0 1.60931,-0.03499 1.29444,-0.06997 2.20405,-0.06997 2.02913,0 3.4985,0.559756 1.46937,0.55976 2.16907,1.43439 0.6997,0.87462 1.01457,1.67928 0.31486,0.80465 0.31486,1.57432 0,1.32943 -0.55976,2.58889 -0.52477,1.22448 -1.08453,1.88919 -0.55976,0.66472 -1.6443,1.81922 2.30901,0.73469 4.16322,2.65886 1.88919,1.92418 1.88919,4.72298 0,3.07868 -2.344,5.3527 -2.34399,2.27403 -6.57718,2.27403 -0.17492,0 -0.59474,-0.035 -0.38484,0 -0.9446,-0.035 -0.55976,-0.035 -0.97958,-0.035 -1.50435,-0.10495 -2.13408,-0.10495 -0.55976,0 -1.67928,0.035 -1.11952,0.07 -1.74925,0.07 -0.55976,0 -0.55976,-0.24489 0,-0.2449 0.52477,-0.2449 0.38484,0 0.83964,-0.10495 0.73469,-0.13994 0.97958,-1.95916 0.17493,-1.46937 0.17493,-7.59175 z m 2.7988,-14.76367 v 9.37598 q 0,0.27988 0.24489,0.38484 0.83964,0.13994 2.13409,0.13994 1.53934,0 2.0991,-0.13994 0.55976,-0.17493 1.08453,-0.76967 1.25946,-1.43439 1.25946,-3.53349 0,-2.44895 -1.18949,-4.23318 -1.1545,-1.78424 -3.53348,-1.78424 -0.97958,0 -1.67928,0.17493 -0.41982,0.10495 -0.41982,0.38483 z m 0,11.09025 v 1.99414 q 0,7.03199 0.035,7.55676 0.07,1.04955 0.10496,1.43439 0.07,0.34985 0.31486,0.6997 0.2449,0.34985 0.76967,0.59474 1.08454,0.52478 3.07868,0.52478 0.80466,0 1.57433,-0.20991 0.80465,-0.2449 1.57432,-0.76967 0.80466,-0.52478 1.29445,-1.53934 0.48979,-1.04955 0.48979,-2.44895 0,-1.88919 -0.80466,-3.81337 -0.76967,-1.92417 -2.58889,-3.18363 -1.18949,-0.80466 -2.90375,-1.01457 -0.45481,-0.07 -2.72883,-0.07 -0.20991,0 -0.20991,0.2449 z"
     transform="matrix(0.97218711,0,0,0.94206234,-3.1627336,5.2942847)"
     id="path7" />
  <path
     style="font-size:34.985px;font-family:'Trajan Pro 3';-inkscape-font-specification:'Trajan Pro 3, Normal';display:inline;fill:url(#linearGradient98);stroke-width:6.19816;stroke-linecap:square;paint-order:stroke fill markers;filter:url(#filter277)"
     d="m 142.40894,115.81464 v -6.15736 q 0,-6.43724 -0.07,-7.55676 -0.07,-0.94459 -0.38483,-1.36441 -0.27988,-0.45481 -1.11952,-0.62973 -0.10496,-0.035 -0.27988,-0.035 -0.17493,-0.035 -0.41982,-0.035 -0.20991,-0.035 -0.31487,-0.035 -0.4548,-0.06997 -0.4548,-0.209906 0,-0.27988 0.55976,-0.27988 1.74925,0 3.9533,0.104955 7.20691,0 8.01157,-0.03499 1.29444,-0.06997 1.60931,-0.20991 0.27988,-0.13994 0.38483,-0.13994 0.13994,0 0.13994,0.314865 0,0.06997 -0.13994,0.594746 -0.10495,0.48979 -0.13994,1.04955 l -0.13994,2.0991 q -0.07,0.59475 -0.27988,0.59475 -0.27988,0 -0.27988,-0.45481 0,-0.6997 -0.17492,-1.1545 -0.34985,-1.08454 -2.51892,-1.29445 -0.90961,-0.10495 -4.79295,-0.10495 -0.20991,0 -0.20991,0.34985 v 9.65586 q 0,0.34985 0.20991,0.34985 4.75796,0 5.56262,-0.07 1.32943,-0.10496 1.74925,-0.59475 0.27988,-0.34985 0.41982,-0.34985 0.17492,0 0.17492,0.27988 0,0.07 -0.07,0.31487 -0.035,0.24489 -0.10495,0.6997 -0.07,0.4548 -0.10496,0.94459 -0.07,0.62973 -0.10495,1.50436 -0.035,0.83964 -0.035,0.87462 -0.07,0.52478 -0.24489,0.52478 -0.2449,0 -0.2449,-0.55976 0,-0.55976 -0.13994,-0.97958 -0.24489,-0.97958 -1.81922,-1.15451 -1.57432,-0.17492 -5.00285,-0.17492 -0.2449,0 -0.2449,0.24489 v 3.07868 q 0,0.31487 0,1.81922 0,1.46937 0,2.65886 0,1.18949 0,1.50436 0.07,1.1545 0.27988,1.74925 0.2449,0.55976 0.87463,0.80465 0.76967,0.31487 2.90375,0.31487 2.0991,0 3.14865,-0.31487 0.80466,-0.24489 1.18949,-0.80465 0.38484,-0.59475 0.59475,-1.78424 0.10495,-0.52477 0.31486,-0.52477 0.20991,0 0.20991,0.52477 0,0.2449 -0.17492,1.57433 -0.17493,1.32943 -0.27988,1.81922 -0.17493,0.66471 -0.48979,0.76967 -0.31487,0.13994 -1.3994,0.13994 -1.01457,0 -5.10781,-0.10496 -4.1982,-0.10495 -4.37313,-0.10495 -0.34985,0 -1.22447,0.07 -0.87463,0.07 -1.36442,0.035 -0.55976,0 -0.55976,-0.27988 0,-0.13994 0.38484,-0.20991 0.66471,-0.07 0.80465,-0.10495 0.62973,-0.13994 0.90961,-0.80466 0.31487,-0.66471 0.34985,-2.48393 0.07,-2.72883 0.07,-6.26232 z"
     transform="matrix(0.97218711,0,0,0.94206234,-3.1627336,5.2942847)"
     id="path6" />
  <path
     style="font-size:34.985px;font-family:'Trajan Pro 3';-inkscape-font-specification:'Trajan Pro 3, Normal';display:inline;fill:url(#linearGradient98);stroke-width:6.19816;stroke-linecap:square;paint-order:stroke fill markers;filter:url(#filter277)"
     d="m 125.05632,109.65728 v 6.22733 q 0,4.02328 0.13994,5.80751 0.17493,1.74925 0.62973,2.20406 0.80466,0.80465 4.1982,0.80465 1.71427,0 2.69385,-0.17492 0.97958,-0.17493 1.53934,-0.87463 0.73468,-0.87462 0.90961,-2.0991 0.07,-0.4548 0.31486,-0.4548 0.20991,0 0.20991,0.52477 0,1.60931 -0.52477,3.4985 -0.17493,0.62973 -0.52478,0.76967 -0.34985,0.17493 -1.67928,0.17493 -1.46937,0 -4.54805,-0.10496 -3.07868,-0.10495 -4.82793,-0.10495 -0.52477,0 -1.64429,0.035 -1.11952,0.07 -1.78424,0.07 -0.55976,0 -0.55976,-0.27988 0,-0.20991 0.27988,-0.20991 0.41982,0 1.04955,-0.13994 0.76967,-0.13994 1.01457,-1.92417 0.17492,-1.46937 0.17492,-7.59175 v -6.15736 q 0,-6.43724 -0.07,-7.55676 -0.07,-0.94459 -0.38483,-1.36441 -0.27988,-0.45481 -1.11952,-0.62973 -0.41982,-0.10496 -1.18949,-0.10496 -0.27988,0 -0.27988,-0.209906 0,-0.27988 0.55976,-0.27988 0.6997,0 1.64429,0.03499 0.9446,0 1.60931,0.03498 0.66472,0.03499 0.6997,0.03499 0.035,0 0.76967,-0.03499 0.73469,-0.03498 1.6443,-0.03498 0.90961,-0.03499 1.36441,-0.03499 0.55976,0 0.55976,0.27988 0,0.209906 -0.27988,0.209906 -0.52477,0 -1.1545,0.10496 -0.73469,0.13994 -1.01457,0.59474 -0.27988,0.45481 -0.34985,1.3994 -0.07,1.11952 -0.07,7.55676 z"
     transform="matrix(0.97218711,0,0,0.94206234,-3.1627336,5.2942847)"
     id="path5" />
  <path
     style="font-size:34.985px;font-family:'Trajan Pro 3';-inkscape-font-specification:'Trajan Pro 3, Normal';display:inline;fill:url(#linearGradient98);stroke-width:6.19816;stroke-linecap:square;paint-order:stroke fill markers;filter:url(#filter277)"
     d="m 100.39188,115.81464 v -6.15736 q 0,-6.43724 -0.07,-7.55676 -0.07,-0.94459 -0.384834,-1.36441 -0.27988,-0.45481 -1.11952,-0.62973 -0.41982,-0.10496 -1.18949,-0.10496 -0.27988,0 -0.27988,-0.209906 0,-0.27988 0.55976,-0.27988 0.6997,0 1.60931,0.03499 0.909614,0 1.574324,0.03498 0.6997,0.03499 0.76967,0.03499 0.27988,0 1.88919,-0.03499 1.60931,-0.06997 2.51892,-0.06997 4.37313,0 6.50721,1.994146 1.74925,1.67928 1.74925,4.58303 0,3.42853 -2.44895,5.66757 -2.44895,2.23904 -6.15736,2.23904 -0.55976,0 -0.73468,-0.035 -0.38484,0 -0.38484,-0.2449 0,-0.31486 0.9446,-0.31486 2.58889,0 4.30315,-1.6443 1.74925,-1.64429 1.74925,-4.33814 0,-3.11366 -1.95916,-5.10781 -1.71426,-1.74925 -4.79294,-1.74925 -1.01457,0 -1.50436,0.20991 -0.27988,0.10496 -0.27988,0.66472 v 14.37883 q 0,6.12238 0.17493,7.59175 0.10495,0.87462 0.34985,1.36441 0.27988,0.45481 1.01456,0.55976 0.97958,0.13994 1.57433,0.13994 0.27988,0 0.27988,0.20991 0,0.27988 -0.55976,0.27988 -0.83964,0 -1.88919,-0.035 -1.01457,0 -1.71427,-0.035 -0.66471,-0.035 -0.6997,-0.035 h -0.62973 q -0.62973,0.035 -1.469369,0.07 -0.804655,0.035 -1.25946,0.035 -0.55976,0 -0.55976,-0.27988 0,-0.20991 0.27988,-0.20991 0.41982,0 1.04955,-0.13994 0.76967,-0.13994 1.014569,-1.92417 0.17492,-1.46937 0.17492,-7.59175 z"
     transform="matrix(0.97218711,0,0,0.94206234,-3.1627336,5.2942847)"
     id="path4" />
  <path
     style="font-size:34.985px;font-family:'Trajan Pro 3';-inkscape-font-specification:'Trajan Pro 3, Normal';display:inline;fill:url(#linearGradient98);stroke-width:6.19816;stroke-linecap:square;paint-order:stroke fill markers;filter:url(#filter277)"
     d="m 87.342508,99.966439 2.343995,21.480791 q 0.34985,3.21862 1.88919,3.70841 1.014565,0.31486 2.16907,0.31486 0.384835,0 0.384835,0.20991 0,0.27988 -0.524775,0.27988 -3.463515,0 -6.052405,-0.20991 -0.97958,-0.07 -0.97958,-0.34985 0,-0.13994 0.244895,-0.24489 0.27988,-0.10496 0.13994,-1.25946 l -1.67928,-18.26217 -8.67628,18.40211 q -0.804655,1.71426 -0.97958,1.81922 -0.06997,0.035 -0.174926,0.035 -0.244895,0 -1.084535,-1.60931 -0.594745,-1.1545 -4.093245,-8.11652 -0.27988,-0.59474 -2.37898,-5.07282 -2.0991,-4.51307 -2.343995,-5.1428 l -1.434385,16.47794 q -0.06997,1.11952 -0.06997,1.64429 0,1.08454 0.944595,1.25946 0.594745,0.13994 1.25946,0.13994 0.34985,0 0.34985,0.17493 0,0.31486 -0.524775,0.31486 -0.76967,0 -2.064115,-0.035 l -1.294445,-0.07 q -0.06997,0 -1.224475,0.035 -1.154505,0.07 -1.714265,0.07 -0.594745,0 -0.594745,-0.27988 0,-0.20991 0.34985,-0.20991 0.524775,0 1.04955,-0.10495 0.97958,-0.17493 1.25946,-1.78424 0.03498,-0.17492 0.13994,-1.11952 l 2.51892,-22.740246 q 0.06997,-0.6997 0.384835,-0.6997 0.27988,0 0.524775,0.524775 L 76.112323,121.5522 86.397913,99.581624 q 0.244895,-0.55976 0.524775,-0.55976 0.314865,0 0.41982,0.944595 z"
     transform="matrix(0.97218711,0,0,0.94206234,-3.1627336,5.2942847)"
     id="path3" />
  <path
     style="font-size:34.985px;font-family:'Trajan Pro 3';-inkscape-font-specification:'Trajan Pro 3, Normal';display:inline;fill:url(#linearGradient98);stroke-width:6.19816;stroke-linecap:square;paint-order:stroke fill markers;filter:url(#filter277)"
     d="m 42.31679,115.81464 v -6.15736 q 0,-6.43724 -0.06997,-7.55676 -0.06997,-0.94459 -0.384835,-1.36441 -0.27988,-0.45481 -1.11952,-0.62973 -0.104955,-0.035 -0.27988,-0.035 -0.174925,-0.035 -0.41982,-0.035 -0.20991,-0.035 -0.314865,-0.035 -0.454805,-0.06997 -0.454805,-0.209906 0,-0.27988 0.55976,-0.27988 1.74925,0 3.953306,0.104955 7.20691,0 8.011565,-0.03499 1.294445,-0.06997 1.60931,-0.20991 0.27988,-0.13994 0.384835,-0.13994 0.13994,0 0.13994,0.314865 0,0.06997 -0.13994,0.594746 -0.104955,0.48979 -0.13994,1.04955 l -0.13994,2.0991 q -0.06997,0.59475 -0.27988,0.59475 -0.27988,0 -0.27988,-0.45481 0,-0.6997 -0.174925,-1.1545 -0.34985,-1.08454 -2.51892,-1.29445 -0.90961,-0.10495 -4.792945,-0.10495 -0.20991,0 -0.20991,0.34985 v 9.65586 q 0,0.34985 0.20991,0.34985 4.75796,0 5.562615,-0.07 1.32943,-0.10496 1.74925,-0.59475 0.27988,-0.34985 0.41982,-0.34985 0.174925,0 0.174925,0.27988 0,0.07 -0.06997,0.31487 -0.03498,0.24489 -0.104955,0.6997 -0.06997,0.4548 -0.104955,0.94459 -0.06997,0.62973 -0.104955,1.50436 -0.03498,0.83964 -0.03498,0.87462 -0.06997,0.52478 -0.244895,0.52478 -0.244895,0 -0.244895,-0.55976 0,-0.55976 -0.13994,-0.97958 -0.244895,-0.97958 -1.81922,-1.15451 -1.574325,-0.17492 -5.002855,-0.17492 -0.244895,0 -0.244895,0.24489 v 3.07868 q 0,0.31487 0,1.81922 0,1.46937 0,2.65886 0,1.18949 0,1.50436 0.06997,1.1545 0.27988,1.74925 0.244895,0.55976 0.874625,0.80465 0.76967,0.31487 2.903755,0.31487 2.0991,0 3.14865,-0.31487 0.804655,-0.24489 1.18949,-0.80465 0.384835,-0.59475 0.594745,-1.78424 0.104955,-0.52477 0.314865,-0.52477 0.20991,0 0.20991,0.52477 0,0.2449 -0.174925,1.57433 -0.174925,1.32943 -0.27988,1.81922 -0.174925,0.66471 -0.48979,0.76967 -0.314865,0.13994 -1.3994,0.13994 -1.014565,0 -5.10781,-0.10496 -4.198201,-0.10495 -4.373126,-0.10495 -0.34985,0 -1.224475,0.07 -0.874625,0.07 -1.364415,0.035 -0.55976,0 -0.55976,-0.27988 0,-0.13994 0.384835,-0.20991 0.664715,-0.07 0.804655,-0.10495 0.62973,-0.13994 0.90961,-0.80466 0.314865,-0.66471 0.34985,-2.48393 0.06997,-2.72883 0.06997,-6.26232 z"
     transform="matrix(0.97218711,0,0,0.94206234,-3.1627336,5.2942847)"
     id="path2" />
  <path
     style="font-size:34.985px;font-family:'Trajan Pro 3';-inkscape-font-specification:'Trajan Pro 3, Normal';display:inline;fill:url(#linearGradient98);stroke-width:6.19816;stroke-linecap:square;paint-order:stroke fill markers;filter:url(#filter277)"
     d="m 25.593961,101.01599 v 14.79865 q 0,6.12238 0.174925,7.59175 0.104955,0.87462 0.34985,1.36441 0.27988,0.45481 1.014565,0.55976 0.97958,0.13994 1.574325,0.13994 0.27988,0 0.27988,0.20991 0,0.27988 -0.55976,0.27988 -0.83964,0 -1.88919,-0.035 -1.014565,0 -1.714265,-0.035 -0.664715,-0.035 -0.6997,-0.035 -0.03498,0 -0.6997,0 -0.62973,0.035 -1.46937,0.07 -0.804655,0.035 -1.25946,0.035 -0.55976,0 -0.55976,-0.27988 0,-0.20991 0.27988,-0.20991 0.41982,0 1.04955,-0.13994 0.76967,-0.13994 1.014565,-1.92417 0.174925,-1.46937 0.174925,-7.59175 v -14.79865 q -0.83964,0 -2.58889,0.035 -1.74925,0.035 -2.58889,0.035 -1.644295,0.035 -2.413966,0.27988 -0.734685,0.20991 -1.154505,0.83964 -0.384835,0.59474 -0.594745,1.08453 -0.13994,0.34985 -0.34985,0.34985 -0.174925,0 -0.174925,-0.31486 0,-0.55976 0.76967,-3.638441 0.20991,-0.664715 0.34985,-0.664715 0.06997,0 0.524775,0.20991 0.454805,0.174925 1.014566,0.20991 1.67928,0.174925 2.763815,0.174925 h 13.119375 q 1.53934,0 2.483935,-0.174925 0.20991,-0.03499 0.41982,-0.06997 0.244895,-0.03499 0.34985,-0.06997 0.13994,-0.03498 0.20991,-0.03498 0.174925,0 0.174925,0.41982 0,0.594746 -0.06997,2.169076 -0.03498,1.57432 -0.03498,1.67928 0,0.4548 -0.244895,0.4548 -0.244895,0 -0.27988,-0.59474 0,-0.07 -0.03498,-0.17493 0,-0.13994 0,-0.20991 -0.174925,-1.8542 -4.303155,-1.92417 -0.734685,0 -2.204055,-0.035 -1.46937,-0.035 -2.204055,-0.035 z"
     transform="matrix(0.97218711,0,0,0.94206234,-3.1627336,5.2942847)"
     id="text1" />
  <path
     style="display:inline;fill:#f9f8f4;fill-opacity:1;stroke:none;stroke-width:3.77953;stroke-linecap:square;paint-order:stroke fill markers"
     d="m 11.998244,154.64955 c -0.512855,0.91415 -0.458792,1.81113 0,2.69584 h 25.323261 c 0.498964,-0.94851 0.381596,-1.83539 0,-2.69584 z m 223.218316,0 c 0.51286,0.91415 0.4588,1.81113 0,2.69584 H 209.8933 c -0.49896,-0.94851 -0.38159,-1.83539 0,-2.69584 z"
     id="path300"
     sodipodi:nodetypes="ccccc" />
  <path
     d="m 59.71495,165.59063 -0.400989,0.98137 q -2.34262,1.19241 -5.001811,1.19241 -3.809396,0 -6.194226,-2.16323 -2.374277,-2.16323 -2.374277,-5.65605 0,-2.40594 1.181862,-4.19984 1.192415,-1.80445 3.134047,-2.69084 1.952183,-0.89695 4.379222,-0.89695 1.403462,0 2.775267,0.29546 1.371805,0.29547 2.289858,0.70701 l 0.07387,0.10552 q -0.242704,0.59094 -0.453751,2.923 l -0.07387,0.0844 h -0.495961 l -0.08442,-0.0844 -0.105524,-1.7939 q -0.770321,-0.61203 -1.867765,-0.94971 -1.086891,-0.34822 -2.268754,-0.34822 -1.783346,0 -3.19736,0.77032 -1.414014,0.75977 -2.194887,2.21599 -0.780874,1.44567 -0.780874,3.54559 0,2.11047 0.918054,3.70387 0.918054,1.5934 2.500906,2.44814 1.593404,0.85474 3.714425,0.85474 0.939158,0 1.804451,-0.17939 0.865292,-0.17939 1.435118,-0.44319 0.580379,-0.26381 1.107996,-0.6437 z m 13.338163,-13.12711 0.09497,0.095 q -0.09497,0.94971 -0.09497,3.31343 l -0.08442,0.0844 h -0.49596 l -0.08442,-0.095 -0.116075,-0.97082 q -0.08442,-0.78087 -0.137181,-0.94971 -0.04221,-0.17939 -0.147733,-0.25325 -0.105523,-0.0844 -0.685902,-0.13718 -0.580379,-0.0528 -1.297938,-0.0528 h -1.994393 q -0.08442,2.38483 -0.08442,2.75416 v 6.15201 l 0.02111,2.05771 q 0.01055,1.19242 0.05276,1.5512 0.05276,0.34822 0.147733,0.4643 0.105524,0.10552 0.390437,0.18994 0.284913,0.0739 1.414014,0.11608 l 0.07387,0.0633 v 0.52762 l -0.07387,0.0844 q -2.7014,-0.0844 -3.01797,-0.0844 -0.337675,0 -3.007418,0.0844 l -0.08442,-0.0844 v -0.52762 l 0.08442,-0.0633 q 0.99192,-0.0422 1.30849,-0.10553 0.327123,-0.0633 0.432646,-0.15828 0.116076,-0.10553 0.189942,-0.43265 0.07387,-0.32712 0.07387,-1.45622 l 0.02111,-2.22655 v -6.15201 q 0,-0.16884 -0.08442,-2.75416 h -1.572299 q -0.970816,0 -1.677823,0.0422 -0.707007,0.0422 -0.823083,0.2216 -0.105523,0.16884 -0.200494,1.1291 l -0.105524,0.97082 -0.09497,0.095 h -0.485408 l -0.08442,-0.0844 q -0.0211,-2.54311 -0.09497,-3.31343 l 0.09497,-0.095 q 1.836108,0.0844 6.109808,0.0844 4.358118,0 6.120359,-0.0844 z m 1.276834,0.0739 0.08442,-0.0739 q 3.619454,0.0633 4.632479,0.0633 3.461169,0 6.162569,-0.0633 l 0.05276,0.0739 q -0.263809,1.01303 -0.390437,3.17626 l -0.06331,0.0844 h -0.517065 l -0.09497,-0.0844 q 0.01055,-0.095 0.01055,-0.16884 0,-0.89695 -0.137181,-1.70948 -0.664798,-0.29547 -1.84666,-0.37988 -1.17131,-0.095 -1.762241,-0.095 -0.833636,0 -2.131574,0.11608 l -0.04221,1.68838 -0.03166,1.93107 -0.03166,2.14213 q 1.139653,0.0633 2.099916,0.0633 0.970816,0 1.625061,-0.0633 0.654245,-0.0633 0.759769,-0.12663 0.116076,-0.0739 0.168837,-0.26381 0.06331,-0.20049 0.105524,-0.69645 l 0.04221,-0.65425 0.08442,-0.0844 h 0.485408 l 0.08442,0.0844 q -0.0211,1.15021 -0.05276,2.31097 l 0.05276,2.37427 -0.08442,0.0844 h -0.485408 l -0.08442,-0.0844 -0.07387,-0.63314 q -0.09497,-0.73866 -0.137181,-0.87584 -0.04221,-0.14773 -0.200494,-0.25326 -0.147733,-0.10552 -0.780874,-0.16883 -0.63314,-0.0633 -1.741136,-0.0633 -0.612036,0 -1.867765,0.0528 -0.05276,0.8864 -0.05276,2.95466 0,2.21599 0.05276,3.26067 h 1.941631 q 2.564219,0 3.207912,-0.0633 0.643693,-0.0633 1.224072,-0.30602 0.09497,-0.2427 0.306018,-1.11855 0.2216,-0.88639 0.253257,-1.10799 l 0.105523,-0.0739 h 0.506513 l 0.08442,0.0739 q -0.09497,0.45375 -0.189942,1.58285 -0.08442,1.1291 -0.08442,1.93108 l -0.07387,0.0844 q -2.015498,-0.0633 -5.276172,-0.0633 l -2.870238,-0.0211 q -1.002472,0 -2.089364,0.0844 l -0.08442,-0.0844 v -0.34823 l 0.08442,-0.10552 q 0.622589,-0.31657 0.707007,-0.39044 0.09497,-0.0844 0.147733,-1.84666 0.06331,-1.77279 0.06331,-2.7014 v -3.87271 l -0.01055,-2.39538 q 0,-0.78088 -0.02111,-1.26628 -0.0211,-0.49596 -0.07387,-0.70701 -0.05276,-0.21105 -0.126628,-0.29547 -0.06331,-0.0844 -0.2216,-0.13718 -0.147732,-0.0633 -0.517064,-0.10552 l -0.801979,-0.0633 -0.08442,-0.0739 z m 6.025388,-0.85474 z m -0.04221,16.32448 z m 6.985652,-0.63314 v -0.52762 l 0.08442,-0.0633 q 0.928606,-0.0317 1.287386,-0.095 0.369332,-0.0633 0.485408,-0.2005 0.116076,-0.13718 0.158285,-0.4432 0.04221,-0.31657 0.06331,-1.5723 0.02111,-1.26628 0.02111,-2.06826 v -4.88573 q 0,-1.09745 -0.03166,-2.33207 -0.0211,-1.23462 -0.08442,-1.45622 -0.05276,-0.23215 -0.168838,-0.32713 -0.105523,-0.10552 -0.443198,-0.16883 -0.327123,-0.0633 -1.287386,-0.095 l -0.08442,-0.0739 v -0.52762 l 0.08442,-0.0739 q 0.05276,0 1.382357,0.0422 1.255729,0.0422 1.66727,0.0422 0.253257,0 2.996866,-0.0844 l 0.08442,0.0739 v 0.52762 l -0.08442,0.0739 q -0.928606,0.0317 -1.297938,0.095 -0.35878,0.0633 -0.474856,0.20049 -0.116076,0.12663 -0.158285,0.43265 -0.04221,0.30602 -0.06331,1.60395 -0.02111,1.29794 -0.02111,2.04716 v 8.1042 l 0.158285,0.0739 q 2.226545,-3.20791 5.044021,-7.63989 2.817476,-4.43199 3.450612,-5.59274 1.108,0.0844 2.05771,0.0844 1.07634,0 2.04716,-0.0844 l 0.0844,0.0739 v 0.52762 l -0.0844,0.0739 q -1.03413,0.0317 -1.3507,0.10552 -0.30602,0.0633 -0.41155,0.16884 -0.10552,0.10552 -0.15828,0.35878 -0.0528,0.25325 -0.0739,1.5934 -0.0211,1.34015 -0.0211,2.15268 v 4.88573 q 0,0.8653 0.0211,2.09992 0.0211,1.22407 0.0633,1.54064 0.0422,0.31657 0.16883,0.45375 0.12663,0.12663 0.49596,0.18995 0.37989,0.0633 1.26629,0.0844 l 0.0844,0.0739 v 0.52762 l -0.0844,0.0844 q -0.0528,0 -1.38236,-0.0422 -1.22407,-0.0422 -1.66727,-0.0422 -0.28491,0 -2.996867,0.0844 l -0.08442,-0.0844 v -0.52762 l 0.08442,-0.0739 q 0.928606,-0.0211 1.287386,-0.0844 0.369332,-0.0739 0.485408,-0.2005 0.116073,-0.12663 0.158283,-0.43265 0.0422,-0.31657 0.0633,-1.60395 0.0211,-1.29794 0.0211,-2.04716 l 0.0105,-7.87204 -0.211044,-0.0739 q -0.918054,1.34015 -4.263147,6.44748 l -4.242042,6.55301 q -0.896949,-0.0844 -2.078812,-0.0844 -0.823083,0 -1.973288,0.0844 z m 5.719371,-18.28721 1.034129,-0.80198 0.263809,0.13718 q 0.411541,1.84666 2.068259,1.84666 0.844188,0 1.371805,-0.48541 0.53817,-0.49596 0.53817,-1.44567 l 0.274361,-0.0844 0.45375,1.1291 q -1.297938,1.51954 -3.028522,1.51954 -0.960264,0 -1.698928,-0.4643 -0.738664,-0.47486 -1.276833,-1.3507 z m 16.419451,10.64731 0.97081,-0.82308 q 0.32712,-0.27436 0.77032,-0.69646 l 0.9075,-0.87584 2.35318,-2.35317 q 1.53009,-1.53009 1.67782,-1.76225 v -0.67535 l 0.10552,-0.0844 q 0.85474,0.0422 1.43512,0.0422 l 1.98384,-0.0317 0.10553,0.095 v 0.48541 l -0.0844,0.095 q -0.94971,0.0105 -1.42457,0.11607 -0.4643,0.095 -0.98137,0.43265 -0.51706,0.32712 -1.7939,1.47733 l -4.23149,3.8305 6.5319,6.13091 q 1.45623,1.36125 1.68838,1.50899 0.2427,0.14773 0.79143,0.15828 l 0.0739,0.0844 v 0.4432 l -0.0739,0.0844 q -1.90998,-0.0422 -2.30042,-0.095 -0.39043,-0.0528 -0.79142,-0.25326 -0.39044,-0.20049 -7.71376,-6.91179 v 2.24765 l 0.0105,2.06826 q 0.0105,1.18187 0.0633,1.54065 0.0528,0.34822 0.14773,0.4643 0.10553,0.10552 0.37989,0.18994 0.28491,0.0739 1.42457,0.11608 l 0.0739,0.0633 v 0.52762 l -0.0739,0.0844 q -0.14774,0 -1.86777,-0.0633 -0.75977,-0.0211 -1.17131,-0.0211 -0.16884,0 -3.01797,0.0844 l -0.0844,-0.0844 v -0.52762 l 0.0844,-0.0633 q 1.45622,-0.0528 1.68838,-0.2216 0.23215,-0.16884 0.2638,-0.65425 0.0422,-0.49596 0.0633,-3.50338 v -4.88573 l -0.0211,-2.06826 q 0,-1.19242 -0.0528,-1.54064 -0.0528,-0.34823 -0.15828,-0.46431 -0.095,-0.11607 -0.37989,-0.18994 -0.27436,-0.0739 -1.40346,-0.11607 l -0.0844,-0.0739 v -0.52762 l 0.0844,-0.0739 q 2.60643,0.0844 3.01797,0.0844 0.45375,0 3.03908,-0.0844 l 0.0739,0.0739 v 0.52762 l -0.0739,0.0739 q -1.03413,0.0317 -1.3507,0.10552 -0.30602,0.0633 -0.41155,0.16884 -0.10552,0.10552 -0.17939,0.43264 -0.0633,0.32713 -0.0739,1.43512 l -0.0105,2.2371 z m 32.60673,6.58466 q -0.85474,0.60149 -1.77279,1.36126 -0.33767,0.0739 -0.73866,0.0739 -0.93916,0 -1.88887,-0.39043 -0.94971,-0.39044 -2.0155,-1.26629 -1.39291,1.03413 -2.34262,1.3507 -0.94971,0.31657 -2.02605,0.31657 -2.14213,0 -3.28178,-1.27683 -1.1291,-1.28739 -1.1291,-2.9441 0,-2.82803 3.31343,-4.61138 -0.63314,-1.51953 -0.63314,-2.75416 0,-0.50651 0.13718,-0.96026 0.14774,-0.46431 0.32713,-0.71756 0.17939,-0.25326 0.62259,-0.63314 0.44319,-0.39044 0.85474,-0.72811 0.41154,-0.34823 0.78087,-0.48541 0.37988,-0.14773 0.81253,-0.14773 0.97082,0 1.45622,0.55927 0.49596,0.54872 0.49596,1.42457 0,2.20544 -3.07073,4.2948 0.6648,1.34015 2.00495,3.01797 1.34014,1.67782 2.36372,2.4798 1.07634,-1.18186 1.07634,-2.58532 0,-0.55928 -0.13718,-0.94971 -0.12663,-0.39044 -0.33767,-0.51707 -0.21105,-0.13718 -0.74922,-0.13718 -0.56983,-0.0105 -1.1291,-0.0211 l -0.095,-0.13718 0.6859,-1.00248 q 0.62259,0.095 1.80445,0.095 0.62259,0 1.88887,-0.0528 1.28739,-0.0422 2.42704,-0.0422 l 0.095,0.095 q -0.15829,0.62259 -0.21105,1.27684 l -0.10552,0.0844 q -1.21352,-0.2005 -2.61698,-0.2005 -0.0528,0 -0.31657,0.0105 0.12663,0.4432 0.12663,0.93916 0,1.85721 -1.76225,3.64056 1.93108,1.38236 3.79885,1.38236 0.27436,0 0.47485,-0.0633 0.2005,-0.0739 0.6437,-0.31657 l 0.12662,0.0633 0.0739,0.32712 z m -10.44682,-8.25193 q 0.8653,-0.61204 1.42457,-1.43512 0.55927,-0.82308 0.55927,-1.5723 0,-0.51706 -0.32712,-0.94971 -0.31657,-0.4432 -0.83363,-0.4432 -0.53817,0 -0.96027,0.45375 -0.41154,0.4432 -0.41154,1.34015 0,1.02358 0.54872,2.60643 z m 3.3451,7.49216 q -1.96274,-2.07881 -2.81748,-3.25012 -0.84419,-1.18186 -1.61451,-2.55366 -1.04468,0.73866 -1.42456,1.49843 -0.37989,0.75977 -0.37989,1.56175 0,1.44567 1.04468,2.58532 1.05524,1.13965 2.54312,1.13965 1.36125,0 2.64864,-0.98137 z m 19.90172,1.81501 -0.0844,0.0844 q -0.0739,0 -1.38236,-0.0422 -1.25573,-0.0422 -1.66727,-0.0422 -0.2216,0 -2.99686,0.0844 l -0.0844,-0.0844 v -0.52762 l 0.0844,-0.0633 q 0.9286,-0.0317 1.28738,-0.095 0.36933,-0.0633 0.48541,-0.2005 0.11608,-0.13718 0.15829,-0.4432 0.0422,-0.31657 0.0633,-1.5723 0.0211,-1.26628 0.0211,-2.06826 v -4.88573 q 0,-1.07634 -0.0317,-2.31096 -0.0211,-1.24518 -0.0844,-1.47733 -0.0528,-0.23215 -0.16884,-0.32713 -0.10552,-0.10552 -0.43265,-0.15828 -0.31657,-0.0633 -1.29793,-0.10552 l -0.0844,-0.0739 v -0.52762 l 0.0844,-0.0739 0.63314,0.0106 0.42209,0.0105 0.72811,0.0105 1.47733,0.0106 2.19489,0.0211 q 1.25573,0.0106 2.74361,0.0211 l 4.23149,-0.0317 2.4798,-0.0211 q 0.71756,-0.0105 1.42456,-0.0317 l 0.0844,0.0739 v 0.52762 l -0.0844,0.0739 q -1.03413,0.0317 -1.3507,0.10552 -0.30601,0.0633 -0.41154,0.16884 -0.10552,0.10552 -0.15828,0.35878 -0.0528,0.25325 -0.0739,1.6145 -0.0211,1.36126 -0.0211,2.13158 v 4.88573 q 0,0.82309 0.0211,2.06826 0.0211,1.24518 0.0528,1.5723 0.0422,0.31657 0.16884,0.45375 0.12663,0.12663 0.50651,0.18995 0.37989,0.0633 1.26628,0.095 l 0.0844,0.0633 v 0.52762 l -0.0844,0.0844 q -0.0844,0 -1.38235,-0.0422 -1.25573,-0.0422 -1.67783,-0.0422 -0.21104,0 -2.99686,0.0844 l -0.0739,-0.0844 v -0.52762 l 0.0739,-0.0633 q 1.05523,-0.0422 1.36125,-0.10553 0.30602,-0.0739 0.40099,-0.17939 0.10552,-0.10552 0.15829,-0.35878 0.0528,-0.25325 0.0739,-1.61451 0.0317,-1.36125 0.0317,-2.12102 v -8.91673 l -0.11608,-0.11607 h -8.04088 l -0.11608,0.11607 v 8.91673 q 0,0.81253 0.0211,2.06826 0.0211,1.25573 0.0633,1.5723 0.0422,0.31657 0.15829,0.45375 0.12662,0.12663 0.49596,0.18995 0.37988,0.0633 1.27683,0.095 l 0.0844,0.0633 z m 11.28046,0.0844 -0.095,-0.0844 v -0.54872 l 0.095,-0.0844 q 0.77032,-0.0106 0.99192,-0.0739 0.2216,-0.0739 0.39043,-0.27436 0.17939,-0.21105 0.70701,-1.3507 l 1.108,-2.40593 2.87024,-6.50025 q 0.81253,-1.90997 1.6145,-3.81995 h 0.68591 l 4.50585,10.59456 0.60148,1.41401 q 0.26381,0.60148 0.60148,1.30849 0.34823,0.70701 0.47486,0.83364 0.13718,0.12662 0.32712,0.20049 0.2005,0.0633 0.87585,0.0739 l 0.0844,0.0844 v 0.54872 l -0.0844,0.0844 q -1.11855,-0.095 -2.0155,-0.095 -1.75169,0.0528 -3.50338,0.095 l -0.0844,-0.0844 v -0.54872 l 0.0844,-0.0844 q 1.18186,-0.0211 1.47733,-0.095 0.29546,-0.0844 0.29546,-0.36934 0,-0.23215 -0.14773,-0.61203 l -1.29794,-3.21847 h -6.1098 l -1.15021,2.7014 q -0.30602,0.72811 -0.30602,1.06579 0,0.26381 0.28492,0.39044 0.28491,0.12662 1.43512,0.13718 l 0.095,0.0844 v 0.54872 l -0.0844,0.0844 q -1.36125,-0.0844 -2.38483,-0.0844 -1.16076,0 -2.34262,0.0844 z m 4.81187,-5.91987 h 5.33948 l -2.64864,-6.36306 z m 3.19736,-9.85589 z m -0.24271,16.32448 z m 13.23264,-9.12778 h 1.25573 q 1.73058,0 2.95466,0.15829 1.22407,0.15828 2.08936,0.63314 0.86529,0.47485 1.3296,1.26628 0.4643,0.79142 0.4643,1.78334 0,0.81253 -0.33768,1.61451 -0.33767,0.79143 -0.98136,1.44567 -0.6437,0.6437 -1.40347,1.02358 -0.74921,0.36933 -1.50898,0.51707 -0.75977,0.13718 -1.89942,0.13718 -0.59093,0 -1.70948,-0.0422 -1.05524,-0.0422 -1.49844,-0.0422 -1.22407,0 -2.78581,0.0844 l -0.0844,-0.0844 v -0.52762 l 0.0844,-0.0633 q 0.9286,-0.0317 1.28738,-0.095 0.36933,-0.0633 0.48541,-0.2005 0.11608,-0.13718 0.15828,-0.4432 0.0422,-0.31657 0.0633,-1.5723 0.0211,-1.26628 0.0211,-2.06826 v -4.88573 q 0,-1.07634 -0.0317,-2.31096 -0.0211,-1.24518 -0.0844,-1.47733 -0.0528,-0.23215 -0.16884,-0.32713 -0.10552,-0.10552 -0.43265,-0.15828 -0.31657,-0.0633 -1.29793,-0.10552 l -0.0844,-0.0739 v -0.52762 l 0.0844,-0.0739 q 1.48788,0.0844 8.00922,0.0844 0.39044,0 2.79638,-0.0844 l 0.16883,0.22159 q -0.16883,1.00248 -0.28491,2.85969 l -0.0633,0.0844 h -0.39044 l -0.095,-0.0844 -0.13718,-0.80198 q -0.0633,-0.4432 -0.21105,-0.71756 -0.13718,-0.28491 -0.41154,-0.41154 -0.27436,-0.13718 -0.67535,-0.17939 -0.39044,-0.0528 -1.05523,-0.0528 h -3.35565 l -0.16884,0.17939 q -0.095,1.25573 -0.095,2.79637 z m 0,7.58714 0.16884,0.17939 q 0.9075,0.0211 1.27683,0.0211 1.48788,0 2.38483,-0.43265 0.9075,-0.43264 1.43512,-1.36125 0.52762,-0.9286 0.52762,-2.06826 0,-0.98137 -0.48541,-1.78334 -0.47486,-0.80198 -1.40346,-1.11855 -0.91806,-0.31657 -3.00742,-0.31657 h -0.89695 z"
     id="text28"
     style="font-size:21.6112px;font-family:'Palatino Linotype';-inkscape-font-specification:'Palatino Linotype';font-variant-caps:all-small-caps;fill:#f9f8f4;stroke-width:4.5945;stroke-linecap:square;paint-order:stroke fill markers"
     inkscape:label="text28"
     transform="scale(1.0259526,0.9747039)"
     aria-label="СТЕЙК &amp; ПАБ" />
  <g
     id="g83"
     style="display:inline;fill:url(#linearGradient106);fill-opacity:1"
     transform="translate(-1.4179162,-1.6210451)">
    <g
       id="g5"
       inkscape:path-effect="#path-effect6"
       style="display:inline;fill:url(#linearGradient3);fill-opacity:1">
      <path
         style="display:inline;fill:url(#linearGradient1);fill-opacity:1;stroke:none;stroke-width:3.77953;stroke-linecap:square;paint-order:stroke fill markers;filter:url(#filter281)"
         d="m 125.02907,18.599806 h -6.1955 c 2.14521,0.534737 2.43375,0.759992 5.78247,1.004944 v 5.389832 c -4.56537,0.923509 -3.95428,0.186522 -3.85446,18.751672 h 4.26749 z m 0,0 h 6.1955 c -2.14521,0.534737 -2.43375,0.759992 -5.78247,1.004944 v 5.389832 c 4.56537,0.923509 3.95428,0.186522 3.85446,18.751672 h -4.26749 z m 54.67188,0 h 6.1955 c -2.14521,0.534737 -2.43375,0.759992 -5.78247,1.004944 v 5.389832 c 4.56537,0.923509 3.95428,0.186522 3.85446,18.751672 h -4.26749 z m 0,0 h -6.1955 c 2.14521,0.534737 2.43375,0.759992 5.78247,1.004944 v 5.389832 c -4.56537,0.923509 -3.95428,0.186522 -3.85446,18.751672 h 4.26749 z"
         id="path8"
         sodipodi:nodetypes="ccccccc"
         inkscape:original-d="m 125.02907,18.599806 h -6.1955 c 2.14521,0.534737 2.43375,0.759992 5.78247,1.004944 v 5.389832 c -4.56537,0.923509 -3.95428,0.186522 -3.85446,18.751672 h 4.26749 z"
         transform="matrix(1.1462365,0,0,1.4438868,-49.621014,27.606762)"
         inkscape:path-effect="#path-effect10" />
      <path
         style="display:inline;fill:url(#linearGradient2);fill-opacity:1;stroke:none;stroke-width:3.77953;stroke-linecap:square;paint-order:stroke fill markers;filter:url(#filter283)"
         d="m 125.02907,18.599806 h -6.1955 c 2.14521,0.534737 2.36484,0.759992 5.71356,1.004944 v 7.290722 c -3.58367,0.844667 -3.67298,1.780775 -4.33152,16.576736 h 4.81346 z m 0,0 h 6.1955 c -2.14521,0.534737 -2.36484,0.759992 -5.71356,1.004944 v 7.290722 c 3.58367,0.844667 3.67298,1.780775 4.33152,16.576736 h -4.81346 z m 29.68825,0 h 6.1955 c -2.14521,0.534737 -2.36484,0.759992 -5.71356,1.004944 v 7.290722 c 3.58367,0.844667 3.67298,1.780775 4.33152,16.576736 h -4.81346 z m 0,0 h -6.1955 c 2.14521,0.534737 2.36484,0.759992 5.71356,1.004944 v 7.290722 c -3.58367,0.844667 -3.67298,1.780775 -4.33152,16.576736 h 4.81346 z"
         id="path10"
         sodipodi:nodetypes="ccccccc"
         inkscape:original-d="m 125.02907,18.599806 h -6.1955 c 2.14521,0.534737 2.36484,0.759992 5.71356,1.004944 v 7.290722 c -3.58367,0.844667 -3.67298,1.780775 -4.33152,16.576736 h 4.81346 z"
         transform="translate(-14.847872)"
         inkscape:path-effect="#path-effect12" />
    </g>
    <path
       style="display:inline;fill:url(#linearGradient4);fill-opacity:1;stroke:none;stroke-width:3.77953;stroke-linecap:square;paint-order:stroke fill markers;filter:url(#filter287)"
       d="m 125.02907,2.037306 h -11.89248 c 0,0 0.91778,0.4153097 -0.17479,1.0631409 -0.68025,0.6588408 0.0868,0.7368496 0.50656,1.9895469 -6.50701,0.8396893 -3.78439,23.7630292 -4.48712,38.3822142 h 16.04783 z m 0,0 h 11.89248 c 0,0 -0.91778,0.4153097 0.17479,1.0631409 0.68025,0.6588408 -0.0868,0.7368496 -0.50656,1.9895469 6.50701,0.8396893 3.78439,23.7630292 4.48712,38.3822142 h -16.04783 z"
       id="path14"
       sodipodi:nodetypes="ccccccc"
       transform="translate(0,47.300371)"
       inkscape:original-d="m 125.02907,2.037306 h -11.89248 c 0,0 0.91778,0.4153097 -0.17479,1.0631409 -0.68025,0.6588408 0.0868,0.7368496 0.50656,1.9895469 -6.50701,0.8396893 -3.78439,23.7630292 -4.48712,38.3822142 h 16.04783 z"
       inkscape:path-effect="#path-effect16" />
    <path
       id="path16"
       style="display:inline;opacity:1;fill:url(#linearGradient107);fill-opacity:1;stroke:#981312;stroke-width:0.88;stroke-linecap:butt;stroke-linejoin:round;stroke-dasharray:none;stroke-opacity:1;paint-order:markers stroke fill;filter:url(#filter300)"
       d="m 130.76562,58.013672 c -0.0673,0.0028 -0.13164,0.0072 -0.19335,0.01563 -0.45659,0.03311 -0.89603,0.22034 -1.31055,0.607422 -1.50186,1.82091 -0.5529,3.192899 0.96094,4.222656 0.50557,0.38959 1.48119,0.579235 1.47656,0.04102 -0.008,-2.183982 -1.4085,-2.689052 -1.80274,-2.158204 1.05136,-2.827886 4.32762,4.658569 4.33594,11.1875 -6.9e-4,6.528937 -3.26761,14.018063 -4.32226,11.191407 0.39486,0.530388 1.79574,0.02383 1.80078,-2.160157 0.004,-0.538224 -0.97145,-0.347211 -1.47657,0.04297 -1.51263,1.031524 -2.46101,2.405455 -0.95703,4.22461 0.41497,0.386597 0.85393,0.570935 1.31055,0.603515 0.49382,0.0671 1.14247,-0.0094 2.33203,-0.824219 2.61969,-1.961623 4.78124,-6.078711 4.78125,-13.080078 -0.008,-7.001362 -2.17294,-11.117608 -4.79492,-13.076172 -1.0417,-0.71177 -1.66925,-0.857477 -2.14063,-0.83789 z"
       sodipodi:nodetypes="ccccccccc"
       inkscape:original-d="m 130.58797,85.83264 c 0.49382,0.0671 1.14327,-0.01009 2.33283,-0.824931 2.6197,-1.961629 4.78008,-6.079116 4.78008,-13.080518 h -3.46817 c 0,6.529426 -3.26743,14.021625 -4.3222,11.194668 0.39486,0.530388 1.79493,0.02253 1.79997,-2.161459 0.004,-0.538224 -0.97147,-0.34696 -1.47659,0.04322 -1.51263,1.031524 -2.46012,2.405105 -0.95614,4.22426 0.41497,0.386597 0.8536,0.57218 1.31022,0.60476 z"
       inkscape:path-effect="#path-effect17" />
    <path
       style="display:inline;fill:url(#linearGradient5);fill-opacity:1;stroke:none;stroke-width:3.77953;stroke-linecap:square;paint-order:stroke fill markers;filter:url(#filter279)"
       d="m 125.02907,18.599806 h -6.1955 c 2.14521,0.534737 2.36484,0.759992 5.71356,1.004944 v 7.290722 c -3.58367,0.844667 -3.67298,1.780775 -4.33152,16.576736 h 4.81346 z m 0,0 h 6.1955 c -2.14521,0.534737 -2.36484,0.759992 -5.71356,1.004944 v 7.290722 c 3.58367,0.844667 3.67298,1.780775 4.33152,16.576736 h -4.81346 z"
       id="path1"
       sodipodi:nodetypes="ccccccc"
       inkscape:original-d="m 125.02907,18.599806 h -6.1955 c 2.14521,0.534737 2.36484,0.759992 5.71356,1.004944 v 7.290722 c -3.58367,0.844667 -3.67298,1.780775 -4.33152,16.576736 h 4.81346 z"
       inkscape:path-effect="#path-effect3" />
  </g>
</svg>
