<?xml version="1.0" encoding="UTF-8" standalone="no"?>
<svg
   version="1.1"
   x="0px"
   y="0px"
   viewBox="0 0 52 72"
   xml:space="preserve"
   id="svg8"
   width="52"
   height="72"
   xmlns="http://www.w3.org/2000/svg"
   xmlns:svg="http://www.w3.org/2000/svg"><defs
     id="defs8" /><g
     id="g7"
     transform="translate(-10)"
     style="fill:#ffffff;fill-opacity:1"><g
       id="g6"
       style="fill:#ffffff;fill-opacity:1"><path
         d="M 30,17.89001 V 9 C 30,7.34998 28.65002,6 27,6 h -2 c -1.65002,0 -3,1.34998 -3,3 v 8.89001 C 22,22.25 20.47998,26.5 17.72998,29.87 14.67999,33.59003 13,38.28998 13,43.10999 V 64 c 0,2.76001 2.23999,5 5,5 h 16 c 2.76001,0 5,-2.23999 5,-5 V 43.10999 C 39,38.28998 37.32001,33.59003 34.27002,29.87 31.52002,26.5 30,22.25 30,17.89001 Z m 1.34998,36.82996 C 30.32001,56.73999 28.27002,58 26,58 23.72998,58 21.67999,56.73999 20.65002,54.71997 20.10999,53.65997 19.08002,53 17.94,53 H 15 v -2 h 2.94 c 1.14001,0 2.16998,-0.65997 2.71002,-1.71997 C 21.67999,47.26001 23.72998,46 26,46 c 2.27002,0 4.32001,1.26001 5.34998,3.28003 C 31.89001,50.34003 32.91998,51 34.06,51 H 37 v 2 h -2.94 c -1.14002,0 -2.16999,0.65997 -2.71002,1.71997 z"
         id="path1"
         style="fill:#ffffff;fill-opacity:1" /><path
         d="m 20,8 c 0.55225,0 1,-0.44775 1,-1 0,-1.10303 0.89697,-2 2,-2 h 6 c 1.10303,0 2,0.89697 2,2 0,0.55225 0.44775,1 1,1 0.55225,0 1,-0.44775 1,-1 0,-2.20557 -1.79443,-4 -4,-4 h -6 c -2.20557,0 -4,1.79443 -4,4 0,0.55225 0.44775,1 1,1 z"
         id="path2"
         style="fill:#ffffff;fill-opacity:1" /><path
         d="M 58.12549,35.88586 C 58.60987,35.01037 58.87012,34.02972 58.87012,33 c 0,-3.44629 -2.90332,-6.26367 -6.41699,-5.9834 C 51.51954,24.34375 49.14551,22.4209 46.31055,22.06543 45.11719,19.05127 42.15137,17 38.87012,17 c -2.09521,0 -4.07324,0.8042 -5.56885,2.26465 -0.39502,0.38574 -0.40283,1.01855 -0.0166,1.41406 0.38623,0.39551 1.01855,0.40283 1.41406,0.0166 C 35.81836,19.60205 37.2998,19 38.87012,19 c 2.63574,0 5.00098,1.76563 5.75098,4.29443 0.12305,0.4126 0.49609,0.70068 0.92578,0.71484 2.53906,0.08398 4.67969,1.86816 5.20508,4.33887 0.05566,0.26123 0.21387,0.48926 0.43848,0.6333 0.22461,0.14404 0.49609,0.19434 0.75781,0.13477 C 52.30371,29.03711 52.59668,29 52.87012,29 c 2.20605,0 4,1.79443 4,4 0,0.73187 -0.20062,1.4223 -0.56439,2.03088 C 56.2038,35.02039 56.10468,35 56,35 H 40 c -0.55273,0 -1,0.44775 -1,1 0,0.55225 0.44727,1 1,1 h 16 c 0.55176,0 1,0.44873 1,1 v 23 c 0,1.6543 -1.3457,3 -3,3 H 41 c -0.55273,0 -1,0.44775 -1,1 0,0.55225 0.44727,1 1,1 h 13 c 2.75684,0 5,-2.24316 5,-5 V 38 c 0,-0.82428 -0.33466,-1.57141 -0.87451,-2.11414 z"
         id="path3"
         style="fill:#ffffff;fill-opacity:1" /><circle
         cx="45"
         cy="57"
         r="3"
         id="circle3"
         style="fill:#ffffff;fill-opacity:1" /><circle
         cx="48"
         cy="46"
         r="4"
         id="circle4"
         style="fill:#ffffff;fill-opacity:1" /><path
         d="m 43.87012,29 c 0,-1.10303 0.89746,-2 2,-2 0.55273,0 1,-0.44775 1,-1 0,-0.55225 -0.44727,-1 -1,-1 -2.20605,0 -4,1.79443 -4,4 0,0.55225 0.44727,1 1,1 0.55273,0 1,-0.44775 1,-1 z"
         id="path4"
         style="fill:#ffffff;fill-opacity:1" /><path
         d="m 36.87012,25 c 0,-1.10303 0.89746,-2 2,-2 0.55273,0 1,-0.44775 1,-1 0,-0.55225 -0.44727,-1 -1,-1 -2.20557,0 -4,1.79443 -4,4 0,0.55225 0.44775,1 1,1 0.55225,0 1,-0.44775 1,-1 z"
         id="path5"
         style="fill:#ffffff;fill-opacity:1" /><path
         d="m 40,33 c 0,0.55225 0.44727,1 1,1 h 12 c 0.55273,0 1,-0.44775 1,-1 0,-0.55225 -0.44727,-1 -1,-1 H 41 c -0.55273,0 -1,0.44775 -1,1 z"
         id="path6"
         style="fill:#ffffff;fill-opacity:1" /></g></g></svg>
