<?xml version="1.0" encoding="UTF-8" standalone="no"?>
<svg
   version="1.1"
   x="0px"
   y="0px"
   viewBox="0 0 52 72"
   xml:space="preserve"
   id="svg10"
   width="52"
   height="72"
   xmlns="http://www.w3.org/2000/svg"
   xmlns:svg="http://www.w3.org/2000/svg"><defs
     id="defs10" /><style
     type="text/css"
     id="style1">
	.st0{display:none;}
</style><g
     id="g9"
     style="fill:#ffffff;fill-opacity:1"
     transform="translate(-10)"><g
       id="g8"
       style="fill:#ffffff;fill-opacity:1"><path
         d="M 30,17.89355 V 9 C 30,7.3457 28.6543,6 27,6 h -2 c -1.6543,0 -3,1.3457 -3,3 v 8.89355 c 0,4.35254 -1.51807,8.60498 -4.27393,11.97314 C 14.67822,33.59131 13,38.29346 13,43.10645 V 64 c 0,2.75684 2.24316,5 5,5 h 16 c 2.75684,0 5,-2.24316 5,-5 V 43.10645 C 39,38.29346 37.32129,33.59131 34.27393,29.8667 31.51807,26.49854 30,22.24609 30,17.89355 Z M 37,53 h -2.94238 c -1.13281,0 -2.17139,0.6582 -2.71045,1.71729 C 30.31641,56.74219 28.26758,58 26,58 23.73242,58 21.68359,56.74219 20.65283,54.71729 20.11377,53.6582 19.0752,53 17.94238,53 H 15 v -2 h 2.94238 c 1.13281,0 2.17139,-0.6582 2.71045,-1.71729 C 21.68359,47.25781 23.73242,46 26,46 c 2.26758,0 4.31641,1.25781 5.34717,3.28271 C 31.88623,50.3418 32.9248,51 34.05762,51 H 37 Z M 34,67 H 18 c -1.6543,0 -3,-1.3457 -3,-3 v -9 h 2.94238 c 0.37646,0 0.73193,0.23926 0.92822,0.62451 C 20.24414,58.32324 22.97607,60 26,60 29.02393,60 31.75586,58.32324 33.12939,55.62451 33.32568,55.23926 33.68115,55 34.05762,55 H 37 v 9 c 0,1.6543 -1.3457,3 -3,3 z M 37,49 H 34.05762 C 33.68116,49 33.32569,48.76074 33.1294,48.37549 31.75586,45.67676 29.02393,44 26,44 22.97607,44 20.24414,45.67676 18.87061,48.37549 18.67432,48.76074 18.31885,49 17.94238,49 H 15 V 43.10645 C 15,38.75391 16.51807,34.50147 19.27393,31.13331 22.32178,27.40869 24,22.70654 24,17.89355 V 9 c 0,-0.55127 0.44873,-1 1,-1 h 2 c 0.55127,0 1,0.44873 1,1 v 8.89355 c 0,4.81299 1.67822,9.51514 4.72607,13.23975 C 35.48193,34.50146 37,38.75391 37,43.10645 Z"
         id="path1"
         style="fill:#ffffff;fill-opacity:1" /><path
         d="m 20,8 c 0.55225,0 1,-0.44775 1,-1 0,-1.10303 0.89697,-2 2,-2 h 6 c 1.10303,0 2,0.89697 2,2 0,0.55225 0.44775,1 1,1 0.55225,0 1,-0.44775 1,-1 0,-2.20557 -1.79443,-4 -4,-4 h -6 c -2.20557,0 -4,1.79443 -4,4 0,0.55225 0.44775,1 1,1 z"
         id="path2"
         style="fill:#ffffff;fill-opacity:1" /><path
         d="M 58.12549,35.88586 C 58.60987,35.01037 58.87012,34.02972 58.87012,33 c 0,-3.44629 -2.90332,-6.26367 -6.41699,-5.9834 C 51.51954,24.34375 49.14551,22.4209 46.31055,22.06543 45.11719,19.05127 42.15137,17 38.87012,17 c -2.09521,0 -4.07324,0.8042 -5.56885,2.26465 -0.39502,0.38574 -0.40283,1.01855 -0.0166,1.41406 0.38623,0.39551 1.01855,0.40283 1.41406,0.0166 C 35.81836,19.60205 37.2998,19 38.87012,19 c 2.63574,0 5.00098,1.76563 5.75098,4.29443 0.12305,0.4126 0.49609,0.70068 0.92578,0.71484 2.53906,0.08398 4.67969,1.86816 5.20508,4.33887 0.05566,0.26123 0.21387,0.48926 0.43848,0.6333 0.22461,0.14404 0.49609,0.19434 0.75781,0.13477 C 52.30371,29.03711 52.59668,29 52.87012,29 c 2.20605,0 4,1.79443 4,4 0,0.73187 -0.20062,1.4223 -0.56439,2.03088 C 56.2038,35.02039 56.10468,35 56,35 H 40 c -0.55273,0 -1,0.44775 -1,1 0,0.55225 0.44727,1 1,1 h 16 c 0.55176,0 1,0.44873 1,1 v 23 c 0,1.6543 -1.3457,3 -3,3 H 41 c -0.55273,0 -1,0.44775 -1,1 0,0.55225 0.44727,1 1,1 h 13 c 2.75684,0 5,-2.24316 5,-5 V 38 c 0,-0.82428 -0.33466,-1.57141 -0.87451,-2.11414 z"
         id="path3"
         style="fill:#ffffff;fill-opacity:1" /><path
         d="m 42,57 c 0,1.6543 1.3457,3 3,3 1.6543,0 3,-1.3457 3,-3 0,-1.6543 -1.3457,-3 -3,-3 -1.6543,0 -3,1.3457 -3,3 z m 3,-1 c 0.55176,0 1,0.44873 1,1 0,0.55127 -0.44824,1 -1,1 -0.55176,0 -1,-0.44873 -1,-1 0,-0.55127 0.44824,-1 1,-1 z"
         id="path4"
         style="fill:#ffffff;fill-opacity:1" /><path
         d="m 48,50 c 2.20605,0 4,-1.79443 4,-4 0,-2.20557 -1.79395,-4 -4,-4 -2.20605,0 -4,1.79443 -4,4 0,2.20557 1.79395,4 4,4 z m 0,-6 c 1.10254,0 2,0.89697 2,2 0,1.10303 -0.89746,2 -2,2 -1.10254,0 -2,-0.89697 -2,-2 0,-1.10303 0.89746,-2 2,-2 z"
         id="path5"
         style="fill:#ffffff;fill-opacity:1" /><path
         d="m 43.87012,29 c 0,-1.10303 0.89746,-2 2,-2 0.55273,0 1,-0.44775 1,-1 0,-0.55225 -0.44727,-1 -1,-1 -2.20605,0 -4,1.79443 -4,4 0,0.55225 0.44727,1 1,1 0.55273,0 1,-0.44775 1,-1 z"
         id="path6"
         style="fill:#ffffff;fill-opacity:1" /><path
         d="m 36.87012,25 c 0,-1.10303 0.89746,-2 2,-2 0.55273,0 1,-0.44775 1,-1 0,-0.55225 -0.44727,-1 -1,-1 -2.20557,0 -4,1.79443 -4,4 0,0.55225 0.44775,1 1,1 0.55225,0 1,-0.44775 1,-1 z"
         id="path7"
         style="fill:#ffffff;fill-opacity:1" /><path
         d="m 40,33 c 0,0.55225 0.44727,1 1,1 h 12 c 0.55273,0 1,-0.44775 1,-1 0,-0.55225 -0.44727,-1 -1,-1 H 41 c -0.55273,0 -1,0.44775 -1,1 z"
         id="path8"
         style="fill:#ffffff;fill-opacity:1" /></g></g></svg>
