<?xml version="1.0" encoding="UTF-8" standalone="no"?>
<svg
   viewBox="0 0 99 99"
   x="0px"
   y="0px"
   version="1.1"
   id="svg9"
   width="99"
   height="99"
   xmlns="http://www.w3.org/2000/svg"
   xmlns:svg="http://www.w3.org/2000/svg"
   xmlns:rdf="http://www.w3.org/1999/02/22-rdf-syntax-ns#"
   xmlns:cc="http://creativecommons.org/ns#"
   xmlns:dc="http://purl.org/dc/elements/1.1/">
  <defs
     id="defs9" />
  <title
     id="title1">birthday cake</title>
  <path
     id="circle8"
     style="fill:#ffffff;fill-opacity:1;stroke-width:1.59542"
     d="m 76.389499,82.761887 a 1.5954238,1.5954238 0 0 1 -1.595424,1.595423 1.5954238,1.5954238 0 0 1 -1.595424,-1.595423 1.5954238,1.5954238 0 0 1 1.595424,-1.595424 1.5954238,1.5954238 0 0 1 1.595424,1.595424 z m -25.526783,0 a 1.5954238,1.5954238 0 0 1 -1.595424,1.595423 1.5954238,1.5954238 0 0 1 -1.595424,-1.595423 1.5954238,1.5954238 0 0 1 1.595424,-1.595424 1.5954238,1.5954238 0 0 1 1.595424,1.595424 z m -25.526783,0 a 1.5954238,1.5954238 0 0 1 -1.595424,1.595423 1.5954238,1.5954238 0 0 1 -1.595424,-1.595423 1.5954238,1.5954238 0 0 1 1.595424,-1.595424 1.5954238,1.5954238 0 0 1 1.595424,1.595424 z M 38.099322,49.257988 a 1.5954238,1.5954238 0 0 1 -1.595423,1.595424 1.5954238,1.5954238 0 0 1 -1.595424,-1.595424 1.5954238,1.5954238 0 0 1 1.595424,-1.595424 1.5954238,1.5954238 0 0 1 1.595423,1.595424 z m 25.526783,0 a 1.5954238,1.5954238 0 0 1 -1.595423,1.595424 1.5954238,1.5954238 0 0 1 -1.595424,-1.595424 1.5954238,1.5954238 0 0 1 1.595424,-1.595424 1.5954238,1.5954238 0 0 1 1.595423,1.595424 z M 49.26729,3.0156251 a 1.6458392,1.6458392 0 0 0 -1.18722,0.504802 C 47.21216,4.487254 42.885595,9.4658837 42.885595,12.563239 a 6.3753135,6.3753135 0 0 0 4.786272,6.154223 v 9.800016 H 31.717629 V 21.90831 A 6.3753135,6.3753135 0 0 0 36.5039,15.754087 c 0,-3.097356 -4.326564,-8.0759853 -5.194475,-9.0428123 a 1.6458392,1.6458392 0 0 0 -2.374441,0 c -0.86791,0.9668269 -5.194475,5.9454563 -5.194475,9.0428123 a 6.3753135,6.3753135 0 0 0 4.786272,6.154223 v 6.609168 H 23.740509 A 11.18089,11.18089 0 0 0 12.572543,39.685444 V 60.553712 A 11.175944,11.175944 0 0 0 3,71.59392 v 22.335934 a 1.5954238,1.5954238 0 0 0 1.5954238,1.595423 H 93.939157 a 1.5954238,1.5954238 0 0 0 1.595424,-1.595423 V 71.59392 A 11.175944,11.175944 0 0 0 85.962038,60.553712 V 39.685444 A 11.18089,11.18089 0 0 0 74.794071,28.517478 H 70.0078 V 21.90831 a 6.3753135,6.3753135 0 0 0 4.786271,-6.154223 c 0,-3.097356 -4.326564,-8.0759853 -5.194475,-9.0428123 a 1.6458392,1.6458392 0 0 0 -2.37444,0 c -0.867911,0.9668269 -5.194475,5.9454563 -5.194475,9.0428123 a 6.3753135,6.3753135 0 0 0 4.786271,6.154223 v 6.609168 H 50.862714 v -9.800016 a 6.3753135,6.3753135 0 0 0 4.786272,-6.154223 c 0,-3.0973553 -4.326565,-8.075985 -5.194475,-9.0428119 A 1.6458392,1.6458392 0 0 0 49.26729,3.0156251 Z M 23.724929,39.685444 a 10.796233,10.796233 0 0 1 5.668118,1.427156 13.937463,13.937463 0 0 0 7.095272,1.763692 13.955651,13.955651 0 0 0 7.092158,-1.763692 10.832928,10.832928 0 0 1 5.686813,-1.427156 10.795116,10.795116 0 0 1 5.668117,1.427156 15.153654,15.153654 0 0 0 14.190548,0 11.937599,11.937599 0 0 1 11.31442,-0.0032 19.328559,19.328559 0 0 0 2.330815,1.02526 V 60.425954 H 15.76339 V 42.115973 a 19.441675,19.441675 0 0 0 2.305886,-1.009604 10.782991,10.782991 0 0 1 5.655653,-1.420925 z m -9.556962,23.931357 h 70.198647 a 7.9633984,7.9633984 0 0 1 7.503478,5.375208 14.451668,14.451668 0 0 0 -4.31263,-0.588936 13.938739,13.938739 0 0 0 -7.095274,1.763691 11.969508,11.969508 0 0 1 -11.336233,0 15.179341,15.179341 0 0 0 -14.206128,0 10.80772,10.80772 0 0 1 -5.668118,1.427156 10.795914,10.795914 0 0 1 -5.668116,-1.427156 13.937782,13.937782 0 0 0 -7.095274,-1.763691 13.937463,13.937463 0 0 0 -7.095272,1.763691 10.796233,10.796233 0 0 1 -5.668118,1.427156 10.795914,10.795914 0 0 1 -5.668117,-1.427156 13.937782,13.937782 0 0 0 -7.095273,-1.763691 14.390723,14.390723 0 0 0 -4.2970499,0.588936 7.9637175,7.9637175 0 0 1 7.5034779,-5.375208 z m -3.206428,7.977119 a 10.796233,10.796233 0 0 1 5.668117,1.427156 13.937463,13.937463 0 0 0 7.095273,1.763692 13.937782,13.937782 0 0 0 7.095274,-1.763692 10.795914,10.795914 0 0 1 5.668116,-1.427156 10.796233,10.796233 0 0 1 5.668118,1.427156 13.937463,13.937463 0 0 0 7.095272,1.763692 13.955651,13.955651 0 0 0 7.092159,-1.763692 11.997587,11.997587 0 0 1 11.354929,0 15.153654,15.153654 0 0 0 14.190548,0 10.795116,10.795116 0 0 1 5.668117,-1.427156 10.304204,10.304204 0 0 1 4.786271,1.000256 V 92.33443 H 6.1908476 V 72.594176 A 10.267669,10.267669 0 0 1 10.961539,71.59392 Z m 1.611004,6.381696 a 1.5954238,1.5954238 0 0 1 -1.595424,1.595424 1.5954238,1.5954238 0 0 1 -1.5954234,-1.595424 1.5954238,1.5954238 0 0 1 1.5954234,-1.595423 1.5954238,1.5954238 0 0 1 1.595424,1.595423 z m 9.572542,-31.908477 a 1.5954238,1.5954238 0 0 1 -1.595423,1.595423 1.5954238,1.5954238 0 0 1 -1.595424,-1.595423 1.5954238,1.5954238 0 0 1 1.595424,-1.595424 1.5954238,1.5954238 0 0 1 1.595423,1.595424 z m 4.786272,7.977119 h -4.786271 v -1.595423 a 1.595424,1.595424 0 0 0 -3.190848,0 v 3.190847 a 1.5954238,1.5954238 0 0 0 1.595424,1.595424 h 6.381695 a 1.595424,1.595424 0 0 0 0,-3.190848 z" />
  <metadata
     id="metadata13">
    <rdf:RDF>
      <cc:Work
         rdf:about="">
        <dc:title>birthday cake</dc:title>
      </cc:Work>
    </rdf:RDF>
  </metadata>
</svg>
