<?xml version="1.0" encoding="UTF-8" standalone="no"?>
<svg
   version="1.1"
   x="0px"
   y="0px"
   viewBox="0 0 500 500"
   enable-background="new 0 0 500 500"
   xml:space="preserve"
   id="svg6"
   width="500"
   height="500"
   xmlns="http://www.w3.org/2000/svg"
   xmlns:svg="http://www.w3.org/2000/svg"><defs
     id="defs6" /><path
     id="path7"
     style="fill:#ffe791;stroke:#ffe791;stroke-width:16;stroke-dasharray:none;stroke-opacity:1"
     d="M 234.5371,8.9295453 C 229.83674,9.177982 225.13646,11.786134 221.16164,16.009553 197.6914,40.521944 174.34663,64.867466 150.87638,89.379858 113.77826,128.13593 76.554149,166.89205 39.45602,205.64813 l -25.7403,26.8326 c -7.4448619,7.78434 -7.3186779,27.49257 0,35.11129 23.470244,24.51239 46.813126,48.85981 70.283368,73.37221 37.098132,38.75606 74.322222,77.5122 111.420352,116.26827 l 25.7422,26.83069 c 7.94961,8.28122 18.92751,10.26871 26.75091,0 6.56158,-8.61244 7.94961,-26.66444 0,-35.11127 C 224.44231,424.43951 201.09754,400.0921 177.62729,375.57971 145.49672,342.01318 113.27134,308.4456 81.115414,274.87909 h 63.501606 264.5951 60.81168 c 11.40241,0 22.51245,-11.4281 21.92771,-24.84367 -0.58475,-13.41556 -9.64819,-24.84366 -21.92771,-24.84366 H 304.1043 81.083121 c 9.879309,-10.31101 19.763489,-20.62494 29.668779,-30.97004 37.09813,-38.75609 74.32033,-77.5122 111.41846,-116.268276 l 25.74219,-26.832602 c 7.94961,-8.281212 6.68776,-26.333203 0,-35.111289 -3.9748,-5.217164 -8.67509,-7.3284444 -13.37545,-7.0800077 z" /></svg>
