<?xml version="1.0" encoding="UTF-8" standalone="no"?>
<svg
   version="1.1"
   x="0px"
   y="0px"
   viewBox="0 0 500 500"
   enable-background="new 0 0 500 500"
   xml:space="preserve"
   id="svg6"
   width="500"
   height="500"
   xmlns="http://www.w3.org/2000/svg"
   xmlns:svg="http://www.w3.org/2000/svg"><defs
     id="defs6" /><g
     id="g5"
     transform="matrix(1.3512888,0,0,1.3512888,-87.844594,-87.809055)"
     style="fill:#d4c798;fill-opacity:1"><g
       id="g2"
       style="fill:#d4c798;fill-opacity:1"><g
         id="g1"
         style="fill:#d4c798;fill-opacity:1"><path
           d="m 83,265 c 37.8,0 75.7,0 113.5,0 60.3,0 120.7,0 181,0 13.9,0 27.7,0 41.6,0 7.8,0 15.4,-6.9 15,-15 -0.4,-8.1 -6.6,-15 -15,-15 -37.8,0 -75.7,0 -113.5,0 -60.3,0 -120.7,0 -181,0 -13.9,0 -27.7,0 -41.6,0 -7.8,0 -15.4,6.9 -15,15 0.4,8.2 6.6,15 15,15 z"
           id="path1"
           style="fill:#d4c798;fill-opacity:1" /></g></g><g
       id="g4"
       style="fill:#d4c798;fill-opacity:1"><g
         id="g3"
         style="fill:#d4c798;fill-opacity:1"><path
           d="M 256,370.1 C 237.4,355.3 218.9,340.6 200.3,325.8 170.9,302.4 141.4,279 112,255.6 c -6.8,-5.4 -13.6,-10.8 -20.4,-16.2 0,7.1 0,14.1 0,21.2 18.6,-14.8 37.1,-29.5 55.7,-44.3 29.4,-23.4 58.9,-46.8 88.3,-70.2 6.8,-5.4 13.6,-10.8 20.4,-16.2 6.3,-5 5.3,-15.9 0,-21.2 -6.3,-6.3 -14.9,-5.1 -21.2,0 -18.6,14.8 -37.1,29.5 -55.7,44.3 -29.4,23.4 -58.9,46.8 -88.3,70.2 -6.8,5.4 -13.6,10.8 -20.4,16.2 -5.9,4.7 -5.8,16.6 0,21.2 18.6,14.8 37.1,29.5 55.7,44.3 29.4,23.4 58.9,46.8 88.3,70.2 6.8,5.4 13.6,10.8 20.4,16.2 6.3,5 15,6.2 21.2,0 5.2,-5.2 6.3,-16.1 0,-21.2 z"
           id="path2"
           style="fill:#d4c798;fill-opacity:1" /></g></g></g></svg>
