<?xml version="1.0" encoding="UTF-8" standalone="no"?>
<svg
   version="1.1"
   viewBox="-5 -10 500 500"
   id="svg2"
   width="500"
   height="500"
   xmlns="http://www.w3.org/2000/svg"
   xmlns:svg="http://www.w3.org/2000/svg">
  <defs
     id="defs2" />
  <path
     d="m 34.802744,77.318287 c -21.039084,0 -38.0781346,8.974979 -38.0781346,20.05686 V 364.8143 c 0,11.08191 17.0390506,20.05686 38.0781346,20.05686 21.039082,0 38.078134,-8.97495 38.078134,-20.05686 V 97.375147 c 0,-11.081881 -17.039052,-20.05686 -38.078134,-20.05686 z"
     style="fill:#ffe791;fill-opacity:1;stroke-width:8.84361"
     id="path4" />
  <path
     d="m 453.63226,77.318287 c -21.95881,0 -39.74276,8.974979 -39.74276,20.05686 V 364.8143 c 2e-5,11.08191 17.78395,20.05686 39.74276,20.05686 21.95884,0 39.74274,-8.97495 39.74274,-20.05686 V 97.375147 c 0,-11.081881 -17.7839,-20.05686 -39.74274,-20.05686 z"
     style="fill:#ffe791;fill-opacity:1;stroke-width:9.03484"
     id="path3" />
  <path
     d="m 168.64258,-7.582537 c -38.63368,0 -70.033205,39.394207 -70.033205,87.867453 V 399.85573 c 0,48.47325 31.399525,87.86991 70.033205,87.86989 h 152.81445 c 38.63367,0 70.0332,-39.39664 70.0332,-87.86989 V 80.316773 c 0,-48.473232 -31.39953,-87.8699036 -70.0332,-87.8699036 v -0.029401 z m 0,47.964906 h 152.81445 c 17.54998,0 31.82813,17.914653 31.82813,39.934404 V 399.85573 c 0,22.01976 -14.27815,39.93685 -31.82813,39.93685 H 168.64258 c -17.54998,0 -31.83008,-17.91709 -31.83008,-39.93685 V 80.316773 c 0,-22.019751 14.2801,-39.934404 31.83008,-39.934404 z"
     style="fill:#ffe791;fill-opacity:1;stroke:none;stroke-width:0;stroke-dasharray:none;stroke-opacity:1"
     id="path2" />
</svg>
