<?xml version="1.0" encoding="UTF-8" standalone="no"?>
<!-- Created with Inkscape (http://www.inkscape.org/) -->

<svg
   width="44.297714mm"
   height="39.867947mm"
   viewBox="0 0 44.297714 39.867946"
   version="1.1"
   id="svg1"
   xml:space="preserve"
   inkscape:version="1.4.2 (f4327f4, 2025-05-13)"
   sodipodi:docname="golden.svg"
   xmlns:inkscape="http://www.inkscape.org/namespaces/inkscape"
   xmlns:sodipodi="http://sodipodi.sourceforge.net/DTD/sodipodi-0.dtd"
   xmlns:xlink="http://www.w3.org/1999/xlink"
   xmlns="http://www.w3.org/2000/svg"
   xmlns:svg="http://www.w3.org/2000/svg"><sodipodi:namedview
     id="namedview1"
     pagecolor="#ffffff"
     bordercolor="#000000"
     borderopacity="0.25"
     inkscape:showpageshadow="2"
     inkscape:pageopacity="0.0"
     inkscape:pagecheckerboard="0"
     inkscape:deskcolor="#d1d1d1"
     inkscape:document-units="mm"
     inkscape:zoom="4"
     inkscape:cx="79.375"
     inkscape:cy="86.625"
     inkscape:window-width="1920"
     inkscape:window-height="991"
     inkscape:window-x="-9"
     inkscape:window-y="-9"
     inkscape:window-maximized="1"
     inkscape:current-layer="g1"
     showgrid="false" /><defs
     id="defs1"><linearGradient
       id="linearGradient11"
       inkscape:collect="always"
       inkscape:label="sadda"><stop
         style="stop-color:#b39b51;stop-opacity:1;"
         offset="0"
         id="stop11" /><stop
         style="stop-color:#e4deb7;stop-opacity:1;"
         offset="1"
         id="stop12" /></linearGradient><linearGradient
       inkscape:collect="always"
       xlink:href="#linearGradient11"
       id="linearGradient12"
       x1="11.87501"
       y1="2.4999988"
       x2="11.87501"
       y2="29"
       gradientUnits="userSpaceOnUse"
       gradientTransform="matrix(6.9933115,0,0,6.9933115,1.8171596e-5,0)" /></defs><g
     inkscape:label="Слой 1"
     inkscape:groupmode="layer"
     id="layer1"
     transform="translate(-104.83127,-150.44549)"><g
       style="display:inline;fill:currentColor"
       id="g1"
       transform="matrix(0.3167148,0,0,0.3167148,100.40149,143.80084)"><path
         stroke="none"
         d="M 0,0 H 167.83948 V 167.83948 H 0 Z"
         fill="none"
         id="path1"
         style="display:inline;stroke-width:6.99331" /><path
         d="m 132.87294,20.979935 a 20.979935,20.979935 0 0 1 20.94496,19.749111 l 0.035,1.230823 v 83.919741 a 20.979935,20.979935 0 0 1 -19.74911,20.94497 l -1.23082,0.035 H 34.966576 A 20.979935,20.979935 0 0 1 14.021608,127.11043 l -0.03497,-1.23082 V 41.959869 A 20.979935,20.979935 0 0 1 33.735753,21.014901 l 1.230823,-0.03497 z M 118.88631,104.89967 H 48.953199 l -0.818218,0.049 a 6.9933115,6.9933115 0 0 0 0,13.88871 l 0.818218,0.049 h 69.933111 l 0.81822,-0.049 a 6.9933115,6.9933115 0 0 0 0,-13.88871 z m 0,-27.973243 H 48.953199 l -0.818218,0.04895 a 6.9933115,6.9933115 0 0 0 0,13.888716 l 0.818218,0.04895 h 69.933111 l 0.81822,-0.04895 a 6.9933115,6.9933115 0 0 0 0,-13.888716 z m 0,-27.973246 H 48.953199 l -0.818218,0.04895 a 6.9933115,6.9933115 0 0 0 0,13.888716 l 0.818218,0.04895 h 69.933111 l 0.81822,-0.04895 a 6.9933115,6.9933115 0 0 0 0,-13.888716 z"
         id="path2"
         style="display:inline;fill:url(#linearGradient12);fill-opacity:1;stroke-width:6.99331"
         inkscape:label="path2" /></g></g></svg>
