<?xml version="1.0" encoding="UTF-8" standalone="no"?>
<!-- Created with Inkscape (http://www.inkscape.org/) -->

<svg
   version="1.1"
   id="svg1"
   width="250.21469"
   height="51.058437"
   viewBox="0 0 250.21469 51.058438"
   sodipodi:docname="templebarlogo2.svg"
   inkscape:version="1.4.2 (f4327f4, 2025-05-13)"
   xmlns:inkscape="http://www.inkscape.org/namespaces/inkscape"
   xmlns:sodipodi="http://sodipodi.sourceforge.net/DTD/sodipodi-0.dtd"
   xmlns:xlink="http://www.w3.org/1999/xlink"
   xmlns="http://www.w3.org/2000/svg"
   xmlns:svg="http://www.w3.org/2000/svg">
  <defs
     id="defs1">
    <linearGradient
       id="linearGradient1"
       inkscape:collect="always">
      <stop
         style="stop-color:#b39b51;stop-opacity:1;"
         offset="0"
         id="stop1" />
      <stop
         style="stop-color:#e4deb7;stop-opacity:1;"
         offset="1"
         id="stop2" />
    </linearGradient>
    <linearGradient
       id="linearGradient97"
       inkscape:collect="always">
      <stop
         style="stop-color:#feeb7a;stop-opacity:1;"
         offset="0"
         id="stop97" />
      <stop
         style="stop-color:#fbf0b8;stop-opacity:1;"
         offset="1"
         id="stop98" />
    </linearGradient>
    <inkscape:path-effect
       effect="mirror_symmetry"
       start_point="129.91708,71.931793"
       end_point="136.60746,71.927887"
       center_point="133.26227,71.92984"
       id="path-effect17"
       is_visible="true"
       lpeversion="1.2"
       lpesatellites=""
       mode="free"
       discard_orig_path="false"
       fuse_paths="true"
       oposite_fuse="true"
       split_items="false"
       split_open="false"
       link_styles="false" />
    <inkscape:path-effect
       effect="mirror_symmetry"
       start_point="125.02907,1.787306"
       end_point="125.02907,43.80814"
       center_point="125.02907,22.797723"
       id="path-effect16"
       is_visible="true"
       lpeversion="1.2"
       lpesatellites=""
       mode="free"
       discard_orig_path="false"
       fuse_paths="false"
       oposite_fuse="false"
       split_items="false"
       split_open="false"
       link_styles="false" />
    <inkscape:path-effect
       effect="mirror_symmetry"
       start_point="125.02907,18.599806"
       end_point="125.02907,43.80814"
       center_point="125.02907,31.203973"
       id="path-effect14"
       is_visible="true"
       lpeversion="1.2"
       lpesatellites=""
       mode="free"
       discard_orig_path="false"
       fuse_paths="false"
       oposite_fuse="false"
       split_items="false"
       split_open="false"
       link_styles="false" />
    <inkscape:path-effect
       effect="mirror_symmetry"
       start_point="125.02907,18.599806"
       end_point="125.02907,43.80814"
       center_point="125.02907,31.203973"
       id="path-effect12"
       is_visible="true"
       lpeversion="1.2"
       lpesatellites=""
       mode="free"
       discard_orig_path="false"
       fuse_paths="false"
       oposite_fuse="false"
       split_items="false"
       split_open="false"
       link_styles="false" />
    <inkscape:path-effect
       effect="mirror_symmetry"
       start_point="125.02907,18.599806"
       end_point="125.02907,43.80814"
       center_point="125.02907,31.203973"
       id="path-effect10"
       is_visible="true"
       lpeversion="1.2"
       lpesatellites=""
       mode="free"
       discard_orig_path="false"
       fuse_paths="false"
       oposite_fuse="false"
       split_items="false"
       split_open="false"
       link_styles="false" />
    <inkscape:path-effect
       effect="mirror_symmetry"
       start_point="125.02907,18.599806"
       end_point="125.02907,43.80814"
       center_point="125.02907,31.203973"
       id="path-effect8"
       is_visible="true"
       lpeversion="1.2"
       lpesatellites=""
       mode="free"
       discard_orig_path="false"
       fuse_paths="false"
       oposite_fuse="false"
       split_items="false"
       split_open="false"
       link_styles="false" />
    <inkscape:path-effect
       effect="mirror_symmetry"
       start_point="125.02532,1.6210451"
       end_point="125.02532,136.90168"
       center_point="125.02532,69.261365"
       id="path-effect6"
       is_visible="true"
       lpeversion="1.2"
       lpesatellites=""
       mode="vertical"
       discard_orig_path="false"
       fuse_paths="false"
       oposite_fuse="false"
       split_items="false"
       split_open="false"
       link_styles="false" />
    <inkscape:path-effect
       effect="mirror_symmetry"
       start_point="125.02907,18.599806"
       end_point="125.02907,43.80814"
       center_point="125.02907,31.203973"
       id="path-effect5"
       is_visible="true"
       lpeversion="1.2"
       lpesatellites=""
       mode="free"
       discard_orig_path="false"
       fuse_paths="false"
       oposite_fuse="false"
       split_items="false"
       split_open="false"
       link_styles="false" />
    <inkscape:path-effect
       effect="mirror_symmetry"
       start_point="125.02907,18.599806"
       end_point="125.02907,43.80814"
       center_point="125.02907,31.203973"
       id="path-effect3"
       is_visible="true"
       lpeversion="1.2"
       lpesatellites=""
       mode="free"
       discard_orig_path="false"
       fuse_paths="false"
       oposite_fuse="false"
       split_items="false"
       split_open="false"
       link_styles="false" />
    <inkscape:path-effect
       effect="mirror_symmetry"
       start_point="125.02532,15.954097"
       end_point="125.02532,134.63397"
       center_point="125.02532,75.294033"
       id="path-effect28"
       is_visible="true"
       lpeversion="1.2"
       lpesatellites=""
       mode="free"
       discard_orig_path="false"
       fuse_paths="false"
       oposite_fuse="true"
       split_items="false"
       split_open="false"
       link_styles="false" />
    <inkscape:path-effect
       effect="mirror_symmetry"
       start_point="125.02534,87.343779"
       end_point="125.02534,138.40222"
       center_point="125.02534,112.873"
       id="path-effect2"
       is_visible="true"
       lpeversion="1.2"
       lpesatellites=""
       mode="vertical"
       discard_orig_path="false"
       fuse_paths="true"
       oposite_fuse="false"
       split_items="false"
       split_open="false"
       link_styles="false" />
    <inkscape:path-effect
       effect="mirror_symmetry"
       start_point="125.02017,91.58592"
       end_point="125.07017,133.8379"
       center_point="125.04517,112.71191"
       id="path-effect1"
       is_visible="true"
       lpeversion="1.2"
       lpesatellites=""
       mode="free"
       discard_orig_path="false"
       fuse_paths="false"
       oposite_fuse="false"
       split_items="false"
       split_open="false"
       link_styles="false" />
    <filter
       style="color-interpolation-filters:sRGB"
       inkscape:label="Drop Shadow"
       id="filter277"
       x="-0.010255762"
       y="-0.088746119"
       width="1.0256394"
       height="1.2218653">
      <feFlood
         result="flood"
         in="SourceGraphic"
         flood-opacity="0.603922"
         flood-color="rgb(0,0,0)"
         id="feFlood276" />
      <feGaussianBlur
         result="blur"
         in="SourceGraphic"
         stdDeviation="1.000000"
         id="feGaussianBlur276" />
      <feOffset
         result="offset"
         in="blur"
         dx="1.200000"
         dy="1.200000"
         id="feOffset276" />
      <feComposite
         result="comp1"
         operator="in"
         in="flood"
         in2="offset"
         id="feComposite276" />
      <feComposite
         result="comp2"
         operator="over"
         in="SourceGraphic"
         in2="comp1"
         id="feComposite277" />
    </filter>
    <filter
       style="color-interpolation-filters:sRGB"
       inkscape:label="Drop Shadow"
       id="filter279"
       x="-0.19368897"
       y="-0.096492492"
       width="1.4842224"
       height="1.2412312">
      <feFlood
         result="flood"
         in="SourceGraphic"
         flood-opacity="0.603922"
         flood-color="rgb(0,0,0)"
         id="feFlood277" />
      <feGaussianBlur
         result="blur"
         in="SourceGraphic"
         stdDeviation="1.000000"
         id="feGaussianBlur277" />
      <feOffset
         result="offset"
         in="blur"
         dx="1.200000"
         dy="1.200000"
         id="feOffset277" />
      <feComposite
         result="comp1"
         operator="in"
         in="flood"
         in2="offset"
         id="feComposite278" />
      <feComposite
         result="comp2"
         operator="over"
         in="SourceGraphic"
         in2="comp1"
         id="feComposite279" />
    </filter>
    <filter
       style="color-interpolation-filters:sRGB"
       inkscape:label="Drop Shadow"
       id="filter281"
       x="-0.035787314"
       y="-0.095440917"
       width="1.0894682"
       height="1.2386023">
      <feFlood
         result="flood"
         in="SourceGraphic"
         flood-opacity="0.603922"
         flood-color="rgb(0,0,0)"
         id="feFlood279" />
      <feGaussianBlur
         result="blur"
         in="SourceGraphic"
         stdDeviation="1.000000"
         id="feGaussianBlur279" />
      <feOffset
         result="offset"
         in="blur"
         dx="1.200000"
         dy="1.200000"
         id="feOffset279" />
      <feComposite
         result="comp1"
         operator="in"
         in="flood"
         in2="offset"
         id="feComposite280" />
      <feComposite
         result="comp2"
         operator="over"
         in="SourceGraphic"
         in2="comp1"
         id="feComposite281" />
    </filter>
    <filter
       style="color-interpolation-filters:sRGB"
       inkscape:label="Drop Shadow"
       id="filter283"
       x="-0.057035256"
       y="-0.096492492"
       width="1.1425881"
       height="1.2412312">
      <feFlood
         result="flood"
         in="SourceGraphic"
         flood-opacity="0.603922"
         flood-color="rgb(0,0,0)"
         id="feFlood281" />
      <feGaussianBlur
         result="blur"
         in="SourceGraphic"
         stdDeviation="1.000000"
         id="feGaussianBlur281" />
      <feOffset
         result="offset"
         in="blur"
         dx="1.200000"
         dy="1.200000"
         id="feOffset281" />
      <feComposite
         result="comp1"
         operator="in"
         in="flood"
         in2="offset"
         id="feComposite282" />
      <feComposite
         result="comp2"
         operator="over"
         in="SourceGraphic"
         in2="comp1"
         id="feComposite283" />
    </filter>
    <filter
       style="color-interpolation-filters:sRGB"
       inkscape:label="Drop Shadow"
       id="filter285"
       x="-0.035810903"
       y="-0.095440917"
       width="1.0895272"
       height="1.2386023">
      <feFlood
         result="flood"
         in="SourceGraphic"
         flood-opacity="0.603922"
         flood-color="rgb(0,0,0)"
         id="feFlood283" />
      <feGaussianBlur
         result="blur"
         in="SourceGraphic"
         stdDeviation="1.000000"
         id="feGaussianBlur283" />
      <feOffset
         result="offset"
         in="blur"
         dx="1.200000"
         dy="1.200000"
         id="feOffset283" />
      <feComposite
         result="comp1"
         operator="in"
         in="flood"
         in2="offset"
         id="feComposite284" />
      <feComposite
         result="comp2"
         operator="over"
         in="SourceGraphic"
         in2="comp1"
         id="feComposite285" />
    </filter>
    <filter
       style="color-interpolation-filters:sRGB"
       inkscape:label="Drop Shadow"
       id="filter287"
       x="-0.074776463"
       y="-0.057922184"
       width="1.1869411"
       height="1.1448056">
      <feFlood
         result="flood"
         in="SourceGraphic"
         flood-opacity="0.603922"
         flood-color="rgb(0,0,0)"
         id="feFlood285" />
      <feGaussianBlur
         result="blur"
         in="SourceGraphic"
         stdDeviation="1.000000"
         id="feGaussianBlur285" />
      <feOffset
         result="offset"
         in="blur"
         dx="1.200000"
         dy="1.200000"
         id="feOffset285" />
      <feComposite
         result="comp1"
         operator="in"
         in="flood"
         in2="offset"
         id="feComposite286" />
      <feComposite
         result="comp2"
         operator="over"
         in="SourceGraphic"
         in2="comp1"
         id="feComposite287" />
    </filter>
    <filter
       style="color-interpolation-filters:sRGB"
       inkscape:label="Drop Shadow"
       id="filter300"
       x="-0.073289439"
       y="-0.024421716"
       width="1.1581024"
       height="1.0523505">
      <feFlood
         result="flood"
         in="SourceGraphic"
         flood-opacity="0.603922"
         flood-color="rgb(0,0,0)"
         id="feFlood299" />
      <feGaussianBlur
         result="blur"
         in="SourceGraphic"
         stdDeviation="0.100000"
         id="feGaussianBlur299" />
      <feOffset
         result="offset"
         in="blur"
         dx="0.100000"
         dy="0.100000"
         id="feOffset299" />
      <feComposite
         result="comp1"
         operator="in"
         in="flood"
         in2="offset"
         id="feComposite299" />
      <feComposite
         result="comp2"
         operator="over"
         in="SourceGraphic"
         in2="comp1"
         id="feComposite300" />
    </filter>
    <linearGradient
       inkscape:collect="always"
       xlink:href="#linearGradient97"
       id="linearGradient98"
       x1="126.33583"
       y1="99.487816"
       x2="126.33583"
       y2="140.79143"
       gradientUnits="userSpaceOnUse" />
    <linearGradient
       inkscape:collect="always"
       xlink:href="#linearGradient1"
       id="linearGradient2"
       x1="144.39604"
       y1="-28.762335"
       x2="144.39604"
       y2="78.617722"
       gradientUnits="userSpaceOnUse"
       gradientTransform="translate(1.4999218,1.4999219)" />
  </defs>
  <sodipodi:namedview
     id="namedview1"
     pagecolor="#ffffff"
     bordercolor="#000000"
     borderopacity="0.25"
     inkscape:showpageshadow="2"
     inkscape:pageopacity="0.0"
     inkscape:pagecheckerboard="0"
     inkscape:deskcolor="#d1d1d1"
     showgrid="false"
     showguides="true"
     inkscape:zoom="2"
     inkscape:cx="104"
     inkscape:cy="11.75"
     inkscape:window-width="1920"
     inkscape:window-height="991"
     inkscape:window-x="-9"
     inkscape:window-y="-9"
     inkscape:window-maximized="1"
     inkscape:current-layer="g1">
    <inkscape:grid
       id="grid1"
       units="px"
       originx="0.082005638"
       originy="-87.343782"
       spacingx="1"
       spacingy="1"
       empcolor="#0099e5"
       empopacity="0.30196078"
       color="#0099e5"
       opacity="0.14901961"
       empspacing="5"
       enabled="true"
       visible="false" />
    <sodipodi:guide
       position="77.939122,161.52304"
       orientation="0,-1"
       id="guide12"
       inkscape:locked="false" />
    <sodipodi:guide
       position="123.24992,131.50337"
       orientation="0,-1"
       id="guide1"
       inkscape:locked="false" />
  </sodipodi:namedview>
  <g
     inkscape:groupmode="layer"
     inkscape:label="Image"
     id="g1"
     inkscape:path-effect="#path-effect2"
     style="display:none"
     transform="translate(0.08200562,-87.343779)" />
  <path
     d="m 124.9257,3.7674999 c -66.004596,0 -112.230468,0.04297 -112.230465,0.04297 L 3.7674999,12.740158 v 25.564448 l 8.9843751,8.98633 H 125.10734 L 124.92375,3.7714079 h 0.002 z m 0,0.0039 0.18164,43.5195261 h 112.35547 l 8.98438,-8.98633 V 12.740157 L 237.5175,3.8104689 c 0,0 -55.42176,-0.03456 -112.5918,-0.03906 z"
     style="baseline-shift:baseline;display:inline;overflow:visible;fill:#9e1512;stroke:url(#linearGradient2);stroke-width:7.535;stroke-linecap:square;stroke-dasharray:none;paint-order:stroke fill markers;enable-background:accumulate;stop-color:#000000;stop-opacity:1"
     id="path16" />
  <path
     style="font-size:34.985px;font-family:'Trajan Pro 3';-inkscape-font-specification:'Trajan Pro 3, Normal';display:inline;fill:url(#linearGradient98);stroke-width:6.19816;stroke-linecap:square;paint-order:stroke fill markers;filter:url(#filter277)"
     d="m 25.593961,101.01599 v 14.79865 q 0,6.12238 0.174925,7.59175 0.104955,0.87462 0.34985,1.36441 0.27988,0.45481 1.014565,0.55976 0.97958,0.13994 1.574325,0.13994 0.27988,0 0.27988,0.20991 0,0.27988 -0.55976,0.27988 -0.83964,0 -1.88919,-0.035 -1.014565,0 -1.714265,-0.035 -0.664715,-0.035 -0.6997,-0.035 -0.03498,0 -0.6997,0 -0.62973,0.035 -1.46937,0.07 -0.804655,0.035 -1.25946,0.035 -0.55976,0 -0.55976,-0.27988 0,-0.20991 0.27988,-0.20991 0.41982,0 1.04955,-0.13994 0.76967,-0.13994 1.014565,-1.92417 0.174925,-1.46937 0.174925,-7.59175 v -14.79865 q -0.83964,0 -2.58889,0.035 -1.74925,0.035 -2.58889,0.035 -1.644295,0.035 -2.413966,0.27988 -0.734685,0.20991 -1.154505,0.83964 -0.384835,0.59474 -0.594745,1.08453 -0.13994,0.34985 -0.34985,0.34985 -0.174925,0 -0.174925,-0.31486 0,-0.55976 0.76967,-3.638441 0.20991,-0.664715 0.34985,-0.664715 0.06997,0 0.524775,0.20991 0.454805,0.174925 1.014566,0.20991 1.67928,0.174925 2.763815,0.174925 h 13.119375 q 1.53934,0 2.483935,-0.174925 0.20991,-0.03499 0.41982,-0.06997 0.244895,-0.03499 0.34985,-0.06997 0.13994,-0.03498 0.20991,-0.03498 0.174925,0 0.174925,0.41982 0,0.594746 -0.06997,2.169076 -0.03498,1.57432 -0.03498,1.67928 0,0.4548 -0.244895,0.4548 -0.244895,0 -0.27988,-0.59474 0,-0.07 -0.03498,-0.17493 0,-0.13994 0,-0.20991 -0.174925,-1.8542 -4.303155,-1.92417 -0.734685,0 -2.204055,-0.035 -1.46937,-0.035 -2.204055,-0.035 z m 16.722829,14.79865 v -6.15736 q 0,-6.43724 -0.06997,-7.55676 -0.06997,-0.94459 -0.384835,-1.36441 -0.27988,-0.45481 -1.11952,-0.62973 -0.104955,-0.035 -0.27988,-0.035 -0.174925,-0.035 -0.41982,-0.035 -0.20991,-0.035 -0.314865,-0.035 -0.454805,-0.06997 -0.454805,-0.209906 0,-0.27988 0.55976,-0.27988 1.74925,0 3.953306,0.104955 7.20691,0 8.011565,-0.03499 1.294445,-0.06997 1.60931,-0.20991 0.27988,-0.13994 0.384835,-0.13994 0.13994,0 0.13994,0.314865 0,0.06997 -0.13994,0.594746 -0.104955,0.48979 -0.13994,1.04955 l -0.13994,2.0991 q -0.06997,0.59475 -0.27988,0.59475 -0.27988,0 -0.27988,-0.45481 0,-0.6997 -0.174925,-1.1545 -0.34985,-1.08454 -2.51892,-1.29445 -0.90961,-0.10495 -4.792945,-0.10495 -0.20991,0 -0.20991,0.34985 v 9.65586 q 0,0.34985 0.20991,0.34985 4.75796,0 5.562615,-0.07 1.32943,-0.10496 1.74925,-0.59475 0.27988,-0.34985 0.41982,-0.34985 0.174925,0 0.174925,0.27988 0,0.07 -0.06997,0.31487 -0.03498,0.24489 -0.104955,0.6997 -0.06997,0.4548 -0.104955,0.94459 -0.06997,0.62973 -0.104955,1.50436 -0.03498,0.83964 -0.03498,0.87462 -0.06997,0.52478 -0.244895,0.52478 -0.244895,0 -0.244895,-0.55976 0,-0.55976 -0.13994,-0.97958 -0.244895,-0.97958 -1.81922,-1.15451 -1.574325,-0.17492 -5.002855,-0.17492 -0.244895,0 -0.244895,0.24489 v 3.07868 q 0,0.31487 0,1.81922 0,1.46937 0,2.65886 0,1.18949 0,1.50436 0.06997,1.1545 0.27988,1.74925 0.244895,0.55976 0.874625,0.80465 0.76967,0.31487 2.903755,0.31487 2.0991,0 3.14865,-0.31487 0.804655,-0.24489 1.18949,-0.80465 0.384835,-0.59475 0.594745,-1.78424 0.104955,-0.52477 0.314865,-0.52477 0.20991,0 0.20991,0.52477 0,0.2449 -0.174925,1.57433 -0.174925,1.32943 -0.27988,1.81922 -0.174925,0.66471 -0.48979,0.76967 -0.314865,0.13994 -1.3994,0.13994 -1.014565,0 -5.10781,-0.10496 -4.198201,-0.10495 -4.373126,-0.10495 -0.34985,0 -1.224475,0.07 -0.874625,0.07 -1.364415,0.035 -0.55976,0 -0.55976,-0.27988 0,-0.13994 0.384835,-0.20991 0.664715,-0.07 0.804655,-0.10495 0.62973,-0.13994 0.90961,-0.80466 0.314865,-0.66471 0.34985,-2.48393 0.06997,-2.72883 0.06997,-6.26232 z m 45.025718,-15.848201 2.343995,21.480791 q 0.34985,3.21862 1.88919,3.70841 1.014565,0.31486 2.16907,0.31486 0.384835,0 0.384835,0.20991 0,0.27988 -0.524775,0.27988 -3.463515,0 -6.052405,-0.20991 -0.97958,-0.07 -0.97958,-0.34985 0,-0.13994 0.244895,-0.24489 0.27988,-0.10496 0.13994,-1.25946 l -1.67928,-18.26217 -8.67628,18.40211 q -0.804655,1.71426 -0.97958,1.81922 -0.06997,0.035 -0.174926,0.035 -0.244895,0 -1.084535,-1.60931 -0.594745,-1.1545 -4.093245,-8.11652 -0.27988,-0.59474 -2.37898,-5.07282 -2.0991,-4.51307 -2.343995,-5.1428 l -1.434385,16.47794 q -0.06997,1.11952 -0.06997,1.64429 0,1.08454 0.944595,1.25946 0.594745,0.13994 1.25946,0.13994 0.34985,0 0.34985,0.17493 0,0.31486 -0.524775,0.31486 -0.76967,0 -2.064115,-0.035 l -1.294445,-0.07 q -0.06997,0 -1.224475,0.035 -1.154505,0.07 -1.714265,0.07 -0.594745,0 -0.594745,-0.27988 0,-0.20991 0.34985,-0.20991 0.524775,0 1.04955,-0.10495 0.97958,-0.17493 1.25946,-1.78424 0.03498,-0.17492 0.13994,-1.11952 l 2.51892,-22.740246 q 0.06997,-0.6997 0.384835,-0.6997 0.27988,0 0.524775,0.524775 L 76.112323,121.5522 86.397913,99.581624 q 0.244895,-0.55976 0.524775,-0.55976 0.314865,0 0.41982,0.944595 z m 13.049372,15.848201 v -6.15736 q 0,-6.43724 -0.07,-7.55676 -0.07,-0.94459 -0.384834,-1.36441 -0.27988,-0.45481 -1.11952,-0.62973 -0.41982,-0.10496 -1.18949,-0.10496 -0.27988,0 -0.27988,-0.209906 0,-0.27988 0.55976,-0.27988 0.6997,0 1.60931,0.03499 0.909614,0 1.574324,0.03498 0.6997,0.03499 0.76967,0.03499 0.27988,0 1.88919,-0.03499 1.60931,-0.06997 2.51892,-0.06997 4.37313,0 6.50721,1.994146 1.74925,1.67928 1.74925,4.58303 0,3.42853 -2.44895,5.66757 -2.44895,2.23904 -6.15736,2.23904 -0.55976,0 -0.73468,-0.035 -0.38484,0 -0.38484,-0.2449 0,-0.31486 0.9446,-0.31486 2.58889,0 4.30315,-1.6443 1.74925,-1.64429 1.74925,-4.33814 0,-3.11366 -1.95916,-5.10781 -1.71426,-1.74925 -4.79294,-1.74925 -1.01457,0 -1.50436,0.20991 -0.27988,0.10496 -0.27988,0.66472 v 14.37883 q 0,6.12238 0.17493,7.59175 0.10495,0.87462 0.34985,1.36441 0.27988,0.45481 1.01456,0.55976 0.97958,0.13994 1.57433,0.13994 0.27988,0 0.27988,0.20991 0,0.27988 -0.55976,0.27988 -0.83964,0 -1.88919,-0.035 -1.01457,0 -1.71427,-0.035 -0.66471,-0.035 -0.6997,-0.035 h -0.62973 q -0.62973,0.035 -1.469369,0.07 -0.804655,0.035 -1.25946,0.035 -0.55976,0 -0.55976,-0.27988 0,-0.20991 0.27988,-0.20991 0.41982,0 1.04955,-0.13994 0.76967,-0.13994 1.014569,-1.92417 0.17492,-1.46937 0.17492,-7.59175 z m 24.66444,-6.15736 v 6.22733 q 0,4.02328 0.13994,5.80751 0.17493,1.74925 0.62973,2.20406 0.80466,0.80465 4.1982,0.80465 1.71427,0 2.69385,-0.17492 0.97958,-0.17493 1.53934,-0.87463 0.73468,-0.87462 0.90961,-2.0991 0.07,-0.4548 0.31486,-0.4548 0.20991,0 0.20991,0.52477 0,1.60931 -0.52477,3.4985 -0.17493,0.62973 -0.52478,0.76967 -0.34985,0.17493 -1.67928,0.17493 -1.46937,0 -4.54805,-0.10496 -3.07868,-0.10495 -4.82793,-0.10495 -0.52477,0 -1.64429,0.035 -1.11952,0.07 -1.78424,0.07 -0.55976,0 -0.55976,-0.27988 0,-0.20991 0.27988,-0.20991 0.41982,0 1.04955,-0.13994 0.76967,-0.13994 1.01457,-1.92417 0.17492,-1.46937 0.17492,-7.59175 v -6.15736 q 0,-6.43724 -0.07,-7.55676 -0.07,-0.94459 -0.38483,-1.36441 -0.27988,-0.45481 -1.11952,-0.62973 -0.41982,-0.10496 -1.18949,-0.10496 -0.27988,0 -0.27988,-0.209906 0,-0.27988 0.55976,-0.27988 0.6997,0 1.64429,0.03499 0.9446,0 1.60931,0.03498 0.66472,0.03499 0.6997,0.03499 0.035,0 0.76967,-0.03499 0.73469,-0.03498 1.6443,-0.03498 0.90961,-0.03499 1.36441,-0.03499 0.55976,0 0.55976,0.27988 0,0.209906 -0.27988,0.209906 -0.52477,0 -1.1545,0.10496 -0.73469,0.13994 -1.01457,0.59474 -0.27988,0.45481 -0.34985,1.3994 -0.07,1.11952 -0.07,7.55676 z m 17.35262,6.15736 v -6.15736 q 0,-6.43724 -0.07,-7.55676 -0.07,-0.94459 -0.38483,-1.36441 -0.27988,-0.45481 -1.11952,-0.62973 -0.10496,-0.035 -0.27988,-0.035 -0.17493,-0.035 -0.41982,-0.035 -0.20991,-0.035 -0.31487,-0.035 -0.4548,-0.06997 -0.4548,-0.209906 0,-0.27988 0.55976,-0.27988 1.74925,0 3.9533,0.104955 7.20691,0 8.01157,-0.03499 1.29444,-0.06997 1.60931,-0.20991 0.27988,-0.13994 0.38483,-0.13994 0.13994,0 0.13994,0.314865 0,0.06997 -0.13994,0.594746 -0.10495,0.48979 -0.13994,1.04955 l -0.13994,2.0991 q -0.07,0.59475 -0.27988,0.59475 -0.27988,0 -0.27988,-0.45481 0,-0.6997 -0.17492,-1.1545 -0.34985,-1.08454 -2.51892,-1.29445 -0.90961,-0.10495 -4.79295,-0.10495 -0.20991,0 -0.20991,0.34985 v 9.65586 q 0,0.34985 0.20991,0.34985 4.75796,0 5.56262,-0.07 1.32943,-0.10496 1.74925,-0.59475 0.27988,-0.34985 0.41982,-0.34985 0.17492,0 0.17492,0.27988 0,0.07 -0.07,0.31487 -0.035,0.24489 -0.10495,0.6997 -0.07,0.4548 -0.10496,0.94459 -0.07,0.62973 -0.10495,1.50436 -0.035,0.83964 -0.035,0.87462 -0.07,0.52478 -0.24489,0.52478 -0.2449,0 -0.2449,-0.55976 0,-0.55976 -0.13994,-0.97958 -0.24489,-0.97958 -1.81922,-1.15451 -1.57432,-0.17492 -5.00285,-0.17492 -0.2449,0 -0.2449,0.24489 v 3.07868 q 0,0.31487 0,1.81922 0,1.46937 0,2.65886 0,1.18949 0,1.50436 0.07,1.1545 0.27988,1.74925 0.2449,0.55976 0.87463,0.80465 0.76967,0.31487 2.90375,0.31487 2.0991,0 3.14865,-0.31487 0.80466,-0.24489 1.18949,-0.80465 0.38484,-0.59475 0.59475,-1.78424 0.10495,-0.52477 0.31486,-0.52477 0.20991,0 0.20991,0.52477 0,0.2449 -0.17492,1.57433 -0.17493,1.32943 -0.27988,1.81922 -0.17493,0.66471 -0.48979,0.76967 -0.31487,0.13994 -1.3994,0.13994 -1.01457,0 -5.10781,-0.10496 -4.1982,-0.10495 -4.37313,-0.10495 -0.34985,0 -1.22447,0.07 -0.87463,0.07 -1.36442,0.035 -0.55976,0 -0.55976,-0.27988 0,-0.13994 0.38484,-0.20991 0.66471,-0.07 0.80465,-0.10495 0.62973,-0.13994 0.90961,-0.80466 0.31487,-0.66471 0.34985,-2.48393 0.07,-2.72883 0.07,-6.26232 z m 32.71103,0 v -6.15736 q 0,-6.43724 -0.07,-7.55676 -0.07,-0.94459 -0.38484,-1.36441 -0.27988,-0.45481 -1.11952,-0.62973 -0.41982,-0.10496 -1.01456,-0.10496 -0.45481,0 -0.45481,-0.209906 0,-0.27988 0.55976,-0.27988 0.6997,0 1.6443,0.03499 0.94459,0 1.60931,0.03498 0.66471,0.03499 0.6997,0.03499 0.31486,0 1.60931,-0.03499 1.29444,-0.06997 2.20405,-0.06997 2.02913,0 3.4985,0.559756 1.46937,0.55976 2.16907,1.43439 0.6997,0.87462 1.01457,1.67928 0.31486,0.80465 0.31486,1.57432 0,1.32943 -0.55976,2.58889 -0.52477,1.22448 -1.08453,1.88919 -0.55976,0.66472 -1.6443,1.81922 2.30901,0.73469 4.16322,2.65886 1.88919,1.92418 1.88919,4.72298 0,3.07868 -2.344,5.3527 -2.34399,2.27403 -6.57718,2.27403 -0.17492,0 -0.59474,-0.035 -0.38484,0 -0.9446,-0.035 -0.55976,-0.035 -0.97958,-0.035 -1.50435,-0.10495 -2.13408,-0.10495 -0.55976,0 -1.67928,0.035 -1.11952,0.07 -1.74925,0.07 -0.55976,0 -0.55976,-0.24489 0,-0.2449 0.52477,-0.2449 0.38484,0 0.83964,-0.10495 0.73469,-0.13994 0.97958,-1.95916 0.17493,-1.46937 0.17493,-7.59175 z m 2.7988,-14.76367 v 9.37598 q 0,0.27988 0.24489,0.38484 0.83964,0.13994 2.13409,0.13994 1.53934,0 2.0991,-0.13994 0.55976,-0.17493 1.08453,-0.76967 1.25946,-1.43439 1.25946,-3.53349 0,-2.44895 -1.18949,-4.23318 -1.1545,-1.78424 -3.53348,-1.78424 -0.97958,0 -1.67928,0.17493 -0.41982,0.10495 -0.41982,0.38483 z m 0,11.09025 v 1.99414 q 0,7.03199 0.035,7.55676 0.07,1.04955 0.10496,1.43439 0.07,0.34985 0.31486,0.6997 0.2449,0.34985 0.76967,0.59474 1.08454,0.52478 3.07868,0.52478 0.80466,0 1.57433,-0.20991 0.80465,-0.2449 1.57432,-0.76967 0.80466,-0.52478 1.29445,-1.53934 0.48979,-1.04955 0.48979,-2.44895 0,-1.88919 -0.80466,-3.81337 -0.76967,-1.92417 -2.58889,-3.18363 -1.18949,-0.80466 -2.90375,-1.01457 -0.45481,-0.07 -2.72883,-0.07 -0.20991,0 -0.20991,0.2449 z m 30.12209,3.4985 h -7.52177 q -0.2449,0 -0.34985,0.27988 l -2.0991,6.19234 q -0.48979,1.36442 -0.48979,2.344 0,0.48979 0.38483,0.76967 0.38484,0.24489 0.87463,0.24489 h 0.31486 q 0.45481,0 0.45481,0.20991 0,0.27988 -0.62973,0.27988 -0.48979,0 -1.50436,-0.07 -0.97958,-0.035 -1.11952,-0.035 -0.035,0 -1.50435,0.035 -1.46937,0.07 -2.44895,0.07 -0.66472,0 -0.66472,-0.27988 0,-0.20991 0.48979,-0.20991 0.27988,0 0.83964,-0.07 1.11952,-0.13994 1.74925,-0.94459 0.62973,-0.83964 1.18949,-2.344 l 7.9416,-21.72568 q 0.48979,-1.364416 0.76967,-1.364416 0.27988,0 0.76967,1.259456 0.13994,0.34985 1.74925,4.61802 1.64429,4.26817 3.53348,9.20106 1.92418,4.93288 2.86877,7.27688 1.3994,3.42853 3.00871,3.88333 0.62973,0.20991 1.36442,0.20991 0.38483,0 0.38483,0.20991 0,0.27988 -0.6997,0.27988 -3.07868,0 -5.49264,-0.07 -1.04955,-0.07 -1.04955,-0.24489 0,-0.17493 0.24489,-0.2449 0.48979,-0.17492 0.20991,-0.94459 l -3.2536,-8.60631 q -0.10496,-0.20991 -0.31487,-0.20991 z m -7.13694,-1.25946 h 6.68214 q 0.20991,0 0.13994,-0.2449 l -3.32358,-9.44595 q -0.24489,-0.80465 -0.52477,0 l -3.07868,9.44595 q -0.10496,0.2449 0.10495,0.2449 z m 22.49538,1.43438 v -6.15736 q 0,-6.43724 -0.07,-7.55676 -0.07,-0.94459 -0.38484,-1.36441 -0.27988,-0.45481 -1.11952,-0.62973 -0.41982,-0.10496 -1.18949,-0.10496 -0.27988,0 -0.27988,-0.209906 0,-0.27988 0.55976,-0.27988 0.6997,0 1.6443,0.03499 0.94459,0 1.60931,0.03498 0.66471,0.03499 0.6997,0.03499 0.10495,0 1.78423,-0.03499 1.71427,-0.06997 2.344,-0.06997 4.26817,0 6.40225,1.539336 0.87463,0.62973 1.6443,1.88919 0.76967,1.25946 0.76967,2.86877 0,4.16322 -4.23319,8.08154 5.56262,7.13694 7.27688,8.95616 2.06412,2.16907 4.26817,2.51892 0.66472,0.10495 1.36442,0.10495 0.31486,0 0.31486,0.20991 0,0.27988 -0.83964,0.27988 h -2.48393 q -2.51892,0 -3.7434,-0.66471 -0.6997,-0.38484 -1.57432,-1.25946 -0.83964,-0.87463 -1.25946,-1.3994 -0.41982,-0.55976 -1.88919,-2.48394 -0.80466,-1.08453 -2.16907,-2.93874 -1.36442,-1.88919 -1.6443,-2.23904 -0.20991,-0.20991 -0.4548,-0.20991 l -4.30316,-0.07 q -0.24489,0 -0.24489,0.27988 v 0.83964 q 0,6.12238 0.17492,7.59175 0.10496,0.87462 0.34985,1.36441 0.27988,0.45481 1.01457,0.55976 0.97958,0.13994 1.57432,0.13994 0.27988,0 0.27988,0.20991 0,0.27988 -0.55976,0.27988 -0.83964,0 -1.88919,-0.035 -1.01456,0 -1.71426,-0.035 -0.66472,-0.035 -0.6997,-0.035 h -0.2449 q -0.24489,0.035 -0.62973,0.035 -0.38483,0.035 -0.80465,0.035 -0.41982,0 -0.87463,0 -0.4548,0.035 -0.73468,0.035 -0.55976,0 -0.55976,-0.27988 0,-0.20991 0.27988,-0.20991 0.41982,0 1.04955,-0.13994 0.76967,-0.13994 1.01456,-1.92417 0.17493,-1.46937 0.17493,-7.59175 z m 2.7988,-14.55376 v 11.4401 q 0,0.27988 0.24489,0.41982 0.9446,0.55976 3.67343,0.55976 1.67928,0 2.62387,-0.66472 2.13409,-1.46937 2.13409,-5.38769 0,-3.28859 -1.6443,-5.14279 -1.60931,-1.85421 -4.40811,-1.85421 -1.64429,0 -2.34399,0.20991 -0.27988,0.10496 -0.27988,0.41982 z"
     id="text1"
     inkscape:label="text1"
     transform="matrix(0.97218711,0,0,0.94206234,-1.6628118,-80.428449)"
     aria-label="TEMPLE BAR" />
</svg>
