<?xml version="1.0" encoding="UTF-8" standalone="no"?>
<!-- Created with Inkscape (http://www.inkscape.org/) -->

<svg
   version="1.1"
   id="svg1"
   width="251.215"
   height="167.757"
   viewBox="0 0 251.21499 167.757"
   xmlns:xlink="http://www.w3.org/1999/xlink"
   xmlns="http://www.w3.org/2000/svg"
   xmlns:svg="http://www.w3.org/2000/svg">
  <defs
     id="defs1">
    <linearGradient
       id="linearGradient8">
      <stop
         style="stop-color:#b39b51;stop-opacity:1;"
         offset="0"
         id="stop7" />
      <stop
         style="stop-color:#e4deb7;stop-opacity:1;"
         offset="1"
         id="stop8" />
    </linearGradient>
    <linearGradient
       id="linearGradient109">
      <stop
         style="stop-color:#fece5e;stop-opacity:1;"
         offset="0"
         id="stop108" />
      <stop
         style="stop-color:#fcf1b7;stop-opacity:1;"
         offset="1"
         id="stop109" />
    </linearGradient>
    <linearGradient
       id="linearGradient105">
      <stop
         style="stop-color:#fece5e;stop-opacity:1;"
         offset="0"
         id="stop105" />
      <stop
         style="stop-color:#fdda7e;stop-opacity:1;"
         offset="1"
         id="stop106" />
    </linearGradient>
    <linearGradient
       id="linearGradient97">
      <stop
         style="stop-color:#feeb7a;stop-opacity:1;"
         offset="0"
         id="stop97" />
      <stop
         style="stop-color:#fbf0b8;stop-opacity:1;"
         offset="1"
         id="stop98" />
    </linearGradient>
    <filter
       style="color-interpolation-filters:sRGB"
       id="filter277"
       x="-0.15485559"
       y="-0.09074192"
       width="1.387139"
       height="1.2268548">
      <feFlood
         result="flood"
         in="SourceGraphic"
         flood-opacity="0.603922"
         flood-color="rgb(0,0,0)"
         id="feFlood276" />
      <feGaussianBlur
         result="blur"
         in="SourceGraphic"
         stdDeviation="1.000000"
         id="feGaussianBlur276" />
      <feOffset
         result="offset"
         in="blur"
         dx="1.200000"
         dy="1.200000"
         id="feOffset276" />
      <feComposite
         result="comp1"
         operator="in"
         in="flood"
         in2="offset"
         id="feComposite276" />
      <feComposite
         result="comp2"
         operator="over"
         in="SourceGraphic"
         in2="comp1"
         id="feComposite277" />
    </filter>
    <filter
       style="color-interpolation-filters:sRGB"
       id="filter279"
       x="-0.19368897"
       y="-0.09649249"
       width="1.4842224"
       height="1.2412312">
      <feFlood
         result="flood"
         in="SourceGraphic"
         flood-opacity="0.603922"
         flood-color="rgb(0,0,0)"
         id="feFlood277" />
      <feGaussianBlur
         result="blur"
         in="SourceGraphic"
         stdDeviation="1.000000"
         id="feGaussianBlur277" />
      <feOffset
         result="offset"
         in="blur"
         dx="1.200000"
         dy="1.200000"
         id="feOffset277" />
      <feComposite
         result="comp1"
         operator="in"
         in="flood"
         in2="offset"
         id="feComposite278" />
      <feComposite
         result="comp2"
         operator="over"
         in="SourceGraphic"
         in2="comp1"
         id="feComposite279" />
    </filter>
    <filter
       style="color-interpolation-filters:sRGB"
       id="filter281"
       x="-0.035900541"
       y="-0.095440915"
       width="1.0897514"
       height="1.2386023">
      <feFlood
         result="flood"
         in="SourceGraphic"
         flood-opacity="0.603922"
         flood-color="rgb(0,0,0)"
         id="feFlood279" />
      <feGaussianBlur
         result="blur"
         in="SourceGraphic"
         stdDeviation="1.000000"
         id="feGaussianBlur279" />
      <feOffset
         result="offset"
         in="blur"
         dx="1.200000"
         dy="1.200000"
         id="feOffset279" />
      <feComposite
         result="comp1"
         operator="in"
         in="flood"
         in2="offset"
         id="feComposite280" />
      <feComposite
         result="comp2"
         operator="over"
         in="SourceGraphic"
         in2="comp1"
         id="feComposite281" />
    </filter>
    <filter
       style="color-interpolation-filters:sRGB"
       id="filter283"
       x="-0.057365764"
       y="-0.09649249"
       width="1.1434144"
       height="1.2412312">
      <feFlood
         result="flood"
         in="SourceGraphic"
         flood-opacity="0.603922"
         flood-color="rgb(0,0,0)"
         id="feFlood281" />
      <feGaussianBlur
         result="blur"
         in="SourceGraphic"
         stdDeviation="1.000000"
         id="feGaussianBlur281" />
      <feOffset
         result="offset"
         in="blur"
         dx="1.200000"
         dy="1.200000"
         id="feOffset281" />
      <feComposite
         result="comp1"
         operator="in"
         in="flood"
         in2="offset"
         id="feComposite282" />
      <feComposite
         result="comp2"
         operator="over"
         in="SourceGraphic"
         in2="comp1"
         id="feComposite283" />
    </filter>
    <filter
       style="color-interpolation-filters:sRGB"
       id="filter287"
       x="-0.074776465"
       y="-0.057922184"
       width="1.1869412"
       height="1.1448055">
      <feFlood
         result="flood"
         in="SourceGraphic"
         flood-opacity="0.603922"
         flood-color="rgb(0,0,0)"
         id="feFlood285" />
      <feGaussianBlur
         result="blur"
         in="SourceGraphic"
         stdDeviation="1.000000"
         id="feGaussianBlur285" />
      <feOffset
         result="offset"
         in="blur"
         dx="1.200000"
         dy="1.200000"
         id="feOffset285" />
      <feComposite
         result="comp1"
         operator="in"
         in="flood"
         in2="offset"
         id="feComposite286" />
      <feComposite
         result="comp2"
         operator="over"
         in="SourceGraphic"
         in2="comp1"
         id="feComposite287" />
    </filter>
    <filter
       style="color-interpolation-filters:sRGB"
       id="filter300"
       x="-0.073289442"
       y="-0.024421716"
       width="1.1581024"
       height="1.0523505">
      <feFlood
         result="flood"
         in="SourceGraphic"
         flood-opacity="0.603922"
         flood-color="rgb(0,0,0)"
         id="feFlood299" />
      <feGaussianBlur
         result="blur"
         in="SourceGraphic"
         stdDeviation="0.100000"
         id="feGaussianBlur299" />
      <feOffset
         result="offset"
         in="blur"
         dx="0.100000"
         dy="0.100000"
         id="feOffset299" />
      <feComposite
         result="comp1"
         operator="in"
         in="flood"
         in2="offset"
         id="feComposite299" />
      <feComposite
         result="comp2"
         operator="over"
         in="SourceGraphic"
         in2="comp1"
         id="feComposite300" />
    </filter>
    <linearGradient
       xlink:href="#linearGradient97"
       id="linearGradient98"
       x1="126.33583"
       y1="99.487816"
       x2="126.33583"
       y2="140.79143"
       gradientUnits="userSpaceOnUse" />
    <linearGradient
       xlink:href="#linearGradient109"
       id="linearGradient106"
       x1="125.5"
       y1="13.25"
       x2="125.5"
       y2="97.5"
       gradientUnits="userSpaceOnUse" />
    <linearGradient
       xlink:href="#linearGradient105"
       id="linearGradient107"
       gradientUnits="userSpaceOnUse"
       x1="133.10139"
       y1="50.019554"
       x2="133.27817"
       y2="90.252159" />
    <linearGradient
       xlink:href="#linearGradient109"
       id="linearGradient1"
       gradientUnits="userSpaceOnUse"
       x1="125.5"
       y1="13.25"
       x2="125.5"
       y2="97.5" />
    <linearGradient
       xlink:href="#linearGradient109"
       id="linearGradient2"
       gradientUnits="userSpaceOnUse"
       x1="125.5"
       y1="13.25"
       x2="125.5"
       y2="97.5" />
    <linearGradient
       xlink:href="#linearGradient109"
       id="linearGradient3"
       gradientUnits="userSpaceOnUse"
       x1="125.5"
       y1="13.25"
       x2="125.5"
       y2="97.5" />
    <linearGradient
       xlink:href="#linearGradient109"
       id="linearGradient4"
       gradientUnits="userSpaceOnUse"
       x1="125.5"
       y1="13.25"
       x2="125.5"
       y2="97.5" />
    <linearGradient
       xlink:href="#linearGradient109"
       id="linearGradient5"
       gradientUnits="userSpaceOnUse"
       x1="125.5"
       y1="13.25"
       x2="125.5"
       y2="97.5" />
    <linearGradient
       xlink:href="#linearGradient8"
       id="linearGradient7"
       x1="124.36523"
       y1="-2.0096986"
       x2="124.36523"
       y2="137.29034"
       gradientUnits="userSpaceOnUse"
       gradientTransform="translate(2.1213204,2.1213203)" />
    <linearGradient
       xlink:href="#linearGradient97"
       id="linearGradient6"
       gradientUnits="userSpaceOnUse"
       x1="126.33583"
       y1="99.487816"
       x2="126.33583"
       y2="140.79143" />
    <linearGradient
       xlink:href="#linearGradient97"
       id="linearGradient9"
       gradientUnits="userSpaceOnUse"
       x1="126.33583"
       y1="99.487816"
       x2="126.33583"
       y2="140.79143" />
    <linearGradient
       xlink:href="#linearGradient97"
       id="linearGradient10"
       gradientUnits="userSpaceOnUse"
       x1="126.33583"
       y1="99.487816"
       x2="126.33583"
       y2="140.79143" />
    <linearGradient
       xlink:href="#linearGradient97"
       id="linearGradient11"
       gradientUnits="userSpaceOnUse"
       x1="126.33583"
       y1="99.487816"
       x2="126.33583"
       y2="140.79143" />
    <linearGradient
       xlink:href="#linearGradient97"
       id="linearGradient12"
       gradientUnits="userSpaceOnUse"
       x1="126.33583"
       y1="99.487816"
       x2="126.33583"
       y2="140.79143" />
    <linearGradient
       xlink:href="#linearGradient97"
       id="linearGradient13"
       gradientUnits="userSpaceOnUse"
       x1="126.33583"
       y1="99.487816"
       x2="126.33583"
       y2="140.79143" />
    <linearGradient
       xlink:href="#linearGradient97"
       id="linearGradient14"
       gradientUnits="userSpaceOnUse"
       x1="126.33583"
       y1="99.487816"
       x2="126.33583"
       y2="140.79143" />
    <linearGradient
       xlink:href="#linearGradient97"
       id="linearGradient15"
       gradientUnits="userSpaceOnUse"
       x1="126.33583"
       y1="99.487816"
       x2="126.33583"
       y2="140.79143" />
  </defs>
  <path
     id="path28"
     style="display:inline;opacity:1;fill:#9e1512;fill-opacity:1;stroke:url(#linearGradient7);stroke-width:7.535;stroke-linecap:square;stroke-dasharray:none;stroke-opacity:1;paint-order:stroke fill markers"
     d="M 80.645265,91.654761 H 13.317607 l -8.9285716,8.928579 v 25.56581 l 8.9850886,8.98509 H 125.72872 V 4.3893628 C 113.34017,4.3413819 104.22912,9.4684127 96.295402,16.454373 l 3.668116,3.668116 v 10.69499 h -3.414 c 1.00004,1.90035 0.939329,3.800699 1.138,5.701049 -3.025253,3.4348 -9.203121,4.34094 -7.140364,11.856748 -3.428676,2.500622 -6.070636,3.066605 -9.852295,2.373776 z m 90.166915,0 h 67.32766 l 8.92857,8.928579 v 25.56581 l -8.98509,8.98509 H 125.72872 V 4.3893628 c 12.38855,-0.047981 21.4996,5.0790499 29.43332,12.0650102 l -3.66811,3.668116 v 10.69499 h 3.414 c -1.00004,1.90035 -0.93933,3.800699 -1.138,5.701049 3.02525,3.4348 9.20312,4.34094 7.14036,11.856748 3.42868,2.500622 6.07064,3.066605 9.85229,2.373776 z" />
  <path
     style="font-size:34.985px;font-family:'Trajan Pro 3';-inkscape-font-specification:'Trajan Pro 3, Normal';display:inline;fill:url(#linearGradient6);stroke-width:6.19816;stroke-linecap:square;paint-order:stroke fill markers;filter:url(#filter277)"
     d="m 223.3993,115.81464 v -6.15736 q 0,-6.43724 -0.07,-7.55676 -0.07,-0.94459 -0.38484,-1.36441 -0.27988,-0.45481 -1.11952,-0.62973 -0.41982,-0.10496 -1.18949,-0.10496 -0.27988,0 -0.27988,-0.209906 0,-0.27988 0.55976,-0.27988 0.6997,0 1.6443,0.03499 0.94459,0 1.60931,0.03498 0.66471,0.03499 0.6997,0.03499 0.10495,0 1.78423,-0.03499 1.71427,-0.06997 2.344,-0.06997 4.26817,0 6.40225,1.539336 0.87463,0.62973 1.6443,1.88919 0.76967,1.25946 0.76967,2.86877 0,4.16322 -4.23319,8.08154 5.56262,7.13694 7.27688,8.95616 2.06412,2.16907 4.26817,2.51892 0.66472,0.10495 1.36442,0.10495 0.31486,0 0.31486,0.20991 0,0.27988 -0.83964,0.27988 h -2.48393 q -2.51892,0 -3.7434,-0.66471 -0.6997,-0.38484 -1.57432,-1.25946 -0.83964,-0.87463 -1.25946,-1.3994 -0.41982,-0.55976 -1.88919,-2.48394 -0.80466,-1.08453 -2.16907,-2.93874 -1.36442,-1.88919 -1.6443,-2.23904 -0.20991,-0.20991 -0.4548,-0.20991 l -4.30316,-0.07 q -0.24489,0 -0.24489,0.27988 v 0.83964 q 0,6.12238 0.17492,7.59175 0.10496,0.87462 0.34985,1.36441 0.27988,0.45481 1.01457,0.55976 0.97958,0.13994 1.57432,0.13994 0.27988,0 0.27988,0.20991 0,0.27988 -0.55976,0.27988 -0.83964,0 -1.88919,-0.035 -1.01456,0 -1.71426,-0.035 -0.66472,-0.035 -0.6997,-0.035 h -0.2449 q -0.24489,0.035 -0.62973,0.035 -0.38483,0.035 -0.80465,0.035 -0.41982,0 -0.87463,0 -0.4548,0.035 -0.73468,0.035 -0.55976,0 -0.55976,-0.27988 0,-0.20991 0.27988,-0.20991 0.41982,0 1.04955,-0.13994 0.76967,-0.13994 1.01456,-1.92417 0.17493,-1.46937 0.17493,-7.59175 z m 2.7988,-14.55376 v 11.4401 q 0,0.27988 0.24489,0.41982 0.9446,0.55976 3.67343,0.55976 1.67928,0 2.62387,-0.66472 2.13409,-1.46937 2.13409,-5.38769 0,-3.28859 -1.6443,-5.14279 -1.60931,-1.85421 -4.40811,-1.85421 -1.64429,0 -2.34399,0.20991 -0.27988,0.10496 -0.27988,0.41982 z"
     transform="matrix(0.97218711,0,0,0.94206234,-1.0414132,7.415605)"
     id="path11" />
  <path
     style="font-size:34.985px;font-family:'Trajan Pro 3';-inkscape-font-specification:'Trajan Pro 3, Normal';display:inline;fill:url(#linearGradient9);stroke-width:6.19816;stroke-linecap:square;paint-order:stroke fill markers;filter:url(#filter277)"
     d="m 208.04086,115.63972 h -7.52177 q -0.2449,0 -0.34985,0.27988 l -2.0991,6.19234 q -0.48979,1.36442 -0.48979,2.344 0,0.48979 0.38483,0.76967 0.38484,0.24489 0.87463,0.24489 h 0.31486 q 0.45481,0 0.45481,0.20991 0,0.27988 -0.62973,0.27988 -0.48979,0 -1.50436,-0.07 -0.97958,-0.035 -1.11952,-0.035 -0.035,0 -1.50435,0.035 -1.46937,0.07 -2.44895,0.07 -0.66472,0 -0.66472,-0.27988 0,-0.20991 0.48979,-0.20991 0.27988,0 0.83964,-0.07 1.11952,-0.13994 1.74925,-0.94459 0.62973,-0.83964 1.18949,-2.344 l 7.9416,-21.72568 q 0.48979,-1.364416 0.76967,-1.364416 0.27988,0 0.76967,1.259456 0.13994,0.34985 1.74925,4.61802 1.64429,4.26817 3.53348,9.20106 1.92418,4.93288 2.86877,7.27688 1.3994,3.42853 3.00871,3.88333 0.62973,0.20991 1.36442,0.20991 0.38483,0 0.38483,0.20991 0,0.27988 -0.6997,0.27988 -3.07868,0 -5.49264,-0.07 -1.04955,-0.07 -1.04955,-0.24489 0,-0.17493 0.24489,-0.2449 0.48979,-0.17492 0.20991,-0.94459 l -3.2536,-8.60631 q -0.10496,-0.20991 -0.31487,-0.20991 z m -7.13694,-1.25946 h 6.68214 q 0.20991,0 0.13994,-0.2449 l -3.32358,-9.44595 q -0.24489,-0.80465 -0.52477,0 l -3.07868,9.44595 q -0.10496,0.2449 0.10495,0.2449 z"
     transform="matrix(0.97218711,0,0,0.94206234,-1.0414132,7.415605)"
     id="path9" />
  <path
     style="font-size:34.985px;font-family:'Trajan Pro 3';-inkscape-font-specification:'Trajan Pro 3, Normal';display:inline;fill:url(#linearGradient10);stroke-width:6.19816;stroke-linecap:square;paint-order:stroke fill markers;filter:url(#filter277)"
     d="m 175.11997,115.81464 v -6.15736 q 0,-6.43724 -0.07,-7.55676 -0.07,-0.94459 -0.38484,-1.36441 -0.27988,-0.45481 -1.11952,-0.62973 -0.41982,-0.10496 -1.01456,-0.10496 -0.45481,0 -0.45481,-0.209906 0,-0.27988 0.55976,-0.27988 0.6997,0 1.6443,0.03499 0.94459,0 1.60931,0.03498 0.66471,0.03499 0.6997,0.03499 0.31486,0 1.60931,-0.03499 1.29444,-0.06997 2.20405,-0.06997 2.02913,0 3.4985,0.559756 1.46937,0.55976 2.16907,1.43439 0.6997,0.87462 1.01457,1.67928 0.31486,0.80465 0.31486,1.57432 0,1.32943 -0.55976,2.58889 -0.52477,1.22448 -1.08453,1.88919 -0.55976,0.66472 -1.6443,1.81922 2.30901,0.73469 4.16322,2.65886 1.88919,1.92418 1.88919,4.72298 0,3.07868 -2.344,5.3527 -2.34399,2.27403 -6.57718,2.27403 -0.17492,0 -0.59474,-0.035 -0.38484,0 -0.9446,-0.035 -0.55976,-0.035 -0.97958,-0.035 -1.50435,-0.10495 -2.13408,-0.10495 -0.55976,0 -1.67928,0.035 -1.11952,0.07 -1.74925,0.07 -0.55976,0 -0.55976,-0.24489 0,-0.2449 0.52477,-0.2449 0.38484,0 0.83964,-0.10495 0.73469,-0.13994 0.97958,-1.95916 0.17493,-1.46937 0.17493,-7.59175 z m 2.7988,-14.76367 v 9.37598 q 0,0.27988 0.24489,0.38484 0.83964,0.13994 2.13409,0.13994 1.53934,0 2.0991,-0.13994 0.55976,-0.17493 1.08453,-0.76967 1.25946,-1.43439 1.25946,-3.53349 0,-2.44895 -1.18949,-4.23318 -1.1545,-1.78424 -3.53348,-1.78424 -0.97958,0 -1.67928,0.17493 -0.41982,0.10495 -0.41982,0.38483 z m 0,11.09025 v 1.99414 q 0,7.03199 0.035,7.55676 0.07,1.04955 0.10496,1.43439 0.07,0.34985 0.31486,0.6997 0.2449,0.34985 0.76967,0.59474 1.08454,0.52478 3.07868,0.52478 0.80466,0 1.57433,-0.20991 0.80465,-0.2449 1.57432,-0.76967 0.80466,-0.52478 1.29445,-1.53934 0.48979,-1.04955 0.48979,-2.44895 0,-1.88919 -0.80466,-3.81337 -0.76967,-1.92417 -2.58889,-3.18363 -1.18949,-0.80466 -2.90375,-1.01457 -0.45481,-0.07 -2.72883,-0.07 -0.20991,0 -0.20991,0.2449 z"
     transform="matrix(0.97218711,0,0,0.94206234,-1.0414132,7.415605)"
     id="path7" />
  <path
     style="font-size:34.985px;font-family:'Trajan Pro 3';-inkscape-font-specification:'Trajan Pro 3, Normal';display:inline;fill:url(#linearGradient11);stroke-width:6.19816;stroke-linecap:square;paint-order:stroke fill markers;filter:url(#filter277)"
     d="m 142.40894,115.81464 v -6.15736 q 0,-6.43724 -0.07,-7.55676 -0.07,-0.94459 -0.38483,-1.36441 -0.27988,-0.45481 -1.11952,-0.62973 -0.10496,-0.035 -0.27988,-0.035 -0.17493,-0.035 -0.41982,-0.035 -0.20991,-0.035 -0.31487,-0.035 -0.4548,-0.06997 -0.4548,-0.209906 0,-0.27988 0.55976,-0.27988 1.74925,0 3.9533,0.104955 7.20691,0 8.01157,-0.03499 1.29444,-0.06997 1.60931,-0.20991 0.27988,-0.13994 0.38483,-0.13994 0.13994,0 0.13994,0.314865 0,0.06997 -0.13994,0.594746 -0.10495,0.48979 -0.13994,1.04955 l -0.13994,2.0991 q -0.07,0.59475 -0.27988,0.59475 -0.27988,0 -0.27988,-0.45481 0,-0.6997 -0.17492,-1.1545 -0.34985,-1.08454 -2.51892,-1.29445 -0.90961,-0.10495 -4.79295,-0.10495 -0.20991,0 -0.20991,0.34985 v 9.65586 q 0,0.34985 0.20991,0.34985 4.75796,0 5.56262,-0.07 1.32943,-0.10496 1.74925,-0.59475 0.27988,-0.34985 0.41982,-0.34985 0.17492,0 0.17492,0.27988 0,0.07 -0.07,0.31487 -0.035,0.24489 -0.10495,0.6997 -0.07,0.4548 -0.10496,0.94459 -0.07,0.62973 -0.10495,1.50436 -0.035,0.83964 -0.035,0.87462 -0.07,0.52478 -0.24489,0.52478 -0.2449,0 -0.2449,-0.55976 0,-0.55976 -0.13994,-0.97958 -0.24489,-0.97958 -1.81922,-1.15451 -1.57432,-0.17492 -5.00285,-0.17492 -0.2449,0 -0.2449,0.24489 v 3.07868 q 0,0.31487 0,1.81922 0,1.46937 0,2.65886 0,1.18949 0,1.50436 0.07,1.1545 0.27988,1.74925 0.2449,0.55976 0.87463,0.80465 0.76967,0.31487 2.90375,0.31487 2.0991,0 3.14865,-0.31487 0.80466,-0.24489 1.18949,-0.80465 0.38484,-0.59475 0.59475,-1.78424 0.10495,-0.52477 0.31486,-0.52477 0.20991,0 0.20991,0.52477 0,0.2449 -0.17492,1.57433 -0.17493,1.32943 -0.27988,1.81922 -0.17493,0.66471 -0.48979,0.76967 -0.31487,0.13994 -1.3994,0.13994 -1.01457,0 -5.10781,-0.10496 -4.1982,-0.10495 -4.37313,-0.10495 -0.34985,0 -1.22447,0.07 -0.87463,0.07 -1.36442,0.035 -0.55976,0 -0.55976,-0.27988 0,-0.13994 0.38484,-0.20991 0.66471,-0.07 0.80465,-0.10495 0.62973,-0.13994 0.90961,-0.80466 0.31487,-0.66471 0.34985,-2.48393 0.07,-2.72883 0.07,-6.26232 z"
     transform="matrix(0.97218711,0,0,0.94206234,-1.0414132,7.415605)"
     id="path6" />
  <path
     style="font-size:34.985px;font-family:'Trajan Pro 3';-inkscape-font-specification:'Trajan Pro 3, Normal';display:inline;fill:url(#linearGradient12);stroke-width:6.19816;stroke-linecap:square;paint-order:stroke fill markers;filter:url(#filter277)"
     d="m 125.05632,109.65728 v 6.22733 q 0,4.02328 0.13994,5.80751 0.17493,1.74925 0.62973,2.20406 0.80466,0.80465 4.1982,0.80465 1.71427,0 2.69385,-0.17492 0.97958,-0.17493 1.53934,-0.87463 0.73468,-0.87462 0.90961,-2.0991 0.07,-0.4548 0.31486,-0.4548 0.20991,0 0.20991,0.52477 0,1.60931 -0.52477,3.4985 -0.17493,0.62973 -0.52478,0.76967 -0.34985,0.17493 -1.67928,0.17493 -1.46937,0 -4.54805,-0.10496 -3.07868,-0.10495 -4.82793,-0.10495 -0.52477,0 -1.64429,0.035 -1.11952,0.07 -1.78424,0.07 -0.55976,0 -0.55976,-0.27988 0,-0.20991 0.27988,-0.20991 0.41982,0 1.04955,-0.13994 0.76967,-0.13994 1.01457,-1.92417 0.17492,-1.46937 0.17492,-7.59175 v -6.15736 q 0,-6.43724 -0.07,-7.55676 -0.07,-0.94459 -0.38483,-1.36441 -0.27988,-0.45481 -1.11952,-0.62973 -0.41982,-0.10496 -1.18949,-0.10496 -0.27988,0 -0.27988,-0.209906 0,-0.27988 0.55976,-0.27988 0.6997,0 1.64429,0.03499 0.9446,0 1.60931,0.03498 0.66472,0.03499 0.6997,0.03499 0.035,0 0.76967,-0.03499 0.73469,-0.03498 1.6443,-0.03498 0.90961,-0.03499 1.36441,-0.03499 0.55976,0 0.55976,0.27988 0,0.209906 -0.27988,0.209906 -0.52477,0 -1.1545,0.10496 -0.73469,0.13994 -1.01457,0.59474 -0.27988,0.45481 -0.34985,1.3994 -0.07,1.11952 -0.07,7.55676 z"
     transform="matrix(0.97218711,0,0,0.94206234,-1.0414132,7.415605)"
     id="path5" />
  <path
     style="font-size:34.985px;font-family:'Trajan Pro 3';-inkscape-font-specification:'Trajan Pro 3, Normal';display:inline;fill:url(#linearGradient13);stroke-width:6.19816;stroke-linecap:square;paint-order:stroke fill markers;filter:url(#filter277)"
     d="m 100.39188,115.81464 v -6.15736 q 0,-6.43724 -0.07,-7.55676 -0.07,-0.94459 -0.384834,-1.36441 -0.27988,-0.45481 -1.11952,-0.62973 -0.41982,-0.10496 -1.18949,-0.10496 -0.27988,0 -0.27988,-0.209906 0,-0.27988 0.55976,-0.27988 0.6997,0 1.60931,0.03499 0.909614,0 1.574324,0.03498 0.6997,0.03499 0.76967,0.03499 0.27988,0 1.88919,-0.03499 1.60931,-0.06997 2.51892,-0.06997 4.37313,0 6.50721,1.994146 1.74925,1.67928 1.74925,4.58303 0,3.42853 -2.44895,5.66757 -2.44895,2.23904 -6.15736,2.23904 -0.55976,0 -0.73468,-0.035 -0.38484,0 -0.38484,-0.2449 0,-0.31486 0.9446,-0.31486 2.58889,0 4.30315,-1.6443 1.74925,-1.64429 1.74925,-4.33814 0,-3.11366 -1.95916,-5.10781 -1.71426,-1.74925 -4.79294,-1.74925 -1.01457,0 -1.50436,0.20991 -0.27988,0.10496 -0.27988,0.66472 v 14.37883 q 0,6.12238 0.17493,7.59175 0.10495,0.87462 0.34985,1.36441 0.27988,0.45481 1.01456,0.55976 0.97958,0.13994 1.57433,0.13994 0.27988,0 0.27988,0.20991 0,0.27988 -0.55976,0.27988 -0.83964,0 -1.88919,-0.035 -1.01457,0 -1.71427,-0.035 -0.66471,-0.035 -0.6997,-0.035 h -0.62973 q -0.62973,0.035 -1.469369,0.07 -0.804655,0.035 -1.25946,0.035 -0.55976,0 -0.55976,-0.27988 0,-0.20991 0.27988,-0.20991 0.41982,0 1.04955,-0.13994 0.76967,-0.13994 1.014569,-1.92417 0.17492,-1.46937 0.17492,-7.59175 z"
     transform="matrix(0.97218711,0,0,0.94206234,-1.0414132,7.415605)"
     id="path4" />
  <path
     style="font-size:34.985px;font-family:'Trajan Pro 3';-inkscape-font-specification:'Trajan Pro 3, Normal';display:inline;fill:url(#linearGradient14);stroke-width:6.19816;stroke-linecap:square;paint-order:stroke fill markers;filter:url(#filter277)"
     d="m 87.342508,99.966439 2.343995,21.480791 q 0.34985,3.21862 1.88919,3.70841 1.014565,0.31486 2.16907,0.31486 0.384835,0 0.384835,0.20991 0,0.27988 -0.524775,0.27988 -3.463515,0 -6.052405,-0.20991 -0.97958,-0.07 -0.97958,-0.34985 0,-0.13994 0.244895,-0.24489 0.27988,-0.10496 0.13994,-1.25946 l -1.67928,-18.26217 -8.67628,18.40211 q -0.804655,1.71426 -0.97958,1.81922 -0.06997,0.035 -0.174926,0.035 -0.244895,0 -1.084535,-1.60931 -0.594745,-1.1545 -4.093245,-8.11652 -0.27988,-0.59474 -2.37898,-5.07282 -2.0991,-4.51307 -2.343995,-5.1428 l -1.434385,16.47794 q -0.06997,1.11952 -0.06997,1.64429 0,1.08454 0.944595,1.25946 0.594745,0.13994 1.25946,0.13994 0.34985,0 0.34985,0.17493 0,0.31486 -0.524775,0.31486 -0.76967,0 -2.064115,-0.035 l -1.294445,-0.07 q -0.06997,0 -1.224475,0.035 -1.154505,0.07 -1.714265,0.07 -0.594745,0 -0.594745,-0.27988 0,-0.20991 0.34985,-0.20991 0.524775,0 1.04955,-0.10495 0.97958,-0.17493 1.25946,-1.78424 0.03498,-0.17492 0.13994,-1.11952 l 2.51892,-22.740246 q 0.06997,-0.6997 0.384835,-0.6997 0.27988,0 0.524775,0.524775 L 76.112323,121.5522 86.397913,99.581624 q 0.244895,-0.55976 0.524775,-0.55976 0.314865,0 0.41982,0.944595 z"
     transform="matrix(0.97218711,0,0,0.94206234,-1.0414132,7.415605)"
     id="path3" />
  <path
     style="font-size:34.985px;font-family:'Trajan Pro 3';-inkscape-font-specification:'Trajan Pro 3, Normal';display:inline;fill:url(#linearGradient15);stroke-width:6.19816;stroke-linecap:square;paint-order:stroke fill markers;filter:url(#filter277)"
     d="m 42.31679,115.81464 v -6.15736 q 0,-6.43724 -0.06997,-7.55676 -0.06997,-0.94459 -0.384835,-1.36441 -0.27988,-0.45481 -1.11952,-0.62973 -0.104955,-0.035 -0.27988,-0.035 -0.174925,-0.035 -0.41982,-0.035 -0.20991,-0.035 -0.314865,-0.035 -0.454805,-0.06997 -0.454805,-0.209906 0,-0.27988 0.55976,-0.27988 1.74925,0 3.953306,0.104955 7.20691,0 8.011565,-0.03499 1.294445,-0.06997 1.60931,-0.20991 0.27988,-0.13994 0.384835,-0.13994 0.13994,0 0.13994,0.314865 0,0.06997 -0.13994,0.594746 -0.104955,0.48979 -0.13994,1.04955 l -0.13994,2.0991 q -0.06997,0.59475 -0.27988,0.59475 -0.27988,0 -0.27988,-0.45481 0,-0.6997 -0.174925,-1.1545 -0.34985,-1.08454 -2.51892,-1.29445 -0.90961,-0.10495 -4.792945,-0.10495 -0.20991,0 -0.20991,0.34985 v 9.65586 q 0,0.34985 0.20991,0.34985 4.75796,0 5.562615,-0.07 1.32943,-0.10496 1.74925,-0.59475 0.27988,-0.34985 0.41982,-0.34985 0.174925,0 0.174925,0.27988 0,0.07 -0.06997,0.31487 -0.03498,0.24489 -0.104955,0.6997 -0.06997,0.4548 -0.104955,0.94459 -0.06997,0.62973 -0.104955,1.50436 -0.03498,0.83964 -0.03498,0.87462 -0.06997,0.52478 -0.244895,0.52478 -0.244895,0 -0.244895,-0.55976 0,-0.55976 -0.13994,-0.97958 -0.244895,-0.97958 -1.81922,-1.15451 -1.574325,-0.17492 -5.002855,-0.17492 -0.244895,0 -0.244895,0.24489 v 3.07868 q 0,0.31487 0,1.81922 0,1.46937 0,2.65886 0,1.18949 0,1.50436 0.06997,1.1545 0.27988,1.74925 0.244895,0.55976 0.874625,0.80465 0.76967,0.31487 2.903755,0.31487 2.0991,0 3.14865,-0.31487 0.804655,-0.24489 1.18949,-0.80465 0.384835,-0.59475 0.594745,-1.78424 0.104955,-0.52477 0.314865,-0.52477 0.20991,0 0.20991,0.52477 0,0.2449 -0.174925,1.57433 -0.174925,1.32943 -0.27988,1.81922 -0.174925,0.66471 -0.48979,0.76967 -0.314865,0.13994 -1.3994,0.13994 -1.014565,0 -5.10781,-0.10496 -4.198201,-0.10495 -4.373126,-0.10495 -0.34985,0 -1.224475,0.07 -0.874625,0.07 -1.364415,0.035 -0.55976,0 -0.55976,-0.27988 0,-0.13994 0.384835,-0.20991 0.664715,-0.07 0.804655,-0.10495 0.62973,-0.13994 0.90961,-0.80466 0.314865,-0.66471 0.34985,-2.48393 0.06997,-2.72883 0.06997,-6.26232 z"
     transform="matrix(0.97218711,0,0,0.94206234,-1.0414132,7.415605)"
     id="path2" />
  <path
     style="font-size:34.985px;font-family:'Trajan Pro 3';-inkscape-font-specification:'Trajan Pro 3, Normal';display:inline;fill:url(#linearGradient98);stroke-width:6.19816;stroke-linecap:square;paint-order:stroke fill markers;filter:url(#filter277)"
     d="m 25.593961,101.01599 v 14.79865 q 0,6.12238 0.174925,7.59175 0.104955,0.87462 0.34985,1.36441 0.27988,0.45481 1.014565,0.55976 0.97958,0.13994 1.574325,0.13994 0.27988,0 0.27988,0.20991 0,0.27988 -0.55976,0.27988 -0.83964,0 -1.88919,-0.035 -1.014565,0 -1.714265,-0.035 -0.664715,-0.035 -0.6997,-0.035 -0.03498,0 -0.6997,0 -0.62973,0.035 -1.46937,0.07 -0.804655,0.035 -1.25946,0.035 -0.55976,0 -0.55976,-0.27988 0,-0.20991 0.27988,-0.20991 0.41982,0 1.04955,-0.13994 0.76967,-0.13994 1.014565,-1.92417 0.174925,-1.46937 0.174925,-7.59175 v -14.79865 q -0.83964,0 -2.58889,0.035 -1.74925,0.035 -2.58889,0.035 -1.644295,0.035 -2.413966,0.27988 -0.734685,0.20991 -1.154505,0.83964 -0.384835,0.59474 -0.594745,1.08453 -0.13994,0.34985 -0.34985,0.34985 -0.174925,0 -0.174925,-0.31486 0,-0.55976 0.76967,-3.638441 0.20991,-0.664715 0.34985,-0.664715 0.06997,0 0.524775,0.20991 0.454805,0.174925 1.014566,0.20991 1.67928,0.174925 2.763815,0.174925 h 13.119375 q 1.53934,0 2.483935,-0.174925 0.20991,-0.03499 0.41982,-0.06997 0.244895,-0.03499 0.34985,-0.06997 0.13994,-0.03498 0.20991,-0.03498 0.174925,0 0.174925,0.41982 0,0.594746 -0.06997,2.169076 -0.03498,1.57432 -0.03498,1.67928 0,0.4548 -0.244895,0.4548 -0.244895,0 -0.27988,-0.59474 0,-0.07 -0.03498,-0.17493 0,-0.13994 0,-0.20991 -0.174925,-1.8542 -4.303155,-1.92417 -0.734685,0 -2.204055,-0.035 -1.46937,-0.035 -2.204055,-0.035 z"
     transform="matrix(0.97218711,0,0,0.94206234,-1.0414132,7.415605)"
     id="text1" />
  <path
     style="display:inline;fill:#f9f8f4;fill-opacity:1;stroke:none;stroke-width:3.77953;stroke-linecap:square;paint-order:stroke fill markers"
     d="m 14.119564,156.77087 c -0.512855,0.91415 -0.458792,1.81113 0,2.69584 h 25.323261 c 0.498964,-0.94851 0.381596,-1.83539 0,-2.69584 z m 223.218316,0 c 0.51286,0.91415 0.4588,1.81113 0,2.69584 h -25.32326 c -0.49896,-0.94851 -0.38159,-1.83539 0,-2.69584 z"
     id="path300" />
  <path
     d="m 63.386028,163.52315 -0.411395,0.95655 q -2.403418,1.16224 -5.131621,1.16224 -3.90826,0 -6.354983,-2.1085 -2.435895,-2.10851 -2.435895,-5.51298 0,-2.34508 1.212534,-4.0936 1.223361,-1.7588 3.215384,-2.62277 2.002847,-0.87426 4.492874,-0.87426 1.439885,0 2.847292,0.28798 1.407407,0.288 2.349286,0.68913 l 0.07579,0.10285 q -0.249003,0.57599 -0.465527,2.84906 l -0.07579,0.0823 h -0.508833 l -0.08661,-0.0823 -0.108263,-1.74852 q -0.790313,-0.59655 -1.916238,-0.92569 -1.115099,-0.33941 -2.327634,-0.33941 -1.829629,0 -3.28034,0.75084 -1.450712,0.74055 -2.25185,2.15993 -0.80114,1.4091 -0.80114,3.4559 0,2.05708 0.94188,3.61018 0.94188,1.55309 2.565811,2.38621 1.634757,0.83312 3.810824,0.83312 0.963531,0 1.851281,-0.17486 0.887749,-0.17485 1.472363,-0.43197 0.595441,-0.25714 1.136751,-0.62742 z m 13.684323,-12.79504 0.09743,0.0926 q -0.09743,0.92569 -0.09743,3.22962 l -0.08661,0.0823 H 76.47491 l -0.08661,-0.0926 -0.119088,-0.94627 q -0.08661,-0.76111 -0.140741,-0.92568 -0.04331,-0.17485 -0.151567,-0.24685 -0.108261,-0.0823 -0.703703,-0.13371 -0.595441,-0.0515 -1.331623,-0.0515 h -2.046152 q -0.08661,2.3245 -0.08661,2.68449 v 5.99639 l 0.02166,2.00566 q 0.01082,1.16225 0.05413,1.51196 0.05413,0.33941 0.151567,0.45255 0.108263,0.10285 0.40057,0.18514 0.292307,0.072 1.450711,0.11314 l 0.07579,0.0617 v 0.51427 l -0.07579,0.0823 q -2.771514,-0.0823 -3.0963,-0.0823 -0.346439,0 -3.085468,0.0823 l -0.08661,-0.0823 v -0.51427 l 0.08661,-0.0617 q 1.017663,-0.0411 1.342448,-0.10286 0.335613,-0.0617 0.443875,-0.15428 0.119088,-0.10286 0.194871,-0.4217 0.07579,-0.31885 0.07579,-1.41938 l 0.02166,-2.17023 v -5.99639 q 0,-0.16457 -0.08661,-2.68449 h -1.61311 q -0.996011,0 -1.721367,0.0411 -0.725356,0.0411 -0.844444,0.216 -0.108262,0.16457 -0.205697,1.10053 l -0.108263,0.94627 -0.09744,0.0926 h -0.498005 l -0.08661,-0.0823 q -0.02165,-2.47878 -0.09744,-3.22961 l 0.09744,-0.0926 q 1.88376,0.0823 6.268373,0.0823 4.471223,0 6.279198,-0.0823 z m 1.309971,0.072 0.08661,-0.072 q 3.713389,0.0617 4.752704,0.0617 3.550996,0 6.322504,-0.0617 l 0.05413,0.072 q -0.270655,0.9874 -0.40057,3.09591 l -0.06495,0.0823 h -0.530484 l -0.09744,-0.0823 q 0.01082,-0.0926 0.01082,-0.16457 0,-0.87426 -0.140741,-1.66623 -0.682051,-0.288 -1.894586,-0.37028 -1.201708,-0.0926 -1.807975,-0.0926 -0.855271,0 -2.186894,0.11314 l -0.04331,1.64567 -0.03248,1.88222 -0.03248,2.08795 q 1.16923,0.0617 2.154414,0.0617 0.996011,0 1.667236,-0.0617 0.671224,-0.0617 0.779487,-0.12343 0.119088,-0.072 0.173218,-0.25714 0.06495,-0.19542 0.108263,-0.67883 l 0.04331,-0.6377 0.08661,-0.0823 h 0.498006 l 0.08661,0.0823 q -0.02165,1.12111 -0.05413,2.25251 l 0.05413,2.31421 -0.08661,0.0823 h -0.498006 l -0.08661,-0.0823 -0.07579,-0.61712 q -0.09743,-0.71998 -0.140741,-0.85369 -0.04331,-0.14399 -0.205697,-0.24685 -0.151567,-0.10285 -0.80114,-0.16456 -0.649571,-0.0617 -1.786323,-0.0617 -0.62792,0 -1.916238,0.0515 -0.05413,0.86397 -0.05413,2.87991 0,2.15994 0.05413,3.17819 H 84.3672 q 2.630767,0 3.291166,-0.0617 0.660398,-0.0617 1.25584,-0.29828 0.09743,-0.23656 0.31396,-1.09025 0.227351,-0.86397 0.259829,-1.07996 l 0.108262,-0.072 h 0.519663 l 0.08661,0.072 q -0.09743,0.44227 -0.194871,1.54281 -0.08661,1.10054 -0.08661,1.88223 l -0.07579,0.0823 q -2.067806,-0.0617 -5.413103,-0.0617 l -2.944728,-0.0206 q -1.028489,0 -2.143588,0.0823 l -0.08661,-0.0823 v -0.33942 l 0.08661,-0.10285 q 0.638746,-0.30857 0.725355,-0.38057 0.09743,-0.0823 0.151567,-1.79994 0.06495,-1.72795 0.06495,-2.63307 v -3.77474 l -0.01082,-2.33479 q 0,-0.76113 -0.02166,-1.23425 -0.02165,-0.48341 -0.07579,-0.68912 -0.05413,-0.20571 -0.129915,-0.288 -0.06495,-0.0823 -0.227351,-0.13371 -0.151566,-0.0617 -0.530483,-0.10285 l -0.822792,-0.0617 -0.08661,-0.072 z m 6.181763,-0.83312 z m -0.04331,15.91153 z m 7.166948,-0.61712 v -0.51427 l 0.08661,-0.0617 q 0.952706,-0.0309 1.320797,-0.0926 0.378917,-0.0617 0.498006,-0.19543 0.119088,-0.13371 0.162393,-0.43199 0.0433,-0.30856 0.06495,-1.53252 0.02166,-1.23425 0.02166,-2.01594 v -4.76214 q 0,-1.06969 -0.03248,-2.27308 -0.02165,-1.20339 -0.08661,-1.41938 -0.05413,-0.22628 -0.17322,-0.31886 -0.108261,-0.10285 -0.4547,-0.16456 -0.335613,-0.0617 -1.320797,-0.0926 l -0.08661,-0.072 v -0.51427 l 0.08661,-0.072 q 0.05413,0 1.418233,0.0411 1.288318,0.0411 1.71054,0.0411 0.25983,0 3.074642,-0.0823 l 0.08661,0.072 v 0.51427 l -0.08661,0.072 q -0.952705,0.0309 -1.331623,0.0926 -0.368091,0.0617 -0.487179,0.19542 -0.119089,0.12343 -0.162393,0.4217 -0.04331,0.29828 -0.06495,1.56338 -0.02166,1.26511 -0.02166,1.99538 v 7.89919 l 0.162393,0.072 q 2.284329,-3.12676 5.174925,-7.44663 2.8906,-4.31988 3.54017,-5.45126 1.13676,0.0823 2.11111,0.0823 1.10428,0 2.10029,-0.0823 l 0.0866,0.072 v 0.51427 l -0.0866,0.072 q -1.06096,0.0309 -1.38575,0.10285 -0.31396,0.0617 -0.42223,0.16457 -0.10826,0.10285 -0.16239,0.3497 -0.0542,0.24685 -0.0758,1.5531 -0.0216,1.30625 -0.0216,2.09822 v 4.76214 q 0,0.84341 0.0216,2.0468 0.0217,1.19311 0.065,1.50167 0.0433,0.30856 0.17321,0.44227 0.12991,0.12343 0.50883,0.18515 0.38975,0.0617 1.29915,0.0823 l 0.0866,0.072 v 0.51428 l -0.0866,0.0823 q -0.0542,0 -1.41823,-0.0411 -1.25584,-0.0411 -1.71054,-0.0411 -0.29231,0 -3.07465,0.0823 l -0.0866,-0.0823 v -0.51428 l 0.0866,-0.072 q 0.9527,-0.0206 1.3208,-0.0823 0.37891,-0.072 0.498,-0.19543 0.11909,-0.12343 0.1624,-0.42171 0.0433,-0.30856 0.0649,-1.56337 0.0216,-1.26511 0.0216,-1.99538 l 0.0108,-7.6729 -0.21653,-0.072 q -0.94188,1.30625 -4.37378,6.28439 l -4.352139,6.38724 q -0.920227,-0.0823 -2.132762,-0.0823 -0.844444,0 -2.0245,0.0823 z m 5.867804,-17.82461 1.060967,-0.7817 0.270656,0.13371 q 0.422221,1.79995 2.12194,1.79995 0.86609,0 1.40741,-0.47313 0.55213,-0.48342 0.55213,-1.4091 l 0.28148,-0.0823 0.46553,1.10054 q -1.33162,1.4811 -3.10712,1.4811 -0.985189,0 -1.743023,-0.45255 -0.757834,-0.46285 -1.30997,-1.31654 z m 16.845583,10.37797 0.99601,-0.80226 q 0.3356,-0.26742 0.79031,-0.67884 l 0.93105,-0.85369 2.41425,-2.29364 q 1.5698,-1.49139 1.72136,-1.71767 v -0.65827 l 0.10826,-0.0823 q 0.87693,0.0411 1.47237,0.0411 l 2.03532,-0.0309 0.10827,0.0926 v 0.47313 l -0.0866,0.0926 q -0.97436,0.0102 -1.46154,0.11313 -0.47635,0.0926 -1.00684,0.4217 -0.53048,0.31885 -1.84045,1.43996 l -4.34131,3.73361 6.70142,5.97582 q 1.49402,1.32682 1.73219,1.47082 0.249,0.14399 0.81197,0.15427 l 0.0758,0.0823 v 0.43199 l -0.0758,0.0823 q -1.95954,-0.0411 -2.36012,-0.0926 -0.40056,-0.0515 -0.81196,-0.24686 -0.40057,-0.19542 -7.91395,-6.73695 v 2.1908 l 0.0108,2.01594 q 0.0108,1.15197 0.065,1.50168 0.0542,0.33941 0.15156,0.45255 0.10827,0.10285 0.38975,0.18514 0.2923,0.072 1.46154,0.11314 l 0.0758,0.0617 v 0.51427 l -0.0758,0.0823 q -0.15157,0 -1.91624,-0.0617 -0.77949,-0.0206 -1.20171,-0.0206 -0.17322,0 -3.0963,0.0823 l -0.0866,-0.0823 v -0.51427 l 0.0866,-0.0617 q 1.49402,-0.0515 1.7322,-0.21599 0.23818,-0.16457 0.27065,-0.6377 0.0433,-0.48342 0.0649,-3.41476 v -4.76214 l -0.0216,-2.01594 q 0,-1.16226 -0.0542,-1.50167 -0.0542,-0.33942 -0.16238,-0.45257 -0.0975,-0.11313 -0.38975,-0.18513 -0.28148,-0.072 -1.43989,-0.11314 l -0.0866,-0.072 v -0.51427 l 0.0866,-0.072 q 2.67408,0.0823 3.0963,0.0823 0.46552,0 3.11795,-0.0823 l 0.0758,0.072 v 0.51427 l -0.0758,0.072 q -1.06097,0.0309 -1.38575,0.10285 -0.31397,0.0617 -0.42224,0.16457 -0.10825,0.10285 -0.18404,0.4217 -0.0649,0.31885 -0.0758,1.39882 l -0.0108,2.18051 z m 33.45296,6.41809 q -0.87692,0.58628 -1.8188,1.32683 -0.34643,0.072 -0.75783,0.072 -0.96353,0 -1.93789,-0.38055 -0.97436,-0.38057 -2.06781,-1.23426 -1.42906,1.00797 -2.40341,1.31653 -0.97436,0.30856 -2.07864,0.30856 -2.19772,0 -3.36695,-1.24453 -1.1584,-1.25482 -1.1584,-2.86962 0,-2.7565 3.39942,-4.49473 -0.64957,-1.4811 -0.64957,-2.68449 0,-0.4937 0.14074,-0.93597 0.15158,-0.45257 0.33562,-0.69941 0.18405,-0.24686 0.63875,-0.61713 0.45469,-0.38056 0.87692,-0.70969 0.42222,-0.33942 0.80114,-0.47313 0.38974,-0.14399 0.83361,-0.14399 0.99602,0 1.49402,0.54512 0.50883,0.53484 0.50883,1.38853 0,2.14966 -3.15042,4.18616 0.68205,1.30625 2.05698,2.94163 1.37492,1.63538 2.42506,2.41707 1.10428,-1.15196 1.10428,-2.51992 0,-0.54513 -0.14074,-0.92569 -0.12992,-0.38056 -0.34644,-0.50399 -0.21652,-0.13371 -0.76866,-0.13371 -0.58462,-0.0102 -1.1584,-0.0206 l -0.0975,-0.13371 0.7037,-0.97712 q 0.63875,0.0926 1.85128,0.0926 0.63875,0 1.93789,-0.0515 1.3208,-0.0411 2.49003,-0.0411 l 0.0975,0.0926 q -0.1624,0.60684 -0.21653,1.24454 l -0.10826,0.0823 q -1.24501,-0.19543 -2.6849,-0.19543 -0.0542,0 -0.32478,0.0102 0.12991,0.43199 0.12991,0.91541 0,1.81023 -1.80798,3.54847 1.9812,1.34739 3.89744,1.34739 0.28148,0 0.48717,-0.0617 0.20571,-0.072 0.66041,-0.30856 l 0.1299,0.0617 0.0758,0.31884 z m -10.71794,-8.04318 q 0.88775,-0.59656 1.46154,-1.39882 0.57378,-0.80226 0.57378,-1.53253 0,-0.50398 -0.33561,-0.92568 -0.32478,-0.43199 -0.85526,-0.43199 -0.55214,0 -0.98519,0.44227 -0.42222,0.43199 -0.42222,1.30625 0,0.99769 0.56296,2.5405 z m 3.43191,7.30263 q -2.01368,-2.02622 -2.8906,-3.1679 -0.8661,-1.15197 -1.65641,-2.48906 -1.07179,0.71997 -1.46153,1.46052 -0.38975,0.74055 -0.38975,1.52225 0,1.4091 1.07179,2.51992 1.08263,1.11082 2.60912,1.11082 1.39658,0 2.71738,-0.95655 z m 20.41822,1.7691 -0.0866,0.0823 q -0.0758,0 -1.41823,-0.0411 -1.28832,-0.0411 -1.71054,-0.0411 -0.22735,0 -3.07464,0.0823 l -0.0866,-0.0823 v -0.51427 l 0.0866,-0.0617 q 0.9527,-0.0309 1.32079,-0.0926 0.37892,-0.0617 0.49801,-0.19543 0.11909,-0.13371 0.1624,-0.43199 0.0433,-0.30856 0.0649,-1.53252 0.0216,-1.23425 0.0216,-2.01594 v -4.76214 q 0,-1.04912 -0.0325,-2.25251 -0.0216,-1.21368 -0.0866,-1.43995 -0.0542,-0.22628 -0.17322,-0.31886 -0.10826,-0.10285 -0.44388,-0.15428 -0.32478,-0.0617 -1.33161,-0.10285 l -0.0866,-0.072 v -0.51427 l 0.0866,-0.072 0.64957,0.0103 0.43305,0.0102 0.747,0.0102 1.51567,0.0103 2.25186,0.0206 q 1.28831,0.0103 2.81481,0.0206 l 4.34131,-0.0309 2.54415,-0.0206 q 0.73619,-0.0102 1.46154,-0.0309 l 0.0866,0.072 v 0.51428 l -0.0866,0.072 q -1.06097,0.0309 -1.38576,0.10285 -0.31395,0.0617 -0.42222,0.16457 -0.10826,0.10285 -0.16239,0.3497 -0.0542,0.24684 -0.0758,1.57366 -0.0217,1.32682 -0.0217,2.07766 v 4.76214 q 0,0.80227 0.0217,2.01594 0.0216,1.21368 0.0542,1.53253 0.0433,0.30856 0.17322,0.44227 0.12991,0.12343 0.51965,0.18514 0.38975,0.0617 1.29915,0.0926 l 0.0866,0.0617 v 0.51427 l -0.0866,0.0823 q -0.0866,0 -1.41823,-0.0411 -1.28832,-0.0411 -1.72137,-0.0411 -0.21652,0 -3.07464,0.0823 l -0.0758,-0.0823 v -0.51427 l 0.0758,-0.0617 q 1.08262,-0.0411 1.39658,-0.10286 0.31396,-0.072 0.41139,-0.17485 0.10826,-0.10285 0.1624,-0.34971 0.0542,-0.24684 0.0758,-1.57367 0.0325,-1.32681 0.0325,-2.06736 v -8.69117 l -0.11909,-0.11314 h -8.24956 l -0.11909,0.11314 v 8.69117 q 0,0.79197 0.0216,2.01594 0.0216,1.22396 0.0649,1.53253 0.0433,0.30856 0.16239,0.44227 0.12991,0.12342 0.50884,0.18514 0.38974,0.0617 1.30996,0.0926 l 0.0866,0.0617 z m 11.57322,0.0823 -0.0975,-0.0823 v -0.53484 l 0.0975,-0.0823 q 0.79031,-0.0103 1.01766,-0.072 0.22735,-0.072 0.40057,-0.26741 0.18404,-0.20572 0.72535,-1.31654 l 1.13676,-2.34507 2.94473,-6.33582 q 0.83362,-1.86165 1.6564,-3.72332 h 0.70371 l 4.62279,10.32656 0.61709,1.37824 q 0.27066,0.58627 0.61709,1.27539 0.35727,0.68913 0.48718,0.81256 0.14074,0.12341 0.33561,0.19541 0.20571,0.0617 0.89858,0.072 l 0.0866,0.0823 v 0.53484 l -0.0866,0.0823 q -1.14757,-0.0926 -2.0678,-0.0926 -1.79715,0.0515 -3.5943,0.0926 l -0.0866,-0.0823 v -0.53484 l 0.0866,-0.0823 q 1.21253,-0.0206 1.51567,-0.0926 0.30312,-0.0823 0.30312,-0.36 0,-0.22628 -0.15156,-0.59655 l -1.33163,-3.13705 h -6.26836 l -1.18006,2.63306 q -0.31396,0.70969 -0.31396,1.03883 0,0.25714 0.29231,0.38057 0.29231,0.12341 1.47237,0.13371 l 0.0975,0.0823 v 0.53484 l -0.0866,0.0823 q -1.39658,-0.0823 -2.44672,-0.0823 -1.19089,0 -2.40342,0.0823 z m 4.93675,-5.77013 h 5.47805 l -2.71737,-6.20209 z m 3.28034,-9.60657 z m -0.24901,15.91153 z m 13.57606,-8.89688 h 1.28832 q 1.7755,0 3.03134,0.15429 1.25584,0.15427 2.14359,0.61712 0.88774,0.46284 1.3641,1.23425 0.47635,0.7714 0.47635,1.73823 0,0.79197 -0.34644,1.57367 -0.34643,0.77141 -1.00683,1.4091 -0.6604,0.62741 -1.43989,0.99769 -0.76866,0.35998 -1.54814,0.50399 -0.77949,0.13371 -1.94872,0.13371 -0.60626,0 -1.75384,-0.0411 -1.08263,-0.0411 -1.53733,-0.0411 -1.25584,0 -2.85811,0.0823 l -0.0866,-0.0823 v -0.51427 l 0.0866,-0.0617 q 0.9527,-0.0309 1.32079,-0.0926 0.37891,-0.0617 0.49801,-0.19543 0.11909,-0.13371 0.16238,-0.43199 0.0433,-0.30856 0.0649,-1.53252 0.0216,-1.23425 0.0216,-2.01594 v -4.76214 q 0,-1.04912 -0.0325,-2.25251 -0.0216,-1.21368 -0.0866,-1.43995 -0.0542,-0.22628 -0.17322,-0.31886 -0.10826,-0.10285 -0.44388,-0.15428 -0.32478,-0.0617 -1.33161,-0.10285 l -0.0866,-0.072 v -0.51427 l 0.0866,-0.072 q 1.52649,0.0823 8.21708,0.0823 0.40057,0 2.86895,-0.0823 l 0.17321,0.21598 q -0.17321,0.97712 -0.2923,2.78735 l -0.0649,0.0823 h -0.40058 l -0.0975,-0.0823 -0.14074,-0.78169 q -0.0649,-0.43199 -0.21653,-0.69941 -0.14074,-0.2777 -0.42222,-0.40113 -0.28148,-0.13371 -0.69288,-0.17485 -0.40057,-0.0515 -1.08261,-0.0515 h -3.44274 l -0.17322,0.17485 q -0.0975,1.22396 -0.0975,2.72563 z m 0,7.39522 0.17322,0.17485 q 0.93106,0.0206 1.30997,0.0206 1.5265,0 2.44672,-0.42171 0.93106,-0.4217 1.47237,-1.32682 0.54131,-0.90511 0.54131,-2.01594 0,-0.95654 -0.498,-1.73823 -0.48719,-0.78169 -1.43989,-1.09025 -0.94188,-0.30856 -3.08547,-0.30856 h -0.92023 z"
     id="text28"
     style="font-size:21.6112px;font-family:'Palatino Linotype';-inkscape-font-specification:'Palatino Linotype';font-variant-caps:all-small-caps;fill:#f9f8f4;stroke-width:4.5945;stroke-linecap:square;paint-order:stroke fill markers"
     aria-label="СТЕЙК &amp; ПАБ" />
  <g
     id="g83"
     style="display:inline;fill:url(#linearGradient106);fill-opacity:1"
     transform="translate(0.70340416,0.50027524)">
    <g
       id="g5"
       style="display:inline;fill:url(#linearGradient3);fill-opacity:1">
      <path
         style="display:inline;fill:url(#linearGradient1);fill-opacity:1;stroke:none;stroke-width:3.77953;stroke-linecap:square;paint-order:stroke fill markers;filter:url(#filter281)"
         d="m 125.02907,18.599806 h -6.1955 c 2.14521,0.534737 2.43375,0.759992 5.78247,1.004944 v 5.389832 c -4.56537,0.923509 -3.95428,0.186522 -3.85446,18.751672 h 4.26749 z m 0,0 h 6.1955 c -2.14521,0.534737 -2.43375,0.759992 -5.78247,1.004944 v 5.389832 c 4.56537,0.923509 3.95428,0.186522 3.85446,18.751672 h -4.26749 z m 54.46036,0 h 6.1955 c -2.14521,0.534737 -2.43375,0.759992 -5.78247,1.004944 v 5.389832 c 4.56537,0.923509 3.95428,0.186522 3.85446,18.751672 h -4.26749 z m 0,0 h -6.1955 c 2.14521,0.534737 2.43375,0.759992 5.78247,1.004944 v 5.389832 c -4.56537,0.923509 -3.95428,0.186522 -3.85446,18.751672 h 4.26749 z"
         id="path8"
         transform="matrix(1.1462365,0,0,1.4438868,-49.621014,27.606762)" />
      <path
         style="display:inline;fill:url(#linearGradient2);fill-opacity:1;stroke:none;stroke-width:3.77953;stroke-linecap:square;paint-order:stroke fill markers;filter:url(#filter283)"
         d="m 125.02907,18.599806 h -6.1955 c 2.14521,0.534737 2.36484,0.759992 5.71356,1.004944 v 7.290722 c -3.58367,0.844667 -3.67298,1.780775 -4.33152,16.576736 h 4.81346 z m 0,0 h 6.1955 c -2.14521,0.534737 -2.36484,0.759992 -5.71356,1.004944 v 7.290722 c 3.58367,0.844667 3.67298,1.780775 4.33152,16.576736 h -4.81346 z m 29.4458,0 h 6.1955 c -2.14521,0.534737 -2.36484,0.759992 -5.71356,1.004944 v 7.290722 c 3.58367,0.844667 3.67298,1.780775 4.33152,16.576736 h -4.81346 z m 0,0 h -6.1955 c 2.14521,0.534737 2.36484,0.759992 5.71356,1.004944 v 7.290722 c -3.58367,0.844667 -3.67298,1.780775 -4.33152,16.576736 h 4.81346 z"
         id="path10"
         transform="translate(-14.847872)" />
    </g>
    <path
       style="display:inline;fill:url(#linearGradient4);fill-opacity:1;stroke:none;stroke-width:3.77953;stroke-linecap:square;paint-order:stroke fill markers;filter:url(#filter287)"
       d="m 125.02907,2.037306 h -11.89248 c 0,0 0.91778,0.4153097 -0.17479,1.0631409 -0.68025,0.6588408 0.0868,0.7368496 0.50656,1.9895469 -6.50701,0.8396893 -3.78439,23.7630292 -4.48712,38.3822142 h 16.04783 z m 0,0 h 11.89248 c 0,0 -0.91778,0.4153097 0.17479,1.0631409 0.68025,0.6588408 -0.0868,0.7368496 -0.50656,1.9895469 6.50701,0.8396893 3.78439,23.7630292 4.48712,38.3822142 h -16.04783 z"
       id="path14"
       transform="translate(0,47.300371)" />
    <path
       id="path16"
       style="display:inline;opacity:1;fill:url(#linearGradient107);fill-opacity:1;stroke:#981312;stroke-width:0.88;stroke-linecap:butt;stroke-linejoin:round;stroke-dasharray:none;stroke-opacity:1;paint-order:markers stroke fill;filter:url(#filter300)"
       d="m 130.76562,58.013672 c -0.0673,0.0028 -0.13164,0.0072 -0.19335,0.01563 -0.45659,0.03311 -0.89603,0.22034 -1.31055,0.607422 -1.50186,1.82091 -0.5529,3.192899 0.96094,4.222656 0.50557,0.38959 1.48119,0.579235 1.47656,0.04102 -0.008,-2.183982 -1.4085,-2.689052 -1.80274,-2.158204 1.05136,-2.827886 4.32762,4.658569 4.33594,11.1875 -6.9e-4,6.528937 -3.26761,14.018063 -4.32226,11.191407 0.39486,0.530388 1.79574,0.02383 1.80078,-2.160157 0.004,-0.538224 -0.97145,-0.347211 -1.47657,0.04297 -1.51263,1.031524 -2.46101,2.405455 -0.95703,4.22461 0.41497,0.386597 0.85393,0.570935 1.31055,0.603515 0.49382,0.0671 1.14247,-0.0094 2.33203,-0.824219 2.61969,-1.961623 4.78124,-6.078711 4.78125,-13.080078 -0.008,-7.001362 -2.17294,-11.117608 -4.79492,-13.076172 -1.0417,-0.71177 -1.66925,-0.857477 -2.14063,-0.83789 z" />
    <path
       style="display:inline;fill:url(#linearGradient5);fill-opacity:1;stroke:none;stroke-width:3.77953;stroke-linecap:square;paint-order:stroke fill markers;filter:url(#filter279)"
       d="m 125.02907,18.599806 h -6.1955 c 2.14521,0.534737 2.36484,0.759992 5.71356,1.004944 v 7.290722 c -3.58367,0.844667 -3.67298,1.780775 -4.33152,16.576736 h 4.81346 z m 0,0 h 6.1955 c -2.14521,0.534737 -2.36484,0.759992 -5.71356,1.004944 v 7.290722 c 3.58367,0.844667 3.67298,1.780775 4.33152,16.576736 h -4.81346 z"
       id="path1" />
  </g>
</svg>
