<svg xmlns="http://www.w3.org/2000/svg" version="1.1" viewBox="-5.0 -10.0 110.0 135.0">
 <path d="m89.371 42.023-5.8906-5.8906c-0.80859-0.80859-1.8867-1.2539-3.0312-1.2539s-2.2227 0.44531-3.0312 1.2539c-0.30859 0.35938-1.2266 1.0469-1.2656 1.5625l-0.98438 6.1094c-6.0508-4.1758-13.684-5.5977-20.934-3.7578-3.8398-4.3086-8.9609-7.1641-14.555-8.1836l3.6211-5.0117c0.33594-0.38672 0.17578-1.5312 0.21094-2 0-2.3633-1.9219-4.2852-4.2852-4.2852h-8.332c-2.3633 0-4.2852 1.9219-4.2852 4.2852 0.035156 0.47266-0.12891 1.6094 0.21094 2l3.6211 5.0117c-11.969 2.1836-21.07 12.676-21.07 25.258 0 14.164 11.523 25.688 25.688 25.688 2.1484 0 4.2734-0.28125 6.332-0.80469 0.33203 0.37109 0.66797 0.73828 1.0117 1.082 4.8516 4.8555 11.301 7.5273 18.164 7.5273 6.8633 0 13.312-2.6719 18.164-7.5273 4.8516-4.8516 7.5234-11.301 7.5234-18.16 0-5.293-1.5977-10.34-4.5508-14.598l6.0938-0.98047c0.51172-0.035156 1.207-0.96094 1.5625-1.2656 0.80859-0.80859 1.2539-1.8867 1.2539-3.0312s-0.44531-2.2188-1.2539-3.0312zm-10.379-4.3203c0.77734-0.78125 2.1367-0.78125 2.918 0l5.8906 5.8906c0.39062 0.39062 0.60547 0.90625 0.60547 1.4609 0 0.55078-0.21484 1.0703-0.60547 1.457l-0.16797 0.16797-8.8086-8.8086zm-50.156-12.852c0-1.1367 0.92578-2.0625 2.0625-2.0625h8.332c1.1367 0 2.0625 0.92578 2.0625 2.0625v0.23828h-12.457zm4.1094 6.6758-3.0469-4.2148h10.332l-3.0469 4.2148c-1.418-0.11328-2.8242-0.11328-4.2383 0zm2.1211 49.062c-12.941 0-23.469-10.527-23.469-23.469 0-12.109 9.2266-22.105 21.023-23.332 0.81641-0.070312 1.6172-0.12891 2.4453-0.12891 6.9336 0 13.473 3.0391 17.941 8.3438 3.5586 4.1914 5.5312 9.5977 5.5234 15.117 0 8.3203-4.3945 15.984-11.523 20.203-0.64844-0.71094-1.25-1.4688-1.7812-2.2773 6.4766-3.6641 10.449-10.43 10.449-17.93 0.015625-5.4336-2.2109-10.773-6.0703-14.578-3.8906-3.8867-9.0508-6.0273-14.543-6.0273-11.363 0-20.609 9.2422-20.609 20.605 0 11.363 9.2461 20.609 20.609 20.609 1.043 0 2.0859-0.078124 3.1016-0.23437 0.51953 0.89453 1.0781 1.7617 1.6797 2.6016-1.5625 0.32422-3.168 0.48828-4.7812 0.48828zm23.469-33.926c5.543-0.61328 11.078 1.2969 15.043 5.2656 3.4688 3.4648 5.3789 8.082 5.3789 13 0 4.918-1.9102 9.5352-5.3789 13.004-6.8203 6.8203-17.707 7.1484-24.926 0.98828 7.5-4.6797 12.102-12.891 12.102-21.797 0-3.6094-0.76562-7.1953-2.2188-10.457zm-7.0117 2.2773c1.2656 2.5273 1.9336 5.332 1.9336 8.1797 0 6.6914-3.5508 12.719-9.3281 15.992-3.4961-7.0195-2.1562-15.586 3.4492-21.184 1.1914-1.1914 2.5195-2.1836 3.9453-2.9883zm-4.5469-5.8008c-1.6445 1.0273-3.1758 2.2383-4.5625 3.625-7.6016 7.6016-9.6367 18.93-5.2969 28.629-0.67578 0.074219-1.3633 0.11719-2.0508 0.11719-10.141 0-18.391-8.25-18.391-18.391 0-10.137 8.25-18.383 18.391-18.383 4.4102 0 8.5859 1.5547 11.91 4.4023zm30.195 38.375c-4.4336 4.4336-10.324 6.8789-16.594 6.8789-8.6445 0.082031-16.883-4.9648-20.824-12.641-4.7461-9.125-3.0469-20.141 4.2305-27.418 1.3984-1.3984 2.9531-2.6094 4.6367-3.6055 0.65234 0.71094 1.2578 1.4648 1.7852 2.2734-1.5977 0.89844-3.0742 2.0234-4.3984 3.3516-6.5664 6.5625-7.9258 16.766-3.3086 24.816 6.4648 11.652 23.145 13.91 32.453 4.3281 3.8867-3.8867 6.0273-9.0625 6.0273-14.574s-2.1406-10.688-6.0273-14.57c-4.6406-4.6406-11.191-6.7773-17.676-5.8008-0.51562-0.89453-1.0781-1.7617-1.6797-2.6055 8.5352-1.8125 17.637 1.4688 23.07 8.2773 7.4102 9.2031 6.8477 22.75-1.6953 31.289zm3.0039-33.191c-0.91797-1.082-1.9219-2.0742-3-3l0.82812-5.1328 7.3047 7.3047zm-29.77-25.988 10.805 9.6016c0.21094 0.1875 0.47266 0.28125 0.73828 0.28125s0.52734-0.09375 0.73828-0.28125l10.805-9.6016c1.6523-1.4688 2.5586-3.5781 2.4883-5.7852-0.070313-2.207-1.1133-4.2539-2.8555-5.6133-2.8867-2.25-7.0547-2.0391-9.6992 0.49219l-1.4766 1.4141-1.4766-1.4141c-2.6406-2.5312-6.8125-2.7461-9.6992-0.49219-1.7422 1.3594-2.7812 3.4062-2.8555 5.6133-0.070313 2.2109 0.83594 4.3164 2.4883 5.7852zm1.7344-9.6484c0.9375-0.73047 2.0664-1.0898 3.1914-1.0898 1.3047 0 2.6094 0.48438 3.6016 1.4375l2.2422 2.1484c0.42969 0.41016 1.1055 0.41016 1.5352 0l2.2422-2.1484c1.8516-1.7734 4.7734-1.9219 6.7969-0.34766 1.2227 0.95312 1.9492 2.3867 2 3.9336s-0.58594 3.0273-1.7422 4.0547l-10.066 8.9453-10.066-8.9453c-1.1562-1.0273-1.793-2.5078-1.7422-4.0547 0.050782-1.5469 0.77734-2.9805 2-3.9336z"/>
<text x="0.0" y="117.5" font-size="5.0" font-weight="bold" font-family="Arbeit Regular, Helvetica, Arial-Unicode, Arial, Sans-serif" fill="#000000">Created by Garis Tanam</text><text x="0.0" y="122.5" font-size="5.0" font-weight="bold" font-family="Arbeit Regular, Helvetica, Arial-Unicode, Arial, Sans-serif" fill="#000000">from Noun Project</text></svg>