<?xml version="1.0" encoding="UTF-8" standalone="no"?>
<svg
   data-name="Layer 1"
   viewBox="0 0 88 75"
   x="0px"
   y="0px"
   version="1.1"
   id="svg3"
   width="88"
   height="75"
   xmlns="http://www.w3.org/2000/svg"
   xmlns:svg="http://www.w3.org/2000/svg"
   xmlns:rdf="http://www.w3.org/1999/02/22-rdf-syntax-ns#"
   xmlns:cc="http://creativecommons.org/ns#"
   xmlns:dc="http://purl.org/dc/elements/1.1/">
  <defs
     id="defs3" />
  <title
     id="title1">02</title>
  <path
     id="path15"
     style="fill:#ffffff;fill-opacity:1;stroke-width:0"
     d="m 23.5,12.300781 a 5.8,5.8 0 0 0 -4.400391,9.5 l 1.300782,1.59961 A 24.5,24.5 0 1 0 44,65.300781 24.5,24.5 0 1 0 59.900391,22.199219 24.4,24.4 0 0 0 44,28.099609 23.5,23.5 0 0 0 35.699219,23.400391 L 37,21.800781 a 5.8,5.8 0 0 0 -4.400391,-9.5 z m 0,4 h 9.099609 a 1.9,1.9 0 0 1 1.5,0.798828 2,2 0 0 1 -0.199218,2.201172 l -2.59961,3.09961 a 16.7,16.7 0 0 0 -3.201172,-0.201172 17.7,17.7 0 0 0 -3.298828,0.201172 l -2.601562,-3.09961 A 1.8,1.8 0 0 1 22.099609,17.099609 1.6,1.6 0 0 1 23.5,16.300781 Z m 4.279297,9.900391 A 20.6,20.6 0 0 1 41.199219,30.900391 24.6,24.6 0 0 0 35.400391,46.699219 24.1,24.1 0 0 0 41.199219,62.400391 20.5,20.5 0 0 1 7.5,46.699219 20.6,20.6 0 0 1 27.779297,26.201172 Z m 31.943359,0 A 20.5,20.5 0 1 1 59.900391,67.199219 20.5,20.5 0 0 1 46.800781,62.400391 24.1,24.1 0 0 0 52.599609,46.699219 24.6,24.6 0 0 0 46.800781,30.900391 20.5,20.5 0 0 1 59.722656,26.201172 Z M 44,33.800781 A 20.1,20.1 0 0 1 48.599609,46.699219 20.3,20.3 0 0 1 44,59.599609 20.3,20.3 0 0 1 39.400391,46.699219 20.1,20.1 0 0 1 44,33.800781 Z" />
  <metadata
     id="metadata3">
    <rdf:RDF>
      <cc:Work
         rdf:about="">
        <dc:title>02</dc:title>
      </cc:Work>
    </rdf:RDF>
  </metadata>
  <path
     d="m 59.336763,2.942446 a 6.9422,6.9422 0 0 0 -4.178176,1.671019 1.3498722,1.3498722 0 0 1 -1.541708,0 7.0064797,7.0064797 0 0 0 -4.178175,-1.6069899 c -2.121228,0 -3.793251,1.4779289 -4.307489,3.9848339 -0.771355,3.921058 1.800082,9.320798 9.256518,12.4705 7.456438,-3.085422 10.027874,-8.485163 9.256518,-12.4705 C 63.130014,4.484404 61.52227,2.942446 59.336763,2.942446 Z"
     id="path4"
     style="fill:#ffffff;fill-opacity:1;stroke-width:0.642796" />
</svg>
