<?xml version="1.0" encoding="UTF-8" standalone="no"?>
<svg
   version="1.1"
   x="0px"
   y="0px"
   viewBox="0 0 72 64"
   xml:space="preserve"
   id="svg10"
   width="72"
   height="64"
   xmlns="http://www.w3.org/2000/svg"
   xmlns:svg="http://www.w3.org/2000/svg"><defs
     id="defs10" /><g
     id="g9"
     transform="translate(0,-4)"
     style="fill:#ffffff;fill-opacity:1;stroke:#ffffff;stroke-width:0;stroke-dasharray:none;stroke-opacity:1"><g
       id="g8"
       style="fill:#ffffff;fill-opacity:1;stroke:#ffffff;stroke-width:0;stroke-dasharray:none;stroke-opacity:1"><path
         d="m 40,7 c -5.52588,0 -10.89893,1.56543 -15.53809,4.52734 -0.46533,0.29688 -0.60205,0.91504 -0.30469,1.38086 0.29688,0.46582 0.91699,0.60254 1.38086,0.30469 C 29.85547,10.45703 34.85645,9 40,9 54.8877,9 67,21.1123 67,36 67,50.8877 54.8877,63 40,63 25.1123,63 13,50.8877 13,36 c 0,-1.76563 0.17188,-3.51953 0.51074,-5.21387 0.1084,-0.54199 -0.24268,-1.06836 -0.78418,-1.17676 -0.5459,-0.11035 -1.06836,0.24219 -1.17676,0.78418 C 11.18506,32.2168 11,34.10352 11,36 11,51.99023 24.00928,65 40,65 55.99072,65 69,51.99023 69,36 69,20.00977 55.99072,7 40,7 Z"
         id="path1"
         style="fill:#ffffff;fill-opacity:1;stroke:#ffffff;stroke-width:0;stroke-dasharray:none;stroke-opacity:1" /><path
         d="m 50.72998,51.35999 c 0.88,0.34998 1.81,0.51001 2.73004,0.51001 1.95996,0 3.88,-0.70001 5.21997,-1.62 2.56,-1.76001 4.31,-5.16003 4.92999,-9.57001 C 64.63,33.42999 62.38,25.22998 57.88,19.78998 53.27001,14.20996 44.67999,9.46997 35.89001,11.45001 28.56,13.09998 25.47998,17.02997 24.19,20.02997 c -1.59003,3.70001 -1.90997,9.36005 1.15002,13.04004 2.50995,3.01996 5.94995,3.16998 9.26996,3.31 3.22003,0.13 6.26001,0.26001 8.79999,2.76001 1.87006,1.83997 2.5,4.01996 3.11005,6.12 0.69995,2.43999 1.42999,4.95995 4.20996,6.09997 z M 46,34 c 0,-0.54999 0.45001,-1 1,-1 h 3 v -5 h -5 v 6 c 0,0.54999 -0.45001,1 -1,1 -0.54999,0 -1,-0.45001 -1,-1 v -6 h -5 v 3 c 0,0.54999 -0.45001,1 -1,1 -0.54999,0 -1,-0.45001 -1,-1 v -3 h -5 v 3 c 0,0.54999 -0.45001,1 -1,1 -0.54999,0 -1,-0.45001 -1,-1 v -3 h -2 c -0.54999,0 -1,-0.45001 -1,-1 0,-0.54999 0.45001,-1 1,-1 h 2 v -4 h -1 c -0.54999,0 -1,-0.45001 -1,-1 0,-0.54999 0.45001,-1 1,-1 h 1 v -1 c 0,-0.54999 0.45001,-1 1,-1 0.54999,0 1,0.45001 1,1 v 1 h 5 v -4 c 0,-0.54999 0.45001,-1 1,-1 0.54999,0 1,0.45001 1,1 v 4 h 5 v -4 c 0,-0.54999 0.45001,-1 1,-1 0.54999,0 1,0.45001 1,1 v 4 h 5 v -1 c 0,-0.54999 0.45001,-1 1,-1 0.54999,0 1,0.45001 1,1 v 1 h 1 c 0.54999,0 1,0.45001 1,1 0,0.54999 -0.45001,1 -1,1 h -1 v 4 h 3 c 0.54999,0 1,0.45001 1,1 0,0.54999 -0.45001,1 -1,1 h -3 v 5 h 3 c 0.54999,0 1,0.45001 1,1 0,0.54999 -0.45001,1 -1,1 h -3 v 5 h 5 V 28 c 0,-0.54999 0.45001,-1 1,-1 0.54999,0 1,0.45001 1,1 v 17 c 0,0.54999 -0.45001,1 -1,1 -0.54999,0 -1,-0.45001 -1,-1 v -3 h -5 v 2 c 0,0.54999 -0.45001,1 -1,1 -0.54999,0 -1,-0.45001 -1,-1 v -2 c -0.54999,0 -1,-0.45001 -1,-1 0,-0.54999 0.45001,-1 1,-1 v -5 h -3 c -0.54999,0 -1,-0.45001 -1,-1 z"
         id="path2"
         style="fill:#ffffff;fill-opacity:1;stroke:#ffffff;stroke-width:0;stroke-dasharray:none;stroke-opacity:1" /><rect
         x="45"
         y="22"
         width="5"
         height="4"
         id="rect2"
         style="fill:#ffffff;fill-opacity:1;stroke:#ffffff;stroke-width:0;stroke-dasharray:none;stroke-opacity:1" /><rect
         x="38"
         y="22"
         width="5"
         height="4"
         id="rect3"
         style="fill:#ffffff;fill-opacity:1;stroke:#ffffff;stroke-width:0;stroke-dasharray:none;stroke-opacity:1" /><rect
         x="31"
         y="22"
         width="5"
         height="4"
         id="rect4"
         style="fill:#ffffff;fill-opacity:1;stroke:#ffffff;stroke-width:0;stroke-dasharray:none;stroke-opacity:1" /><path
         d="m 15,30.46997 c 0,4.48004 1.75,8.69 4.90997,11.85999 l 4.38,4.38 C 24.48999,46.89996 24.73999,47 25,47 c 0.26001,0 0.51001,-0.10004 0.71002,-0.29004 0.38995,-0.38995 0.38995,-1.02997 0,-1.41998 l -4.38,-4.38 C 18.53998,38.12 17,34.40997 17,30.46997 V 28 26 20.91998 C 20.39001,20.44 23,17.51996 23,14 v -2 c 0,-0.54999 -0.45001,-1 -1,-1 -3.85999,0 -7,3.14001 -7,7 v 1.07996 C 12.70001,15.42999 8.63,13 4,13 3.45001,13 3,13.45001 3,14 v 2 c 0,6.82996 5.29999,12.45001 12,12.95996 z"
         id="path4"
         style="fill:#ffffff;fill-opacity:1;stroke:#ffffff;stroke-width:0;stroke-dasharray:none;stroke-opacity:1" /><circle
         cx="34"
         cy="41"
         r="3"
         id="circle4"
         style="fill:#ffffff;fill-opacity:1;stroke:#ffffff;stroke-width:0;stroke-dasharray:none;stroke-opacity:1" /><circle
         cx="34.5"
         cy="49.5"
         r="3.5"
         id="circle5"
         style="fill:#ffffff;fill-opacity:1;stroke:#ffffff;stroke-width:0;stroke-dasharray:none;stroke-opacity:1" /><circle
         cx="41"
         cy="45"
         r="3"
         id="circle6"
         style="fill:#ffffff;fill-opacity:1;stroke:#ffffff;stroke-width:0;stroke-dasharray:none;stroke-opacity:1" /><circle
         cx="42"
         cy="53"
         r="3"
         id="circle7"
         style="fill:#ffffff;fill-opacity:1;stroke:#ffffff;stroke-width:0;stroke-dasharray:none;stroke-opacity:1" /><circle
         cx="27"
         cy="52"
         r="3"
         id="circle8"
         style="fill:#ffffff;fill-opacity:1;stroke:#ffffff;stroke-width:0;stroke-dasharray:none;stroke-opacity:1" /></g></g></svg>
