<?xml version="1.0" encoding="UTF-8" standalone="no"?>
<svg
   version="1.1"
   x="0px"
   y="0px"
   viewBox="0 0 72 65"
   xml:space="preserve"
   id="svg11"
   width="72"
   height="65"
   xmlns="http://www.w3.org/2000/svg"
   xmlns:svg="http://www.w3.org/2000/svg"><defs
     id="defs11" /><style
     type="text/css"
     id="style1">
	.st0{display:none;}
</style><g
     id="g10"
     style="fill:#ffffff;fill-opacity:1"
     transform="translate(0,-4)"><g
       id="g9"
       style="fill:#ffffff;fill-opacity:1"><path
         d="m 40,7 c -5.52588,0 -10.89893,1.56543 -15.53809,4.52734 -0.46533,0.29688 -0.60205,0.91504 -0.30469,1.38086 0.29688,0.46582 0.91699,0.60254 1.38086,0.30469 C 29.85547,10.45703 34.85645,9 40,9 54.8877,9 67,21.1123 67,36 67,50.8877 54.8877,63 40,63 25.1123,63 13,50.8877 13,36 c 0,-1.76563 0.17188,-3.51953 0.51074,-5.21387 0.1084,-0.54199 -0.24268,-1.06836 -0.78418,-1.17676 -0.5459,-0.11035 -1.06836,0.24219 -1.17676,0.78418 C 11.18506,32.2168 11,34.10352 11,36 11,51.99023 24.00928,65 40,65 55.99072,65 69,51.99023 69,36 69,20.00977 55.99072,7 40,7 Z"
         id="path1"
         style="fill:#ffffff;fill-opacity:1" /><path
         d="m 50.73291,51.35547 c 0.88135,0.35742 1.81055,0.51172 2.73193,0.51172 1.95361,0 3.87061,-0.69434 5.21045,-1.61426 2.56445,-1.75977 4.31738,-5.16113 4.93555,-9.57617 1.01514,-7.25 -1.23438,-15.44824 -5.73096,-20.88574 C 53.2666,14.21289 44.67871,9.47266 35.88965,11.45313 c -7.33301,1.65039 -10.40967,5.57715 -11.69922,8.58105 -1.58789,3.69824 -1.90576,9.35449 1.1499,13.0332 2.51367,3.02637 5.94629,3.1709 9.26563,3.31055 3.2207,0.13477 6.26221,0.2627 8.80176,2.76367 1.86865,1.83887 2.49854,4.01563 3.10791,6.12012 0.70605,2.44043 1.43603,4.96289 4.21728,6.09375 z M 34.69043,34.37891 c -3.14746,-0.13184 -5.86523,-0.24609 -7.81201,-2.58887 -2.51758,-3.03223 -2.20557,-7.81055 -0.8501,-10.9668 1.10596,-2.57617 3.79053,-5.9541 10.30127,-7.41895 1.24902,-0.28223 2.49365,-0.41211 3.72314,-0.41211 6.60352,0 12.7251,3.76758 16.28613,8.07422 4.15527,5.02441 6.23242,12.61328 5.2915,19.33203 -0.53174,3.79785 -2.02148,6.78809 -4.08691,8.20605 -1.47998,1.0166 -4.00732,1.73242 -6.05762,0.89746 -1.79492,-0.72949 -2.3042,-2.22168 -3.04932,-4.7959 -0.64893,-2.24219 -1.38428,-4.7832 -3.62549,-6.99023 -3.08885,-3.04101 -6.82469,-3.19823 -10.12059,-3.3369 z"
         id="path2"
         style="fill:#ffffff;fill-opacity:1" /><path
         d="m 50,40 c -0.55225,0 -1,0.44727 -1,1 0,0.55273 0.44775,1 1,1 v 2 c 0,0.55273 0.44775,1 1,1 0.55225,0 1,-0.44727 1,-1 v -2 h 5 v 3 c 0,0.55273 0.44775,1 1,1 0.55225,0 1,-0.44727 1,-1 V 28 c 0,-0.55273 -0.44775,-1 -1,-1 -0.55225,0 -1,0.44727 -1,1 v 12 h -5 v -5 h 3 c 0.55225,0 1,-0.44727 1,-1 0,-0.55273 -0.44775,-1 -1,-1 h -3 v -5 h 3 c 0.55225,0 1,-0.44727 1,-1 0,-0.55273 -0.44775,-1 -1,-1 h -3 v -4 h 1 c 0.55225,0 1,-0.44727 1,-1 0,-0.55273 -0.44775,-1 -1,-1 h -1 v -1 c 0,-0.55273 -0.44775,-1 -1,-1 -0.55225,0 -1,0.44727 -1,1 v 1 h -5 v -4 c 0,-0.55273 -0.44775,-1 -1,-1 -0.55225,0 -1,0.44727 -1,1 v 4 h -5 v -4 c 0,-0.55273 -0.44775,-1 -1,-1 -0.55225,0 -1,0.44727 -1,1 v 4 h -5 v -1 c 0,-0.55273 -0.44775,-1 -1,-1 -0.55225,0 -1,0.44727 -1,1 v 1 h -1 c -0.55225,0 -1,0.44727 -1,1 0,0.55273 0.44775,1 1,1 h 1 v 4 h -2 c -0.55225,0 -1,0.44727 -1,1 0,0.55273 0.44775,1 1,1 h 2 v 3 c 0,0.55273 0.44775,1 1,1 0.55225,0 1,-0.44727 1,-1 v -3 h 5 v 3 c 0,0.55273 0.44775,1 1,1 0.55225,0 1,-0.44727 1,-1 v -3 h 5 v 6 c 0,0.55273 0.44775,1 1,1 0.55225,0 1,-0.44727 1,-1 v -6 h 5 v 5 h -3 c -0.55225,0 -1,0.44727 -1,1 0,0.55273 0.44775,1 1,1 h 3 z M 31,26 v -4 h 5 v 4 z m 7,0 v -4 h 5 v 4 z m 7,0 v -4 h 5 v 4 z"
         id="path3"
         style="fill:#ffffff;fill-opacity:1" /><path
         d="m 15,30.46582 c 0,4.48047 1.74512,8.69336 4.91357,11.8623 l 4.37939,4.37891 C 24.48828,46.90234 24.74414,47 25,47 c 0.25586,0 0.51172,-0.09766 0.70703,-0.29297 0.39063,-0.39063 0.39063,-1.02344 0,-1.41406 L 21.32764,40.91406 C 18.53711,38.12305 17,34.41211 17,30.46582 V 28 26 20.9201 C 20.3866,20.43225 23,17.51904 23,14 v -2 c 0,-0.55273 -0.44775,-1 -1,-1 -3.85986,0 -7,3.14063 -7,7 v 1.1037 C 12.69751,15.44446 8.63367,13 4,13 3.44775,13 3,13.44727 3,14 v 2 c 0,6.83044 5.29852,12.43549 12,12.94934 z M 17,18 c 0,-2.41504 1.7207,-4.43457 4,-4.89941 V 14 c 0,2.41504 -1.7207,4.43457 -4,4.89941 z M 5,16 V 15.04492 C 10.59863,15.55176 15,20.27148 15,26 v 0.95508 C 9.40137,26.44824 5,21.72852 5,16 Z"
         id="path4"
         style="fill:#ffffff;fill-opacity:1" /><path
         d="m 37,41 c 0,-1.6543 -1.3457,-3 -3,-3 -1.6543,0 -3,1.3457 -3,3 0,1.6543 1.3457,3 3,3 1.6543,0 3,-1.3457 3,-3 z m -4,0 c 0,-0.55176 0.44873,-1 1,-1 0.55127,0 1,0.44824 1,1 0,0.55176 -0.44873,1 -1,1 -0.55127,0 -1,-0.44824 -1,-1 z"
         id="path5"
         style="fill:#ffffff;fill-opacity:1" /><path
         d="M 34.5,53 C 36.42969,53 38,51.42969 38,49.5 38,47.57031 36.42969,46 34.5,46 32.57031,46 31,47.57031 31,49.5 c 0,1.92969 1.57031,3.5 3.5,3.5 z m 0,-5 C 35.32715,48 36,48.67285 36,49.5 36,50.32715 35.32715,51 34.5,51 33.67285,51 33,50.32715 33,49.5 33,48.67285 33.67285,48 34.5,48 Z"
         id="path6"
         style="fill:#ffffff;fill-opacity:1" /><path
         d="m 44,45 c 0,-1.6543 -1.3457,-3 -3,-3 -1.6543,0 -3,1.3457 -3,3 0,1.6543 1.3457,3 3,3 1.6543,0 3,-1.3457 3,-3 z m -4,0 c 0,-0.55176 0.44873,-1 1,-1 0.55127,0 1,0.44824 1,1 0,0.55176 -0.44873,1 -1,1 -0.55127,0 -1,-0.44824 -1,-1 z"
         id="path7"
         style="fill:#ffffff;fill-opacity:1" /><path
         d="m 42,56 c 1.6543,0 3,-1.3457 3,-3 0,-1.6543 -1.3457,-3 -3,-3 -1.6543,0 -3,1.3457 -3,3 0,1.6543 1.3457,3 3,3 z m 0,-4 c 0.55127,0 1,0.44824 1,1 0,0.55176 -0.44873,1 -1,1 -0.55127,0 -1,-0.44824 -1,-1 0,-0.55176 0.44873,-1 1,-1 z"
         id="path8"
         style="fill:#ffffff;fill-opacity:1" /><path
         d="m 24,52 c 0,1.6543 1.3457,3 3,3 1.6543,0 3,-1.3457 3,-3 0,-1.6543 -1.3457,-3 -3,-3 -1.6543,0 -3,1.3457 -3,3 z m 4,0 c 0,0.55176 -0.44873,1 -1,1 -0.55127,0 -1,-0.44824 -1,-1 0,-0.55176 0.44873,-1 1,-1 0.55127,0 1,0.44824 1,1 z"
         id="path9"
         style="fill:#ffffff;fill-opacity:1" /></g></g></svg>
