<?xml version="1.0" encoding="UTF-8" standalone="no"?>
<svg
   version="1.1"
   viewBox="-5 -10 500 500"
   id="svg2"
   width="500"
   height="500"
   xmlns="http://www.w3.org/2000/svg"
   xmlns:svg="http://www.w3.org/2000/svg">
  <defs
     id="defs2" />
  <path
     d="M 46.302865,-7.4389119 H 171.45468 c 13.50866,0 25.77307,5.530058 34.6602,14.3974646 8.88712,8.8871233 14.39745,21.1515363 14.39745,34.6601863 V 166.77055 c 0,13.50866 -5.50983,25.77307 -14.39745,34.6602 -8.88713,8.88712 -21.15154,14.39746 -34.6602,14.39746 H 46.302865 c -13.50865,0 -25.773062,-5.50983 -34.660186,-14.39746 -8.8871248,-8.88764 -14.3974651,-21.15154 -14.3974651,-34.6602 V 41.618739 c 0,-13.50865 5.530058,-25.773063 14.3974651,-34.6601863 8.887124,-8.8674066 21.151536,-14.3974646 34.660186,-14.3974646 z M 318.38698,263.38124 H 443.5388 c 13.50864,0 25.77306,5.50983 34.66018,14.39748 8.88713,8.88712 14.39746,21.15153 14.39746,34.66018 v 125.1518 c 0,13.50866 -5.50983,25.77307 -14.39746,34.6602 -8.88712,8.88713 -21.15154,14.39746 -34.66018,14.39746 H 318.38698 c -13.50865,0 -25.77306,-5.50983 -34.66018,-14.39746 -8.86742,-8.88713 -14.39748,-21.15154 -14.39748,-34.6602 V 312.4389 c 0,-13.50865 5.50984,-25.77306 14.39748,-34.66018 8.88712,-8.88713 21.15153,-14.39748 34.66018,-14.39748 z m -272.084115,0 H 171.45468 c 13.50866,0 25.77307,5.50983 34.6602,14.39748 8.88712,8.88712 14.39745,21.15153 14.39745,34.66018 v 125.1518 c 0,13.50866 -5.50983,25.77307 -14.39745,34.6602 -8.88713,8.88713 -21.15154,14.39746 -34.6602,14.39746 H 46.302865 c -13.50865,0 -25.773062,-5.50983 -34.660186,-14.39746 C 2.7752719,463.36377 -2.7547861,451.09936 -2.7547861,437.5907 V 312.4389 c 0,-13.50865 5.5098347,-25.77306 14.3974651,-34.66018 8.887124,-8.88713 21.151536,-14.39748 34.660186,-14.39748 z M 318.38698,-7.4389119 H 443.5388 c 13.50864,0 25.77306,5.530058 34.66018,14.3974646 8.88713,8.8871233 14.39746,21.1515363 14.39746,34.6601863 V 166.77055 c 0,13.50866 -5.50983,25.77307 -14.39746,34.6602 -8.88762,8.88712 -21.15154,14.39746 -34.66018,14.39746 H 318.38698 c -13.50865,0 -25.77306,-5.50983 -34.66018,-14.39746 -8.88713,-8.88713 -14.39748,-21.15154 -14.39748,-34.6602 V 41.618739 c 0,-13.50865 5.53006,-25.773063 14.39748,-34.6601863 8.88712,-8.8674066 21.15153,-14.3974646 34.66018,-14.3974646 z"
     fill-rule="evenodd"
     id="path1"
     style="fill:#ffe791;fill-opacity:1;stroke-width:5.05582" />
</svg>
