<?xml version="1.0" encoding="UTF-8" standalone="no"?>
<svg
   version="1.1"
   x="0px"
   y="0px"
   viewBox="0 0 500 500"
   enable-background="new 0 0 500 500"
   xml:space="preserve"
   id="svg10"
   width="500"
   height="500"
   xmlns="http://www.w3.org/2000/svg"
   xmlns:svg="http://www.w3.org/2000/svg"><defs
     id="defs10" /><g
     id="g43"><path
       id="path43"
       style="fill:#d4c798"
       d="m 281.58203,264.4043 c -7.18637,0 -13.30859,6.28128 -13.30859,13.65625 v 182.32617 26.22266 c 0,7.37497 6.12222,13.65626 13.30859,13.65624 h 179.12695 25.55079 c 4.13574,0 7.27683,-1.5855 9.41992,-3.99218 2.34513,-2.19933 3.88867,-5.41977 3.88867,-9.66406 V 304.2832 278.06055 c 0,-7.37497 -6.12223,-13.65625 -13.30859,-13.65625 h -179.125 z m 13.30859,27.31445 h 165.81836 12.24414 v 168.66797 12.56445 H 307.13477 294.89062 V 304.2832 Z" /><path
       id="path43-7"
       style="fill:#d4c798"
       d="m 281.99663,0.63625154 c -7.18637,0 -13.30859,6.28127996 -13.30859,13.65625046 v 182.326168 26.22266 c 0,7.37497 6.12222,13.65626 13.30859,13.65624 h 179.12695 25.55079 c 4.13574,0 7.27683,-1.5855 9.41992,-3.99218 2.34513,-2.19933 3.88867,-5.41977 3.88867,-9.66406 V 40.515152 14.292502 c 0,-7.3749705 -6.12223,-13.65625046 -13.30859,-13.65625046 h -179.125 z M 295.30522,27.950702 h 165.81836 12.24414 V 196.61867 209.18312 H 307.54937 295.30522 V 40.515152 Z" /><path
       id="path38"
       style="fill:#d4c798"
       d="m 14.355469,264.4043 c -7.1863697,0 -13.308594,6.28128 -13.308594,13.65625 v 182.32617 26.22266 c 0,7.37497 6.1222244,13.65626 13.308594,13.65624 h 179.126951 25.55274 c 3.93401,0 6.96559,-1.45646 9.09179,-3.69726 2.52665,-2.20212 4.21485,-5.5213 4.21485,-9.95898 V 304.2832 278.06055 c 0,-7.37497 -6.12027,-13.65625 -13.30664,-13.65625 H 39.908203 Z m 13.308593,27.31445 h 165.818358 12.24414 v 168.66797 12.56445 H 39.908203 27.664062 V 304.2832 Z" /><path
       id="path33"
       style="fill:#d4c798"
       d="m 14.355469,0.68164062 c -7.1863697,0 -13.308594,6.28128658 -13.308594,13.65625038 v 182.326169 26.22071 c 0,7.37496 6.1222244,13.6582 13.308594,13.6582 h 179.126951 25.55274 c 3.93401,0 6.96559,-1.45647 9.09179,-3.69727 2.52665,-2.20212 4.21485,-5.52326 4.21485,-9.96093 V 40.560547 14.337891 c 0,-7.3749638 -6.12027,-13.65625037 -13.30664,-13.65625038 H 39.908203 Z M 27.664062,27.996094 H 193.48242 205.72656 V 196.66406 209.22852 H 39.908203 27.664062 V 40.560547 Z" /></g></svg>
