<?xml version="1.0" encoding="UTF-8" standalone="no"?>
<!-- Created with Inkscape (http://www.inkscape.org/) -->

<svg
   width="210mm"
   height="297mm"
   viewBox="0 0 210 297"
   version="1.1"
   id="svg1"
   xml:space="preserve"
   inkscape:version="1.4.2 (f4327f4, 2025-05-13)"
   sodipodi:docname="golden.svg"
   xmlns:inkscape="http://www.inkscape.org/namespaces/inkscape"
   xmlns:sodipodi="http://sodipodi.sourceforge.net/DTD/sodipodi-0.dtd"
   xmlns:xlink="http://www.w3.org/1999/xlink"
   xmlns="http://www.w3.org/2000/svg"
   xmlns:svg="http://www.w3.org/2000/svg"><sodipodi:namedview
     id="namedview1"
     pagecolor="#ffffff"
     bordercolor="#000000"
     borderopacity="0.25"
     inkscape:showpageshadow="2"
     inkscape:pageopacity="0.0"
     inkscape:pagecheckerboard="0"
     inkscape:deskcolor="#d1d1d1"
     inkscape:document-units="mm"
     inkscape:zoom="16"
     inkscape:cx="393.125"
     inkscape:cy="562.9375"
     inkscape:window-width="1920"
     inkscape:window-height="991"
     inkscape:window-x="-9"
     inkscape:window-y="-9"
     inkscape:window-maximized="1"
     inkscape:current-layer="layer1" /><defs
     id="defs1"><linearGradient
       id="linearGradient11"
       inkscape:collect="always"><stop
         style="stop-color:#b39b51;stop-opacity:1;"
         offset="0"
         id="stop11" /><stop
         style="stop-color:#e4deb7;stop-opacity:1;"
         offset="1"
         id="stop12" /></linearGradient><linearGradient
       inkscape:collect="always"
       xlink:href="#linearGradient11"
       id="linearGradient12"
       x1="11.87501"
       y1="2.8749988"
       x2="11.87501"
       y2="29"
       gradientUnits="userSpaceOnUse" /></defs><g
     inkscape:label="Слой 1"
     inkscape:groupmode="layer"
     id="layer1"><g
       style="display:inline;fill:currentColor"
       id="g1"
       transform="matrix(0.26458333,0,0,0.26458333,101.86458,145.25625)"><path
         stroke="none"
         d="M 0,0 H 24 V 24 H 0 Z"
         fill="none"
         id="path1"
         style="display:inline" /><path
         d="m 19,3 a 3,3 0 0 1 2.995,2.824 L 22,6 v 12 a 3,3 0 0 1 -2.824,2.995 L 19,21 H 5 A 3,3 0 0 1 2.005,18.176 L 2,18 V 6 A 3,3 0 0 1 4.824,3.005 L 5,3 Z M 17,15 H 7 l -0.117,0.007 a 1,1 0 0 0 0,1.986 L 7,17 h 10 l 0.117,-0.007 a 1,1 0 0 0 0,-1.986 z m 0,-4 H 7 l -0.117,0.007 a 1,1 0 0 0 0,1.986 L 7,13 h 10 l 0.117,-0.007 a 1,1 0 0 0 0,-1.986 z M 17,7 H 7 L 6.883,7.007 a 1,1 0 0 0 0,1.986 L 7,9 h 10 l 0.117,-0.007 a 1,1 0 0 0 0,-1.986 z"
         id="path2"
         style="display:inline;fill:url(#linearGradient12);fill-opacity:1"
         inkscape:label="path2"
         transform="translate(2.5984251e-6)" /></g></g></svg>
