<?xml version="1.0" encoding="UTF-8" standalone="no"?>
<!-- Created with Inkscape (http://www.inkscape.org/) -->

<svg
   width="44.297714mm"
   height="39.867947mm"
   viewBox="0 0 44.297714 39.867946"
   version="1.1"
   id="svg1"
   xml:space="preserve"
   inkscape:version="1.4.2 (f4327f4, 2025-05-13)"
   sodipodi:docname="xx.svg"
   xmlns:inkscape="http://www.inkscape.org/namespaces/inkscape"
   xmlns:sodipodi="http://sodipodi.sourceforge.net/DTD/sodipodi-0.dtd"
   xmlns:xlink="http://www.w3.org/1999/xlink"
   xmlns="http://www.w3.org/2000/svg"
   xmlns:svg="http://www.w3.org/2000/svg"><sodipodi:namedview
     id="namedview1"
     pagecolor="#ffffff"
     bordercolor="#000000"
     borderopacity="0.25"
     inkscape:showpageshadow="2"
     inkscape:pageopacity="0.0"
     inkscape:pagecheckerboard="0"
     inkscape:deskcolor="#d1d1d1"
     inkscape:document-units="mm"
     inkscape:zoom="4"
     inkscape:cx="44.375"
     inkscape:cy="73.375"
     inkscape:window-width="1920"
     inkscape:window-height="991"
     inkscape:window-x="-9"
     inkscape:window-y="-9"
     inkscape:window-maximized="1"
     inkscape:current-layer="layer1"
     showgrid="true"><inkscape:grid
       id="grid2"
       units="mm"
       originx="0"
       originy="0"
       spacingx="0.26458332"
       spacingy="0.26458332"
       empcolor="#0099e5"
       empopacity="0.30196078"
       color="#0099e5"
       opacity="0.14901961"
       empspacing="5"
       enabled="true"
       visible="true" /></sodipodi:namedview><defs
     id="defs1"><linearGradient
       id="linearGradient11"
       inkscape:collect="always"
       inkscape:label="sadda"><stop
         style="stop-color:#b39b51;stop-opacity:1;"
         offset="0"
         id="stop11" /><stop
         style="stop-color:#e4deb7;stop-opacity:1;"
         offset="1"
         id="stop12" /></linearGradient><linearGradient
       inkscape:collect="always"
       xlink:href="#linearGradient11"
       id="linearGradient12"
       x1="11.87501"
       y1="2.4999988"
       x2="11.87501"
       y2="29"
       gradientUnits="userSpaceOnUse"
       gradientTransform="matrix(6.9933115,0,0,6.9933115,2.3e-5,0)" /></defs><g
     inkscape:label="Слой 1"
     inkscape:groupmode="layer"
     id="layer1"
     transform="translate(-104.83127,-150.44549)"><g
       style="display:inline;fill:currentColor"
       id="g1"
       transform="matrix(0.3167148,0,0,0.3167148,100.40149,143.80084)"><path
         stroke="none"
         d="M 0,0 H 167.83948 V 167.83948 H 0 Z"
         fill="none"
         id="path1"
         style="display:inline;stroke-width:6.99331" /><path
         id="path2"
         style="display:inline;fill:url(#linearGradient12);fill-opacity:1;stroke-width:6.99331"
         inkscape:label="path2"
         d="m 34.966273,20.979916 -1.23026,0.03427 c -11.09014,0.651743 -19.74998,9.836075 -19.74936,20.945354 v 83.92011 l 0.0343,1.23026 c 0.65173,11.09016 9.83607,19.74998 20.94536,19.74936 h 97.906477 l 1.23026,-0.0343 c 11.09014,-0.65175 19.74998,-9.83607 19.74936,-20.94535 V 41.959535 l -0.0343,-1.230256 C 153.1664,29.639139 143.98206,20.979302 132.87279,20.979916 Z m 82.445097,21.333685 c 6.0201,-0.276613 11.35714,7.508608 5.75806,13.103695 L 94.658165,83.923667 123.16943,112.41372 c 7.13519,7.1668 -3.58251,17.88446 -10.74924,10.74924 L 83.923609,94.658222 55.417243,123.16296 c -7.16674,7.13522 -17.88443,-3.58244 -10.74924,-10.74924 L 73.189054,83.923667 44.668003,55.417296 c -2.97404,-2.96636 -2.97404,-7.784544 0,-10.750872 2.96632,-2.974 7.78288,-2.974 10.74924,0 L 83.923609,73.189111 112.42019,44.666424 c 1.56774,-1.566624 3.30556,-2.275372 4.99118,-2.352823 z" /></g></g></svg>
