<?xml version="1.0" encoding="UTF-8" standalone="no"?>
<!-- Created with Inkscape (http://www.inkscape.org/) -->

<svg
   width="56.726757mm"
   height="51.053162mm"
   viewBox="0 0 56.726759 51.053163"
   version="1.1"
   id="svg1"
   xml:space="preserve"
   xmlns:xlink="http://www.w3.org/1999/xlink"
   xmlns="http://www.w3.org/2000/svg"
   xmlns:svg="http://www.w3.org/2000/svg"><defs
     id="defs1"><linearGradient
       id="linearGradient11"><stop
         style="stop-color:#b39b51;stop-opacity:1;"
         offset="0"
         id="stop11" /><stop
         style="stop-color:#e4deb7;stop-opacity:1;"
         offset="1"
         id="stop12" /></linearGradient><linearGradient
       xlink:href="#linearGradient11"
       id="linearGradient12"
       x1="11.87501"
       y1="2.4999988"
       x2="11.87501"
       y2="29"
       gradientUnits="userSpaceOnUse"
       gradientTransform="matrix(8.9552111,0,0,8.9552111,-15.893004,-23.473941)" /></defs><g
     id="layer1"
     transform="translate(-101.04043,-144.875)"><g
       style="display:inline;fill:currentColor"
       id="g1"
       transform="matrix(0.3167148,0,0,0.3167148,100.40149,143.80084)"><path
         id="path2"
         style="display:inline;fill:url(#linearGradient12);fill-opacity:1;stroke-width:8.95519"
         d="M 28.888277,3.391567 27.310214,3.435391 C 13.108848,4.2699864 2.0166143,16.036568 2.0174066,30.262438 V 137.71669 l 0.043824,1.57806 c 0.8345844,14.20137 12.6011664,25.2936 26.8270354,25.29282 H 154.25644 l 1.57807,-0.0439 c 14.20137,-0.83458 25.29359,-12.60116 25.2928,-26.82703 V 30.262438 l -0.0439,-1.578061 C 180.2489,14.483009 168.48232,3.3907747 154.25644,3.391567 Z M 91.57236,26.250478 c 22.84541,0.606194 47.06361,16.811272 47.06361,43.707399 0,21.746717 -5.56797,28.737737 -15.92565,42.519063 -10.35768,13.78133 -18.7571,25.90778 -31.13796,25.91011 -12.380856,0.002 -20.7841,-12.12451 -31.145505,-25.90633 C 50.06545,98.698903 44.290126,90.350136 44.494136,69.957877 44.763231,43.059959 69.310251,25.659761 91.57236,26.250478 Z m 0,15.9986 c -32.364547,0.656724 -33.546569,51.050808 0,50.41982 34.13027,0 33.53457,-49.822786 0,-50.41982 z" /></g></g></svg>
