<?xml version="1.0" encoding="UTF-8" standalone="no"?>
<!-- Created with Inkscape (http://www.inkscape.org/) -->

<svg
   width="46.298mm"
   height="41.868mm"
   viewBox="0 0 46.298 41.867999"
   version="1.1"
   id="svg1"
   xml:space="preserve"
   xmlns="http://www.w3.org/2000/svg"
   xmlns:svg="http://www.w3.org/2000/svg"><defs
     id="defs1" /><path
     d="M 7.6358476,0.99129193 7.2462073,1.002144 C 3.7337959,1.2085606 0.99109563,4.1173746 0.99129193,7.6358476 V 34.214588 l 0.010852,0.38964 c 0.2064125,3.512418 3.1152271,6.255112 6.6337036,6.254915 H 38.644292 l 0.38964,-0.01085 c 3.512411,-0.206419 6.255112,-3.11523 6.254915,-6.633703 V 7.6358476 L 45.277995,7.2462073 C 45.071589,3.7337959 42.162762,0.99109753 38.644292,0.99129193 Z M 33.9252,7.746952 c 1.830901,0.066653 3.36379,2.434498 1.645894,4.151168 l -9.02994,9.02839 9.02994,9.023222 c 2.25982,2.269831 -1.134634,5.664273 -3.404443,3.404443 l -9.025289,-9.027873 -9.02839,9.027873 c -2.269812,2.25983 -5.664264,-1.134612 -3.404443,-3.404443 l 9.03304,-9.023222 -9.03304,-9.02839 c -0.9419232,-0.93949 -0.9419232,-2.4654804 0,-3.4049604 0.939477,-0.9419098 2.464953,-0.9419098 3.404443,0 l 9.02839,9.0335574 9.025289,-9.0335574 c 0.496526,-0.496173 1.046921,-0.7206442 1.580782,-0.7451741 0.05958,-0.00274 0.118705,-0.00318 0.177767,-0.00103 z"
     style="display:inline;stroke:#ffffff;stroke-width:1.7;stroke-dasharray:none;stroke-opacity:1;paint-order:stroke fill markers"
     id="path4" /><path
     d="m 33.9252,7.746952 c -0.05906,-0.00215 -0.118184,-0.0017 -0.177767,0.00103 -0.533861,0.02453 -1.084256,0.2490011 -1.580782,0.7451741 l -9.025289,9.0335579 -9.02839,-9.0335579 c -0.93949,-0.9419098 -2.464966,-0.9419098 -3.404443,0 -0.9419232,0.93948 -0.9419232,2.4654709 0,3.4049609 l 9.03304,9.02839 -9.03304,9.023222 c -2.259821,2.269831 1.134631,5.664273 3.404443,3.404443 l 9.02839,-9.027873 9.025289,9.027873 c 2.269809,2.25983 5.664263,-1.134613 3.404443,-3.404443 l -9.02994,-9.023223 9.02994,-9.028389 C 37.28899,10.18145 35.756101,7.813605 33.9252,7.746952 Z"
     style="display:inline;fill:#ffffff;fill-opacity:1;stroke-width:1.63238"
     id="path3" /></svg>
