<?xml version="1.0" encoding="UTF-8" standalone="no"?>
<svg
   width="726"
   height="280"
   viewBox="0 0 726 280"
   version="1.1"
   id="svg91"
   sodipodi:docname="filmstrip.svg"
   inkscape:version="1.4.2 (ebf0e940d0, 2025-05-08)"
   xmlns:inkscape="http://www.inkscape.org/namespaces/inkscape"
   xmlns:sodipodi="http://sodipodi.sourceforge.net/DTD/sodipodi-0.dtd"
   xmlns="http://www.w3.org/2000/svg"
   xmlns:svg="http://www.w3.org/2000/svg">
  <sodipodi:namedview
     id="namedview91"
     pagecolor="#505050"
     bordercolor="#ffffff"
     borderopacity="1"
     inkscape:showpageshadow="0"
     inkscape:pageopacity="0"
     inkscape:pagecheckerboard="1"
     inkscape:deskcolor="#505050"
     inkscape:zoom="2.2601704"
     inkscape:cx="752.59812"
     inkscape:cy="118.35391"
     inkscape:window-width="1916"
     inkscape:window-height="1050"
     inkscape:window-x="0"
     inkscape:window-y="0"
     inkscape:window-maximized="1"
     inkscape:current-layer="svg91" />
  <defs
     id="defs2">
    <filter
       id="glow"
       x="-0.61029974"
       y="-0.53541516"
       width="2.2205995"
       height="2.0708303">
      <feGaussianBlur
         stdDeviation="1.6"
         result="blur"
         id="feGaussianBlur1" />
      <feMerge
         id="feMerge2">
        <feMergeNode
           in="blur"
           id="feMergeNode1" />
        <feMergeNode
           in="SourceGraphic"
           id="feMergeNode2" />
      </feMerge>
    </filter>
  </defs>
  <path
     id="path197"
     style="fill:#111111;stroke-width:0.907559"
     d="M 0 0 L 0 280 L 725.60938 280 L 725.60938 0 L 0 0 z M 16.011719 13.5 L 24.248047 13.5 C 25.616975 13.5 26.71875 14.838 26.71875 16.5 L 26.71875 21.5 C 26.71875 23.162 25.616975 24.5 24.248047 24.5 L 16.011719 24.5 C 14.642791 24.5 13.541016 23.162 13.541016 21.5 L 13.541016 16.5 C 13.541016 14.838 14.642791 13.5 16.011719 13.5 z M 36.150391 13.5 L 44.388672 13.5 C 45.7576 13.5 46.859375 14.838 46.859375 16.5 L 46.859375 21.5 C 46.859375 23.162 45.7576 24.5 44.388672 24.5 L 36.150391 24.5 C 34.781463 24.5 33.679688 23.162 33.679688 21.5 L 33.679688 16.5 C 33.679688 14.838 34.781463 13.5 36.150391 13.5 z M 56.28125 13.5 L 64.517578 13.5 C 65.886506 13.5 66.988281 14.838 66.988281 16.5 L 66.988281 21.5 C 66.988281 23.162 65.886506 24.5 64.517578 24.5 L 56.28125 24.5 C 54.912322 24.5 53.810547 23.162 53.810547 21.5 L 53.810547 16.5 C 53.810547 14.838 54.912322 13.5 56.28125 13.5 z M 76.417969 13.5 L 84.65625 13.5 C 86.025178 13.5 87.126953 14.838 87.126953 16.5 L 87.126953 21.5 C 87.126953 23.162 86.025178 24.5 84.65625 24.5 L 76.417969 24.5 C 75.04904 24.5 73.947266 23.162 73.947266 21.5 L 73.947266 16.5 C 73.947266 14.838 75.04904 13.5 76.417969 13.5 z M 96.550781 13.5 L 104.78711 13.5 C 106.15603 13.5 107.25781 14.838 107.25781 16.5 L 107.25781 21.5 C 107.25781 23.162 106.15603 24.5 104.78711 24.5 L 96.550781 24.5 C 95.181853 24.5 94.080078 23.162 94.080078 21.5 L 94.080078 16.5 C 94.080078 14.838 95.181853 13.5 96.550781 13.5 z M 116.6875 13.5 L 124.92578 13.5 C 126.29471 13.5 127.39648 14.838 127.39648 16.5 L 127.39648 21.5 C 127.39648 23.162 126.29471 24.5 124.92578 24.5 L 116.6875 24.5 C 115.31857 24.5 114.2168 23.162 114.2168 21.5 L 114.2168 16.5 C 114.2168 14.838 115.31857 13.5 116.6875 13.5 z M 136.81836 13.5 L 145.05469 13.5 C 146.42362 13.5 147.52539 14.838 147.52539 16.5 L 147.52539 21.5 C 147.52539 23.162 146.42362 24.5 145.05469 24.5 L 136.81836 24.5 C 135.44944 24.5 134.34766 23.162 134.34766 21.5 L 134.34766 16.5 C 134.34766 14.838 135.44944 13.5 136.81836 13.5 z M 156.95703 13.5 L 165.19531 13.5 C 166.56423 13.5 167.66602 14.838 167.66602 16.5 L 167.66602 21.5 C 167.66602 23.162 166.56423 24.5 165.19531 24.5 L 156.95703 24.5 C 155.5881 24.5 154.48633 23.162 154.48633 21.5 L 154.48633 16.5 C 154.48633 14.838 155.5881 13.5 156.95703 13.5 z M 197.2168 13.5 L 205.45508 13.5 C 206.82401 13.5 207.92578 14.838 207.92578 16.5 L 207.92578 21.5 C 207.92578 23.162 206.82401 24.5 205.45508 24.5 L 197.2168 24.5 C 195.84787 24.5 194.74609 23.162 194.74609 21.5 L 194.74609 16.5 C 194.74609 14.838 195.84787 13.5 197.2168 13.5 z M 217.35742 13.5 L 225.59375 13.5 C 226.96268 13.5 228.06445 14.838 228.06445 16.5 L 228.06445 21.5 C 228.06445 23.162 226.96269 24.5 225.59375 24.5 L 217.35742 24.5 C 215.9885 24.5 214.88672 23.162 214.88672 21.5 L 214.88672 16.5 C 214.88672 14.838 215.9885 13.5 217.35742 13.5 z M 237.48633 13.5 L 245.72266 13.5 C 247.09159 13.5 248.19531 14.838 248.19531 16.5 L 248.19531 21.5 C 248.19531 23.162 247.09159 24.5 245.72266 24.5 L 237.48633 24.5 C 236.1174 24.5 235.01562 23.162 235.01562 21.5 L 235.01562 16.5 C 235.01562 14.838 236.1174 13.5 237.48633 13.5 z M 257.625 13.5 L 265.86133 13.5 C 267.23026 13.5 268.33203 14.838 268.33203 16.5 L 268.33203 21.5 C 268.33203 23.162 267.23026 24.5 265.86133 24.5 L 257.625 24.5 C 256.25607 24.5 255.1543 23.162 255.1543 21.5 L 255.1543 16.5 C 255.1543 14.838 256.25607 13.5 257.625 13.5 z M 277.75586 13.5 L 285.99219 13.5 C 287.36112 13.5 288.46484 14.838 288.46484 16.5 L 288.46484 21.5 C 288.46484 23.162 287.36112 24.5 285.99219 24.5 L 277.75586 24.5 C 276.38693 24.5 275.28516 23.162 275.28516 21.5 L 275.28516 16.5 C 275.28516 14.838 276.38693 13.5 277.75586 13.5 z M 297.89453 13.5 L 306.13086 13.5 C 307.49978 13.5 308.60156 14.838 308.60156 16.5 L 308.60156 21.5 C 308.60156 23.162 307.49978 24.5 306.13086 24.5 L 297.89453 24.5 C 296.5256 24.5 295.42383 23.162 295.42383 21.5 L 295.42383 16.5 C 295.42383 14.838 296.5256 13.5 297.89453 13.5 z M 318.02344 13.5 L 326.25977 13.5 C 327.62871 13.5 328.73242 14.838 328.73242 16.5 L 328.73242 21.5 C 328.73242 23.162 327.62871 24.5 326.25977 24.5 L 318.02344 24.5 C 316.65452 24.5 315.55274 23.162 315.55273 21.5 L 315.55273 16.5 C 315.55273 14.838 316.65452 13.5 318.02344 13.5 z M 338.16406 13.5 L 346.40039 13.5 C 347.76932 13.5 348.87109 14.838 348.87109 16.5 L 348.87109 21.5 C 348.87109 23.162 347.76932 24.5 346.40039 24.5 L 338.16406 24.5 C 336.79513 24.5 335.69336 23.162 335.69336 21.5 L 335.69336 16.5 C 335.69336 14.838 336.79513 13.5 338.16406 13.5 z M 378.42383 13.5 L 386.66016 13.5 C 388.02909 13.5 389.13086 14.838 389.13086 16.5 L 389.13086 21.5 C 389.13086 23.162 388.02909 24.5 386.66016 24.5 L 378.42383 24.5 C 377.0549 24.5 375.95313 23.162 375.95312 21.5 L 375.95312 16.5 C 375.95312 14.838 377.0549 13.5 378.42383 13.5 z M 398.5625 13.5 L 406.79883 13.5 C 408.16775 13.5 409.27148 14.838 409.27148 16.5 L 409.27148 21.5 C 409.27148 23.162 408.16775 24.5 406.79883 24.5 L 398.5625 24.5 C 397.19358 24.5 396.09181 23.162 396.0918 21.5 L 396.0918 16.5 C 396.0918 14.838 397.19358 13.5 398.5625 13.5 z M 418.69336 13.5 L 426.92969 13.5 C 428.29862 13.5 429.40039 14.838 429.40039 16.5 L 429.40039 21.5 C 429.40039 23.162 428.29862 24.5 426.92969 24.5 L 418.69336 24.5 C 417.32443 24.5 416.22266 23.162 416.22266 21.5 L 416.22266 16.5 C 416.22266 14.838 417.32443 13.5 418.69336 13.5 z M 438.83008 13.5 L 447.06641 13.5 C 448.43534 13.5 449.53906 14.838 449.53906 16.5 L 449.53906 21.5 C 449.53906 23.162 448.43534 24.5 447.06641 24.5 L 438.83008 24.5 C 437.46115 24.5 436.35937 23.162 436.35938 21.5 L 436.35938 16.5 C 436.35938 14.838 437.46115 13.5 438.83008 13.5 z M 458.96289 13.5 L 467.19922 13.5 C 468.56815 13.5 469.66992 14.838 469.66992 16.5 L 469.66992 21.5 C 469.66992 23.162 468.56815 24.5 467.19922 24.5 L 458.96289 24.5 C 457.59397 24.5 456.49219 23.162 456.49219 21.5 L 456.49219 16.5 C 456.49219 14.838 457.59397 13.5 458.96289 13.5 z M 479.09961 13.5 L 487.33594 13.5 C 488.70487 13.5 489.80859 14.838 489.80859 16.5 L 489.80859 21.5 C 489.80859 23.162 488.70487 24.5 487.33594 24.5 L 479.09961 24.5 C 477.73068 24.5 476.62891 23.162 476.62891 21.5 L 476.62891 16.5 C 476.62891 14.838 477.73068 13.5 479.09961 13.5 z M 499.23047 13.5 L 507.4668 13.5 C 508.83573 13.5 509.9375 14.838 509.9375 16.5 L 509.9375 21.5 C 509.9375 23.162 508.83573 24.5 507.4668 24.5 L 499.23047 24.5 C 497.86154 24.5 496.75977 23.162 496.75977 21.5 L 496.75977 16.5 C 496.75977 14.838 497.86154 13.5 499.23047 13.5 z M 519.36914 13.5 L 527.60547 13.5 C 528.9744 13.5 530.07812 14.838 530.07812 16.5 L 530.07812 21.5 C 530.07812 23.162 528.9744 24.5 527.60547 24.5 L 519.36914 24.5 C 518.00022 24.5 516.89844 23.162 516.89844 21.5 L 516.89844 16.5 C 516.89844 14.838 518.00022 13.5 519.36914 13.5 z M 559.62891 13.5 L 567.86523 13.5 C 569.23416 13.5 570.33789 14.838 570.33789 16.5 L 570.33789 21.5 C 570.33789 23.162 569.23416 24.5 567.86523 24.5 L 559.62891 24.5 C 558.25998 24.5 557.1582 23.162 557.1582 21.5 L 557.1582 16.5 C 557.1582 14.838 558.25998 13.5 559.62891 13.5 z M 579.76953 13.5 L 588.00586 13.5 C 589.3748 13.5 590.47656 14.838 590.47656 16.5 L 590.47656 21.5 C 590.47656 23.162 589.3748 24.5 588.00586 24.5 L 579.76953 24.5 C 578.4006 24.5 577.29687 23.162 577.29688 21.5 L 577.29688 16.5 C 577.29688 14.838 578.4006 13.5 579.76953 13.5 z M 599.89844 13.5 L 608.13477 13.5 C 609.50369 13.5 610.60547 14.838 610.60547 16.5 L 610.60547 21.5 C 610.60547 23.162 609.50369 24.5 608.13477 24.5 L 599.89844 24.5 C 598.52952 24.5 597.42773 23.162 597.42773 21.5 L 597.42773 16.5 C 597.42773 14.838 598.52952 13.5 599.89844 13.5 z M 620.03711 13.5 L 628.27344 13.5 C 629.64237 13.5 630.74414 14.838 630.74414 16.5 L 630.74414 21.5 C 630.74414 23.162 629.64237 24.5 628.27344 24.5 L 620.03711 24.5 C 618.66818 24.5 617.56641 23.162 617.56641 21.5 L 617.56641 16.5 C 617.56641 14.838 618.66818 13.5 620.03711 13.5 z M 640.16797 13.5 L 648.4043 13.5 C 649.77323 13.5 650.875 14.838 650.875 16.5 L 650.875 21.5 C 650.875 23.162 649.77323 24.5 648.4043 24.5 L 640.16797 24.5 C 638.79904 24.5 637.69727 23.162 637.69727 21.5 L 637.69727 16.5 C 637.69727 14.838 638.79904 13.5 640.16797 13.5 z M 660.30664 13.5 L 668.54297 13.5 C 669.9119 13.5 671.01367 14.838 671.01367 16.5 L 671.01367 21.5 C 671.01367 23.162 669.9119 24.5 668.54297 24.5 L 660.30664 24.5 C 658.93772 24.5 657.83594 23.162 657.83594 21.5 L 657.83594 16.5 C 657.83594 14.838 658.93772 13.5 660.30664 13.5 z M 680.43555 13.5 L 688.67188 13.5 C 690.04081 13.5 691.14258 14.838 691.14258 16.5 L 691.14258 21.5 C 691.14258 23.162 690.04082 24.5 688.67188 24.5 L 680.43555 24.5 C 679.06662 24.5 677.96484 23.162 677.96484 21.5 L 677.96484 16.5 C 677.96484 14.838 679.06662 13.5 680.43555 13.5 z M 700.57617 13.5 L 708.8125 13.5 C 710.18143 13.5 711.2832 14.838 711.2832 16.5 L 711.2832 21.5 C 711.2832 23.162 710.18143 24.5 708.8125 24.5 L 700.57617 24.5 C 699.20724 24.5 698.10352 23.162 698.10352 21.5 L 698.10352 16.5 C 698.10352 14.838 699.20724 13.5 700.57617 13.5 z M 13.177734 38 L 168.02734 38 C 168.93996 38 169.67383 38.892 169.67383 40 L 169.67383 240 C 169.67383 241.108 168.93996 242 168.02734 242 L 13.177734 242 C 12.265115 242 11.53125 241.108 11.53125 240 L 11.53125 40 C 11.53125 38.892 12.265115 38 13.177734 38 z M 194.38477 38 L 349.23242 38 C 350.14504 38 350.88086 38.892 350.88086 40 L 350.88086 240 C 350.88086 241.108 350.14504 242 349.23242 242 L 194.38477 242 C 193.47215 242 192.73633 241.108 192.73633 240 L 192.73633 40 C 192.73633 38.892 193.47215 38 194.38477 38 z M 375.58984 38 L 530.43945 38 C 531.35206 38 532.08594 38.892 532.08594 40 L 532.08594 240 C 532.08594 241.108 531.35206 242 530.43945 242 L 375.58984 242 C 374.67722 242 373.94336 241.108 373.94336 240 L 373.94336 40 C 373.94336 38.892 374.67722 38 375.58984 38 z M 556.79688 38 L 711.64453 38 C 712.55715 38 713.29297 38.892 713.29297 40 L 713.29297 240 C 713.29297 241.108 712.55715 242 711.64453 242 L 556.79688 242 C 555.88426 242 555.14844 241.108 555.14844 240 L 555.14844 40 C 555.14844 38.892 555.88425 38 556.79688 38 z M 16.011719 255.5 L 24.248047 255.5 C 25.616975 255.5 26.71875 256.838 26.71875 258.5 L 26.71875 263.5 C 26.71875 265.162 25.616975 266.5 24.248047 266.5 L 16.011719 266.5 C 14.642791 266.5 13.541016 265.162 13.541016 263.5 L 13.541016 258.5 C 13.541016 256.838 14.642791 255.5 16.011719 255.5 z M 36.150391 255.5 L 44.388672 255.5 C 45.7576 255.5 46.859375 256.838 46.859375 258.5 L 46.859375 263.5 C 46.859375 265.162 45.7576 266.5 44.388672 266.5 L 36.150391 266.5 C 34.781463 266.5 33.679688 265.162 33.679688 263.5 L 33.679688 258.5 C 33.679688 256.838 34.781463 255.5 36.150391 255.5 z M 56.28125 255.5 L 64.517578 255.5 C 65.886506 255.5 66.988281 256.838 66.988281 258.5 L 66.988281 263.5 C 66.988281 265.162 65.886506 266.5 64.517578 266.5 L 56.28125 266.5 C 54.912322 266.5 53.810547 265.162 53.810547 263.5 L 53.810547 258.5 C 53.810547 256.838 54.912322 255.5 56.28125 255.5 z M 76.417969 255.5 L 84.65625 255.5 C 86.025178 255.5 87.126953 256.838 87.126953 258.5 L 87.126953 263.5 C 87.126953 265.162 86.025178 266.5 84.65625 266.5 L 76.417969 266.5 C 75.04904 266.5 73.947266 265.162 73.947266 263.5 L 73.947266 258.5 C 73.947266 256.838 75.04904 255.5 76.417969 255.5 z M 96.550781 255.5 L 104.78711 255.5 C 106.15603 255.5 107.25781 256.838 107.25781 258.5 L 107.25781 263.5 C 107.25781 265.162 106.15603 266.5 104.78711 266.5 L 96.550781 266.5 C 95.181853 266.5 94.080078 265.162 94.080078 263.5 L 94.080078 258.5 C 94.080078 256.838 95.181853 255.5 96.550781 255.5 z M 116.6875 255.5 L 124.92578 255.5 C 126.29471 255.5 127.39648 256.838 127.39648 258.5 L 127.39648 263.5 C 127.39648 265.162 126.29471 266.5 124.92578 266.5 L 116.6875 266.5 C 115.31857 266.5 114.2168 265.162 114.2168 263.5 L 114.2168 258.5 C 114.2168 256.838 115.31857 255.5 116.6875 255.5 z M 136.81836 255.5 L 145.05469 255.5 C 146.42362 255.5 147.52539 256.838 147.52539 258.5 L 147.52539 263.5 C 147.52539 265.162 146.42362 266.5 145.05469 266.5 L 136.81836 266.5 C 135.44944 266.5 134.34766 265.162 134.34766 263.5 L 134.34766 258.5 C 134.34766 256.838 135.44944 255.5 136.81836 255.5 z M 156.95703 255.5 L 165.19531 255.5 C 166.56423 255.5 167.66602 256.838 167.66602 258.5 L 167.66602 263.5 C 167.66602 265.162 166.56423 266.5 165.19531 266.5 L 156.95703 266.5 C 155.5881 266.5 154.48633 265.162 154.48633 263.5 L 154.48633 258.5 C 154.48633 256.838 155.5881 255.5 156.95703 255.5 z M 197.2168 255.5 L 205.45508 255.5 C 206.82401 255.5 207.92578 256.838 207.92578 258.5 L 207.92578 263.5 C 207.92578 265.162 206.82401 266.5 205.45508 266.5 L 197.2168 266.5 C 195.84787 266.5 194.74609 265.162 194.74609 263.5 L 194.74609 258.5 C 194.74609 256.838 195.84787 255.5 197.2168 255.5 z M 217.35742 255.5 L 225.59375 255.5 C 226.96268 255.5 228.06445 256.838 228.06445 258.5 L 228.06445 263.5 C 228.06445 265.162 226.96269 266.5 225.59375 266.5 L 217.35742 266.5 C 215.9885 266.5 214.88672 265.162 214.88672 263.5 L 214.88672 258.5 C 214.88672 256.838 215.9885 255.5 217.35742 255.5 z M 237.48633 255.5 L 245.72266 255.5 C 247.09159 255.5 248.19531 256.838 248.19531 258.5 L 248.19531 263.5 C 248.19531 265.162 247.09159 266.5 245.72266 266.5 L 237.48633 266.5 C 236.1174 266.5 235.01562 265.162 235.01562 263.5 L 235.01562 258.5 C 235.01562 256.838 236.1174 255.5 237.48633 255.5 z M 257.625 255.5 L 265.86133 255.5 C 267.23026 255.5 268.33203 256.838 268.33203 258.5 L 268.33203 263.5 C 268.33203 265.162 267.23026 266.5 265.86133 266.5 L 257.625 266.5 C 256.25607 266.5 255.1543 265.162 255.1543 263.5 L 255.1543 258.5 C 255.1543 256.838 256.25607 255.5 257.625 255.5 z M 277.75586 255.5 L 285.99219 255.5 C 287.36112 255.5 288.46484 256.838 288.46484 258.5 L 288.46484 263.5 C 288.46484 265.162 287.36112 266.5 285.99219 266.5 L 277.75586 266.5 C 276.38693 266.5 275.28516 265.162 275.28516 263.5 L 275.28516 258.5 C 275.28516 256.838 276.38693 255.5 277.75586 255.5 z M 297.89453 255.5 L 306.13086 255.5 C 307.49978 255.5 308.60156 256.838 308.60156 258.5 L 308.60156 263.5 C 308.60156 265.162 307.49978 266.5 306.13086 266.5 L 297.89453 266.5 C 296.5256 266.5 295.42383 265.162 295.42383 263.5 L 295.42383 258.5 C 295.42383 256.838 296.5256 255.5 297.89453 255.5 z M 318.02344 255.5 L 326.25977 255.5 C 327.62871 255.5 328.73242 256.838 328.73242 258.5 L 328.73242 263.5 C 328.73242 265.162 327.62871 266.5 326.25977 266.5 L 318.02344 266.5 C 316.65452 266.5 315.55274 265.162 315.55273 263.5 L 315.55273 258.5 C 315.55273 256.838 316.65452 255.5 318.02344 255.5 z M 338.16406 255.5 L 346.40039 255.5 C 347.76932 255.5 348.87109 256.838 348.87109 258.5 L 348.87109 263.5 C 348.87109 265.162 347.76932 266.5 346.40039 266.5 L 338.16406 266.5 C 336.79513 266.5 335.69336 265.162 335.69336 263.5 L 335.69336 258.5 C 335.69336 256.838 336.79513 255.5 338.16406 255.5 z M 378.42383 255.5 L 386.66016 255.5 C 388.02909 255.5 389.13086 256.838 389.13086 258.5 L 389.13086 263.5 C 389.13086 265.162 388.02909 266.5 386.66016 266.5 L 378.42383 266.5 C 377.0549 266.5 375.95313 265.162 375.95312 263.5 L 375.95312 258.5 C 375.95312 256.838 377.0549 255.5 378.42383 255.5 z M 398.5625 255.5 L 406.79883 255.5 C 408.16775 255.5 409.27148 256.838 409.27148 258.5 L 409.27148 263.5 C 409.27148 265.162 408.16775 266.5 406.79883 266.5 L 398.5625 266.5 C 397.19358 266.5 396.09181 265.162 396.0918 263.5 L 396.0918 258.5 C 396.0918 256.838 397.19358 255.5 398.5625 255.5 z M 418.69336 255.5 L 426.92969 255.5 C 428.29862 255.5 429.40039 256.838 429.40039 258.5 L 429.40039 263.5 C 429.40039 265.162 428.29862 266.5 426.92969 266.5 L 418.69336 266.5 C 417.32443 266.5 416.22266 265.162 416.22266 263.5 L 416.22266 258.5 C 416.22266 256.838 417.32443 255.5 418.69336 255.5 z M 438.83008 255.5 L 447.06641 255.5 C 448.43534 255.5 449.53906 256.838 449.53906 258.5 L 449.53906 263.5 C 449.53906 265.162 448.43534 266.5 447.06641 266.5 L 438.83008 266.5 C 437.46115 266.5 436.35937 265.162 436.35938 263.5 L 436.35938 258.5 C 436.35938 256.838 437.46115 255.5 438.83008 255.5 z M 458.96289 255.5 L 467.19922 255.5 C 468.56815 255.5 469.66992 256.838 469.66992 258.5 L 469.66992 263.5 C 469.66992 265.162 468.56815 266.5 467.19922 266.5 L 458.96289 266.5 C 457.59397 266.5 456.49219 265.162 456.49219 263.5 L 456.49219 258.5 C 456.49219 256.838 457.59397 255.5 458.96289 255.5 z M 479.09961 255.5 L 487.33594 255.5 C 488.70487 255.5 489.80859 256.838 489.80859 258.5 L 489.80859 263.5 C 489.80859 265.162 488.70487 266.5 487.33594 266.5 L 479.09961 266.5 C 477.73068 266.5 476.62891 265.162 476.62891 263.5 L 476.62891 258.5 C 476.62891 256.838 477.73068 255.5 479.09961 255.5 z M 499.23047 255.5 L 507.4668 255.5 C 508.83573 255.5 509.9375 256.838 509.9375 258.5 L 509.9375 263.5 C 509.9375 265.162 508.83573 266.5 507.4668 266.5 L 499.23047 266.5 C 497.86154 266.5 496.75977 265.162 496.75977 263.5 L 496.75977 258.5 C 496.75977 256.838 497.86154 255.5 499.23047 255.5 z M 519.36914 255.5 L 527.60547 255.5 C 528.9744 255.5 530.07812 256.838 530.07812 258.5 L 530.07812 263.5 C 530.07812 265.162 528.9744 266.5 527.60547 266.5 L 519.36914 266.5 C 518.00022 266.5 516.89844 265.162 516.89844 263.5 L 516.89844 258.5 C 516.89844 256.838 518.00022 255.5 519.36914 255.5 z M 559.62891 255.5 L 567.86523 255.5 C 569.23416 255.5 570.33789 256.838 570.33789 258.5 L 570.33789 263.5 C 570.33789 265.162 569.23416 266.5 567.86523 266.5 L 559.62891 266.5 C 558.25998 266.5 557.1582 265.162 557.1582 263.5 L 557.1582 258.5 C 557.1582 256.838 558.25998 255.5 559.62891 255.5 z M 579.76953 255.5 L 588.00586 255.5 C 589.3748 255.5 590.47656 256.838 590.47656 258.5 L 590.47656 263.5 C 590.47656 265.162 589.3748 266.5 588.00586 266.5 L 579.76953 266.5 C 578.4006 266.5 577.29687 265.162 577.29688 263.5 L 577.29688 258.5 C 577.29688 256.838 578.4006 255.5 579.76953 255.5 z M 599.89844 255.5 L 608.13477 255.5 C 609.50369 255.5 610.60547 256.838 610.60547 258.5 L 610.60547 263.5 C 610.60547 265.162 609.50369 266.5 608.13477 266.5 L 599.89844 266.5 C 598.52952 266.5 597.42773 265.162 597.42773 263.5 L 597.42773 258.5 C 597.42773 256.838 598.52952 255.5 599.89844 255.5 z M 620.03711 255.5 L 628.27344 255.5 C 629.64237 255.5 630.74414 256.838 630.74414 258.5 L 630.74414 263.5 C 630.74414 265.162 629.64237 266.5 628.27344 266.5 L 620.03711 266.5 C 618.66818 266.5 617.56641 265.162 617.56641 263.5 L 617.56641 258.5 C 617.56641 256.838 618.66818 255.5 620.03711 255.5 z M 640.16797 255.5 L 648.4043 255.5 C 649.77323 255.5 650.875 256.838 650.875 258.5 L 650.875 263.5 C 650.875 265.162 649.77323 266.5 648.4043 266.5 L 640.16797 266.5 C 638.79904 266.5 637.69727 265.162 637.69727 263.5 L 637.69727 258.5 C 637.69727 256.838 638.79904 255.5 640.16797 255.5 z M 660.30664 255.5 L 668.54297 255.5 C 669.9119 255.5 671.01367 256.838 671.01367 258.5 L 671.01367 263.5 C 671.01367 265.162 669.9119 266.5 668.54297 266.5 L 660.30664 266.5 C 658.93772 266.5 657.83594 265.162 657.83594 263.5 L 657.83594 258.5 C 657.83594 256.838 658.93772 255.5 660.30664 255.5 z M 680.43555 255.5 L 688.67188 255.5 C 690.04081 255.5 691.14258 256.838 691.14258 258.5 L 691.14258 263.5 C 691.14258 265.162 690.04082 266.5 688.67188 266.5 L 680.43555 266.5 C 679.06662 266.5 677.96484 265.162 677.96484 263.5 L 677.96484 258.5 C 677.96484 256.838 679.06662 255.5 680.43555 255.5 z M 700.57617 255.5 L 708.8125 255.5 C 710.18143 255.5 711.2832 256.838 711.2832 258.5 L 711.2832 263.5 C 711.2832 265.162 710.18143 266.5 708.8125 266.5 L 700.57617 266.5 C 699.20724 266.5 698.10352 265.162 698.10352 263.5 L 698.10352 258.5 C 698.10352 256.838 699.20724 255.5 700.57617 255.5 z " />
  <g
     transform="scale(0.82366325,1)"
     id="g21">
    <text
       x="212"
       y="18"
       text-anchor="end"
       font-family="'Courier Prime', monospace"
       font-size="13px"
       font-weight="700"
       fill="#d4a84b"
       filter="url(#glow)"
       id="text19">2</text>
    <text
       x="110"
       y="270"
       text-anchor="middle"
       font-family="'Courier Prime', monospace"
       font-size="13px"
       font-weight="700"
       fill="#d4a84b"
       filter="url(#glow)"
       id="text20">2</text>
    <polygon
       points="8,267 16,262 8,257 "
       fill="#d4a84b"
       filter="url(#glow)"
       id="polygon20" />
    <text
       x="22"
       y="270"
       text-anchor="start"
       font-family="'Courier Prime', monospace"
       font-size="11px"
       font-weight="700"
       fill="#d4a84b"
       filter="url(#glow)"
       id="text21">1A</text>
  </g>
  <g
     transform="matrix(0.82366325,0,0,1,181.20592,0)"
     id="g38">
    <text
       x="212"
       y="18"
       text-anchor="end"
       font-family="'Courier Prime', monospace"
       font-size="13px"
       font-weight="700"
       fill="#d4a84b"
       filter="url(#glow)"
       id="text37">2</text>
    <text
       x="110"
       y="270"
       text-anchor="middle"
       font-family="'Courier Prime', monospace"
       font-size="13px"
       font-weight="700"
       fill="#d4a84b"
       filter="url(#glow)"
       id="text38">2</text>
  </g>
  <g
     transform="matrix(0.82366325,0,0,1,362.41183,0)"
     id="g56">
    <text
       x="212"
       y="18"
       text-anchor="end"
       font-family="'Courier Prime', monospace"
       font-size="13px"
       font-weight="700"
       fill="#d4a84b"
       filter="url(#glow)"
       id="text54">3</text>
    <text
       x="110"
       y="270"
       text-anchor="middle"
       font-family="'Courier Prime', monospace"
       font-size="13px"
       font-weight="700"
       fill="#d4a84b"
       filter="url(#glow)"
       id="text55">3</text>
    <polygon
       points="8,267 16,262 8,257 "
       fill="#d4a84b"
       filter="url(#glow)"
       id="polygon55" />
    <text
       x="22"
       y="270"
       text-anchor="start"
       font-family="'Courier Prime', monospace"
       font-size="11px"
       font-weight="700"
       fill="#d4a84b"
       filter="url(#glow)"
       id="text56">2A</text>
  </g>
  <g
     transform="matrix(0.82366325,0,0,1,543.61775,0)"
     id="g73">
    <text
       x="212"
       y="18"
       text-anchor="end"
       font-family="'Courier Prime', monospace"
       font-size="13px"
       font-weight="700"
       fill="#d4a84b"
       filter="url(#glow)"
       id="text72">3</text>
    <text
       x="110"
       y="270"
       text-anchor="middle"
       font-family="'Courier Prime', monospace"
       font-size="13px"
       font-weight="700"
       fill="#d4a84b"
       filter="url(#glow)"
       id="text73">3</text>
  </g>
</svg>
