<?xml version="1.0" encoding="UTF-8" standalone="no"?>
<svg
   width="907"
   height="280"
   viewBox="0 0 907 280"
   version="1.1"
   id="svg91"
   sodipodi:docname="filmstrip.svg"
   inkscape:version="1.4.2 (ebf0e940d0, 2025-05-08)"
   xmlns:inkscape="http://www.inkscape.org/namespaces/inkscape"
   xmlns:sodipodi="http://sodipodi.sourceforge.net/DTD/sodipodi-0.dtd"
   xmlns="http://www.w3.org/2000/svg"
   xmlns:svg="http://www.w3.org/2000/svg">
  <sodipodi:namedview
     id="namedview91"
     pagecolor="#505050"
     bordercolor="#ffffff"
     borderopacity="1"
     inkscape:showpageshadow="0"
     inkscape:pageopacity="0"
     inkscape:pagecheckerboard="1"
     inkscape:deskcolor="#505050"
     inkscape:zoom="2.2601704"
     inkscape:cx="193.56948"
     inkscape:cy="171.22603"
     inkscape:window-width="1916"
     inkscape:window-height="1028"
     inkscape:window-x="1920"
     inkscape:window-y="24"
     inkscape:window-maximized="1"
     inkscape:current-layer="svg91" />
  <defs
     id="defs2">
    <filter
       id="glow"
       x="-0.61029974"
       y="-0.53541516"
       width="2.2205995"
       height="2.0708303">
      <feGaussianBlur
         stdDeviation="1.6"
         result="blur"
         id="feGaussianBlur1" />
      <feMerge
         id="feMerge2">
        <feMergeNode
           in="blur"
           id="feMergeNode1" />
        <feMergeNode
           in="SourceGraphic"
           id="feMergeNode2" />
      </feMerge>
    </filter>
  </defs>
  <path
     d="M 0,0 V 280 H 906.02958 V 0 Z m 16.011563,13.5 h 8.236633 c 1.368928,0 2.470989,1.338 2.470989,3 v 5 c 0,1.662 -1.102061,3 -2.470989,3 h -8.236633 c -1.368928,0 -2.47099,-1.338 -2.47099,-3 v -5 c 0,-1.662 1.102062,-3 2.47099,-3 z m 20.139532,0 h 8.236633 c 1.368928,0 2.470989,1.338 2.470989,3 v 5 c 0,1.662 -1.102061,3 -2.470989,3 h -8.236633 c -1.368928,0 -2.47099,-1.338 -2.47099,-3 v -5 c 0,-1.662 1.102062,-3 2.47099,-3 z m 20.129879,0 h 8.236633 c 1.368928,0 2.47099,1.338 2.47099,3 v 5 c 0,1.662 -1.102062,3 -2.47099,3 h -8.236633 c -1.368928,0 -2.470989,-1.338 -2.470989,-3 v -5 c 0,-1.662 1.102061,-3 2.470989,-3 z m 20.137924,0 h 8.236635 c 1.368928,0 2.470989,1.338 2.470989,3 v 5 c 0,1.662 -1.102061,3 -2.470989,3 h -8.236635 c -1.368929,0 -2.47099,-1.338 -2.47099,-3 v -5 c 0,-1.662 1.102061,-3 2.47099,-3 z m 20.131485,0 h 8.236637 c 1.36892,0 2.47099,1.338 2.47099,3 v 5 c 0,1.662 -1.10207,3 -2.47099,3 h -8.236637 c -1.368928,0 -2.47099,-1.338 -2.47099,-3 v -5 c 0,-1.662 1.102062,-3 2.47099,-3 z m 20.137927,0 h 8.23663 c 1.36893,0 2.47099,1.338 2.47099,3 v 5 c 0,1.662 -1.10206,3 -2.47099,3 h -8.23663 c -1.36893,0 -2.47099,-1.338 -2.47099,-3 v -5 c 0,-1.662 1.10206,-3 2.47099,-3 z m 20.12987,0 h 8.23664 c 1.36893,0 2.47099,1.338 2.47099,3 v 5 c 0,1.662 -1.10206,3 -2.47099,3 h -8.23664 c -1.36892,0 -2.47099,-1.338 -2.47099,-3 v -5 c 0,-1.662 1.10207,-3 2.47099,-3 z m 20.13954,0 h 8.23664 c 1.36892,0 2.47098,1.338 2.47098,3 v 5 c 0,1.662 -1.10206,3 -2.47098,3 h -8.23664 c -1.36893,0 -2.47099,-1.338 -2.47099,-3 v -5 c 0,-1.662 1.10206,-3 2.47099,-3 z m 40.25976,0 h 8.23663 c 1.36893,0 2.47099,1.338 2.47099,3 v 5 c 0,1.662 -1.10206,3 -2.47099,3 h -8.23663 c -1.36893,0 -2.47099,-1.338 -2.47099,-3 v -5 c 0,-1.662 1.10206,-3 2.47099,-3 z m 20.13953,0 h 8.23663 c 1.36893,0 2.47099,1.338 2.47099,3 v 5 c 0,1.662 -1.10205,3 -2.47099,3 h -8.23663 c -1.36892,0 -2.47099,-1.338 -2.47099,-3 v -5 c 0,-1.662 1.10207,-3 2.47099,-3 z m 20.12988,0 h 8.23663 c 1.36893,0 2.47099,1.338 2.47099,3 v 5 c 0,1.662 -1.10206,3 -2.47099,3 h -8.23663 c -1.36893,0 -2.47099,-1.338 -2.47099,-3 v -5 c 0,-1.662 1.10206,-3 2.47099,-3 z m 20.13793,0 h 8.23663 c 1.36893,0 2.47099,1.338 2.47099,3 v 5 c 0,1.662 -1.10206,3 -2.47099,3 h -8.23663 c -1.36893,0 -2.47099,-1.338 -2.47099,-3 v -5 c 0,-1.662 1.10206,-3 2.47099,-3 z m 20.13148,0 h 8.23663 c 1.36893,0 2.47099,1.338 2.47099,3 v 5 c 0,1.662 -1.10206,3 -2.47099,3 h -8.23663 c -1.36893,0 -2.47099,-1.338 -2.47099,-3 v -5 c 0,-1.662 1.10206,-3 2.47099,-3 z m 20.13792,0 h 8.23664 c 1.36892,0 2.47099,1.338 2.47099,3 v 5 c 0,1.662 -1.10207,3 -2.47099,3 h -8.23664 c -1.36893,0 -2.47099,-1.338 -2.47099,-3 v -5 c 0,-1.662 1.10206,-3 2.47099,-3 z m 20.12988,0 h 8.23663 c 1.36894,0 2.47099,1.338 2.47099,3 v 5 c 0,1.662 -1.10205,3 -2.47099,3 h -8.23663 c -1.36892,0 -2.47098,-1.338 -2.47099,-3 v -5 c 0,-1.662 1.10207,-3 2.47099,-3 z m 20.13954,0 h 8.23663 c 1.36893,0 2.47099,1.338 2.47099,3 v 5 c 0,1.662 -1.10206,3 -2.47099,3 h -8.23663 c -1.36893,0 -2.47099,-1.338 -2.47099,-3 v -5 c 0,-1.662 1.10206,-3 2.47099,-3 z m 40.25975,0 h 8.23663 c 1.36893,0 2.47099,1.338 2.47099,3 v 5 c 0,1.662 -1.10206,3 -2.47099,3 h -8.23663 c -1.36893,0 -2.47099,-1.338 -2.47099,-3 v -5 c 0,-1.662 1.10206,-3 2.47099,-3 z m 20.13953,0 h 8.23664 c 1.36892,0 2.47098,1.338 2.47098,3 v 5 c 0,1.662 -1.10206,3 -2.47098,3 h -8.23664 c -1.36892,0 -2.47098,-1.338 -2.47099,-3 v -5 c 0,-1.662 1.10207,-3 2.47099,-3 z m 20.12989,0 h 8.23663 c 1.36893,0 2.47099,1.338 2.47099,3 v 5 c 0,1.662 -1.10206,3 -2.47099,3 h -8.23663 c -1.36893,0 -2.47099,-1.338 -2.47099,-3 v -5 c 0,-1.662 1.10206,-3 2.47099,-3 z m 20.13792,0 h 8.23663 c 1.36893,0 2.47099,1.338 2.47099,3 v 5 c 0,1.662 -1.10206,3 -2.47099,3 h -8.23663 c -1.36893,0 -2.47099,-1.338 -2.47099,-3 v -5 c 0,-1.662 1.10206,-3 2.47099,-3 z m 20.13148,0 h 8.23664 c 1.36893,0 2.47099,1.338 2.47099,3 v 5 c 0,1.662 -1.10206,3 -2.47099,3 h -8.23664 c -1.36892,0 -2.47098,-1.338 -2.47098,-3 v -5 c 0,-1.662 1.10206,-3 2.47098,-3 z m 20.13793,0 h 8.23663 c 1.36893,0 2.47099,1.338 2.47099,3 v 5 c 0,1.662 -1.10206,3 -2.47099,3 h -8.23663 c -1.36893,0 -2.47099,-1.338 -2.47099,-3 v -5 c 0,-1.662 1.10206,-3 2.47099,-3 z m 20.12988,0 h 8.23663 c 1.36893,0 2.47099,1.338 2.47099,3 v 5 c 0,1.662 -1.10206,3 -2.47099,3 h -8.23663 c -1.36893,0 -2.47099,-1.338 -2.47099,-3 v -5 c 0,-1.662 1.10206,-3 2.47099,-3 z m 20.13953,0 h 8.23664 c 1.36893,0 2.47099,1.338 2.47099,3 v 5 c 0,1.662 -1.10206,3 -2.47099,3 h -8.23664 c -1.36892,0 -2.47099,-1.338 -2.47099,-3 v -5 c 0,-1.662 1.10207,-3 2.47099,-3 z m 40.25976,0 h 8.23663 c 1.36893,0 2.47099,1.338 2.47099,3 v 5 c 0,1.662 -1.10206,3 -2.47099,3 h -8.23663 c -1.36893,0 -2.47099,-1.338 -2.47099,-3 v -5 c 0,-1.662 1.10206,-3 2.47099,-3 z m 20.13953,0 h 8.23663 c 1.36894,0 2.47099,1.338 2.47099,3 v 5 c 0,1.662 -1.10205,3 -2.47099,3 h -8.23663 c -1.36893,0 -2.47099,-1.338 -2.47099,-3 v -5 c 0,-1.662 1.10206,-3 2.47099,-3 z m 20.12988,0 h 8.23664 c 1.36892,0 2.47099,1.338 2.47099,3 v 5 c 0,1.662 -1.10207,3 -2.47099,3 h -8.23664 c -1.36892,0 -2.47099,-1.338 -2.47099,-3 v -5 c 0,-1.662 1.10207,-3 2.47099,-3 z m 20.13793,0 h 8.23663 c 1.36893,0 2.47099,1.338 2.47099,3 v 5 c 0,1.662 -1.10206,3 -2.47099,3 h -8.23663 c -1.36893,0 -2.47099,-1.338 -2.47099,-3 v -5 c 0,-1.662 1.10206,-3 2.47099,-3 z m 20.13148,0 h 8.23663 c 1.36893,0 2.47099,1.338 2.47099,3 v 5 c 0,1.662 -1.10206,3 -2.47099,3 h -8.23663 c -1.36893,0 -2.47099,-1.338 -2.47099,-3 v -5 c 0,-1.662 1.10206,-3 2.47099,-3 z m 20.13792,0 h 8.23664 c 1.36893,0 2.47099,1.338 2.47099,3 v 5 c 0,1.662 -1.10206,3 -2.47099,3 h -8.23664 c -1.36892,0 -2.47098,-1.338 -2.47098,-3 v -5 c 0,-1.662 1.10206,-3 2.47098,-3 z m 20.12988,0 h 8.23663 c 1.36894,0 2.47099,1.338 2.47099,3 v 5 c 0,1.662 -1.10205,3 -2.47099,3 h -8.23663 c -1.36893,0 -2.47099,-1.338 -2.47099,-3 v -5 c 0,-1.662 1.10206,-3 2.47099,-3 z m 20.13954,0 h 8.23663 c 1.36893,0 2.47099,1.338 2.47099,3 v 5 c 0,1.662 -1.10206,3 -2.47099,3 h -8.23663 c -1.36893,0 -2.47099,-1.338 -2.47099,-3 v -5 c 0,-1.662 1.10206,-3 2.47099,-3 z m 40.25975,0 h 8.23664 c 1.36892,0 2.47099,1.338 2.47099,3 v 5 c 0,1.662 -1.10207,3 -2.47099,3 h -8.23664 c -1.36892,0 -2.47099,-1.338 -2.47099,-3 v -5 c 0,-1.662 1.10207,-3 2.47099,-3 z m 20.13953,0 h 8.23664 c 1.36893,0 2.47099,1.338 2.47099,3 v 5 c 0,1.662 -1.10206,3 -2.47099,3 h -8.23664 c -1.36892,0 -2.47099,-1.338 -2.47099,-3 v -5 c 0,-1.662 1.10207,-3 2.47099,-3 z m 20.12989,0 h 8.23663 c 1.36893,0 2.47099,1.338 2.47099,3 v 5 c 0,1.662 -1.10206,3 -2.47099,3 h -8.23663 c -1.36893,0 -2.47099,-1.338 -2.47099,-3 v -5 c 0,-1.662 1.10206,-3 2.47099,-3 z m 20.13792,0 h 8.23664 c 1.36892,0 2.47099,1.338 2.47099,3 v 5 c 0,1.662 -1.10207,3 -2.47099,3 h -8.23664 c -1.36892,0 -2.47099,-1.338 -2.47099,-3 v -5 c 0,-1.662 1.10207,-3 2.47099,-3 z m 20.13149,0 h 8.23663 c 1.36893,0 2.47099,1.338 2.47099,3 v 5 c 0,1.662 -1.10206,3 -2.47099,3 h -8.23663 c -1.36893,0 -2.47099,-1.338 -2.47099,-3 v -5 c 0,-1.662 1.10206,-3 2.47099,-3 z m 20.1379,0 h 8.23664 c 1.36892,0 2.47099,1.338 2.47099,3 v 5 c 0,1.662 -1.10207,3 -2.47099,3 h -8.23664 c -1.36892,0 -2.47099,-1.338 -2.47099,-3 v -5 c 0,-1.662 1.10207,-3 2.47099,-3 z m 20.12992,0 h 8.23663 c 1.36893,0 2.47099,1.338 2.47099,3 v 5 c 0,1.662 -1.10206,3 -2.47099,3 h -8.23663 c -1.36893,0 -2.47099,-1.338 -2.47099,-3 v -5 c 0,-1.662 1.10206,-3 2.47099,-3 z m 20.13947,0 h 8.23664 c 1.36893,0 2.47099,1.338 2.47099,3 v 5 c 0,1.662 -1.10206,3 -2.47099,3 h -8.23664 c -1.36892,0 -2.47098,-1.338 -2.47098,-3 v -5 c 0,-1.662 1.10206,-3 2.47098,-3 z M 13.178612,38 H 168.0273 c 0.91262,0 1.64733,0.892 1.64733,2 v 200 c 0,1.108 -0.73471,2 -1.64733,2 H 13.178612 c -0.912619,0 -1.647326,-0.892 -1.647326,-2 V 40 c 0,-1.108 0.734707,-2 1.647326,-2 z m 181.205918,0 h 154.84869 c 0.91262,0 1.64733,0.892 1.64733,2 v 200 c 0,1.108 -0.73471,2 -1.64733,2 H 194.38453 c -0.91262,0 -1.64733,-0.892 -1.64733,-2 V 40 c 0,-1.108 0.73471,-2 1.64733,-2 z m 181.20591,0 h 154.8487 c 0.91261,0 1.64732,0.892 1.64732,2 v 200 c 0,1.108 -0.73471,2 -1.64732,2 h -154.8487 c -0.91262,0 -1.64732,-0.892 -1.64732,-2 V 40 c 0,-1.108 0.7347,-2 1.64732,-2 z m 181.20592,0 h 154.84869 c 0.91262,0 1.64733,0.892 1.64733,2 v 200 c 0,1.108 -0.73471,2 -1.64733,2 H 556.79636 c -0.91262,0 -1.64733,-0.892 -1.64733,-2 V 40 c 0,-1.108 0.73471,-2 1.64733,-2 z m 181.20592,0 h 154.84869 c 0.91262,0 1.64732,0.892 1.64732,2 v 200 c 0,1.108 -0.7347,2 -1.64732,2 H 738.00228 c -0.91262,0 -1.64733,-0.892 -1.64733,-2 V 40 c 0,-1.108 0.73471,-2 1.64733,-2 z M 16.011563,255.5 h 8.236633 c 1.368928,0 2.470989,1.338 2.470989,3 v 5 c 0,1.662 -1.102061,3 -2.470989,3 h -8.236633 c -1.368928,0 -2.47099,-1.338 -2.47099,-3 v -5 c 0,-1.662 1.102062,-3 2.47099,-3 z m 20.139532,0 h 8.236633 c 1.368928,0 2.470989,1.338 2.470989,3 v 5 c 0,1.662 -1.102061,3 -2.470989,3 h -8.236633 c -1.368928,0 -2.47099,-1.338 -2.47099,-3 v -5 c 0,-1.662 1.102062,-3 2.47099,-3 z m 20.129879,0 h 8.236633 c 1.368928,0 2.47099,1.338 2.47099,3 v 5 c 0,1.662 -1.102062,3 -2.47099,3 h -8.236633 c -1.368928,0 -2.470989,-1.338 -2.470989,-3 v -5 c 0,-1.662 1.102061,-3 2.470989,-3 z m 20.137924,0 h 8.236635 c 1.368928,0 2.470989,1.338 2.470989,3 v 5 c 0,1.662 -1.102061,3 -2.470989,3 h -8.236635 c -1.368929,0 -2.47099,-1.338 -2.47099,-3 v -5 c 0,-1.662 1.102061,-3 2.47099,-3 z m 20.131485,0 h 8.236637 c 1.36892,0 2.47099,1.338 2.47099,3 v 5 c 0,1.662 -1.10207,3 -2.47099,3 h -8.236637 c -1.368928,0 -2.47099,-1.338 -2.47099,-3 v -5 c 0,-1.662 1.102062,-3 2.47099,-3 z m 20.137927,0 h 8.23663 c 1.36893,0 2.47099,1.338 2.47099,3 v 5 c 0,1.662 -1.10206,3 -2.47099,3 h -8.23663 c -1.36893,0 -2.47099,-1.338 -2.47099,-3 v -5 c 0,-1.662 1.10206,-3 2.47099,-3 z m 20.12987,0 h 8.23664 c 1.36893,0 2.47099,1.338 2.47099,3 v 5 c 0,1.662 -1.10206,3 -2.47099,3 h -8.23664 c -1.36892,0 -2.47099,-1.338 -2.47099,-3 v -5 c 0,-1.662 1.10207,-3 2.47099,-3 z m 20.13954,0 h 8.23664 c 1.36892,0 2.47098,1.338 2.47098,3 v 5 c 0,1.662 -1.10206,3 -2.47098,3 h -8.23664 c -1.36893,0 -2.47099,-1.338 -2.47099,-3 v -5 c 0,-1.662 1.10206,-3 2.47099,-3 z m 40.25976,0 h 8.23663 c 1.36893,0 2.47099,1.338 2.47099,3 v 5 c 0,1.662 -1.10206,3 -2.47099,3 h -8.23663 c -1.36893,0 -2.47099,-1.338 -2.47099,-3 v -5 c 0,-1.662 1.10206,-3 2.47099,-3 z m 20.13953,0 h 8.23663 c 1.36893,0 2.47099,1.338 2.47099,3 v 5 c 0,1.662 -1.10205,3 -2.47099,3 h -8.23663 c -1.36892,0 -2.47099,-1.338 -2.47099,-3 v -5 c 0,-1.662 1.10207,-3 2.47099,-3 z m 20.12988,0 h 8.23663 c 1.36893,0 2.47099,1.338 2.47099,3 v 5 c 0,1.662 -1.10206,3 -2.47099,3 h -8.23663 c -1.36893,0 -2.47099,-1.338 -2.47099,-3 v -5 c 0,-1.662 1.10206,-3 2.47099,-3 z m 20.13793,0 h 8.23663 c 1.36893,0 2.47099,1.338 2.47099,3 v 5 c 0,1.662 -1.10206,3 -2.47099,3 h -8.23663 c -1.36893,0 -2.47099,-1.338 -2.47099,-3 v -5 c 0,-1.662 1.10206,-3 2.47099,-3 z m 20.13148,0 h 8.23663 c 1.36893,0 2.47099,1.338 2.47099,3 v 5 c 0,1.662 -1.10206,3 -2.47099,3 h -8.23663 c -1.36893,0 -2.47099,-1.338 -2.47099,-3 v -5 c 0,-1.662 1.10206,-3 2.47099,-3 z m 20.13792,0 h 8.23664 c 1.36892,0 2.47099,1.338 2.47099,3 v 5 c 0,1.662 -1.10207,3 -2.47099,3 h -8.23664 c -1.36893,0 -2.47099,-1.338 -2.47099,-3 v -5 c 0,-1.662 1.10206,-3 2.47099,-3 z m 20.12988,0 h 8.23663 c 1.36894,0 2.47099,1.338 2.47099,3 v 5 c 0,1.662 -1.10205,3 -2.47099,3 h -8.23663 c -1.36892,0 -2.47098,-1.338 -2.47099,-3 v -5 c 0,-1.662 1.10207,-3 2.47099,-3 z m 20.13954,0 h 8.23663 c 1.36893,0 2.47099,1.338 2.47099,3 v 5 c 0,1.662 -1.10206,3 -2.47099,3 h -8.23663 c -1.36893,0 -2.47099,-1.338 -2.47099,-3 v -5 c 0,-1.662 1.10206,-3 2.47099,-3 z m 40.25975,0 h 8.23663 c 1.36893,0 2.47099,1.338 2.47099,3 v 5 c 0,1.662 -1.10206,3 -2.47099,3 h -8.23663 c -1.36893,0 -2.47099,-1.338 -2.47099,-3 v -5 c 0,-1.662 1.10206,-3 2.47099,-3 z m 20.13953,0 h 8.23664 c 1.36892,0 2.47098,1.338 2.47098,3 v 5 c 0,1.662 -1.10206,3 -2.47098,3 h -8.23664 c -1.36892,0 -2.47098,-1.338 -2.47099,-3 v -5 c 0,-1.662 1.10207,-3 2.47099,-3 z m 20.12989,0 h 8.23663 c 1.36893,0 2.47099,1.338 2.47099,3 v 5 c 0,1.662 -1.10206,3 -2.47099,3 h -8.23663 c -1.36893,0 -2.47099,-1.338 -2.47099,-3 v -5 c 0,-1.662 1.10206,-3 2.47099,-3 z m 20.13792,0 h 8.23663 c 1.36893,0 2.47099,1.338 2.47099,3 v 5 c 0,1.662 -1.10206,3 -2.47099,3 h -8.23663 c -1.36893,0 -2.47099,-1.338 -2.47099,-3 v -5 c 0,-1.662 1.10206,-3 2.47099,-3 z m 20.13148,0 h 8.23664 c 1.36893,0 2.47099,1.338 2.47099,3 v 5 c 0,1.662 -1.10206,3 -2.47099,3 h -8.23664 c -1.36892,0 -2.47098,-1.338 -2.47098,-3 v -5 c 0,-1.662 1.10206,-3 2.47098,-3 z m 20.13793,0 h 8.23663 c 1.36893,0 2.47099,1.338 2.47099,3 v 5 c 0,1.662 -1.10206,3 -2.47099,3 h -8.23663 c -1.36893,0 -2.47099,-1.338 -2.47099,-3 v -5 c 0,-1.662 1.10206,-3 2.47099,-3 z m 20.12988,0 h 8.23663 c 1.36893,0 2.47099,1.338 2.47099,3 v 5 c 0,1.662 -1.10206,3 -2.47099,3 h -8.23663 c -1.36893,0 -2.47099,-1.338 -2.47099,-3 v -5 c 0,-1.662 1.10206,-3 2.47099,-3 z m 20.13953,0 h 8.23664 c 1.36893,0 2.47099,1.338 2.47099,3 v 5 c 0,1.662 -1.10206,3 -2.47099,3 h -8.23664 c -1.36892,0 -2.47099,-1.338 -2.47099,-3 v -5 c 0,-1.662 1.10207,-3 2.47099,-3 z m 40.25976,0 h 8.23663 c 1.36893,0 2.47099,1.338 2.47099,3 v 5 c 0,1.662 -1.10206,3 -2.47099,3 h -8.23663 c -1.36893,0 -2.47099,-1.338 -2.47099,-3 v -5 c 0,-1.662 1.10206,-3 2.47099,-3 z m 20.13953,0 h 8.23663 c 1.36894,0 2.47099,1.338 2.47099,3 v 5 c 0,1.662 -1.10205,3 -2.47099,3 h -8.23663 c -1.36893,0 -2.47099,-1.338 -2.47099,-3 v -5 c 0,-1.662 1.10206,-3 2.47099,-3 z m 20.12988,0 h 8.23664 c 1.36892,0 2.47099,1.338 2.47099,3 v 5 c 0,1.662 -1.10207,3 -2.47099,3 h -8.23664 c -1.36892,0 -2.47099,-1.338 -2.47099,-3 v -5 c 0,-1.662 1.10207,-3 2.47099,-3 z m 20.13793,0 h 8.23663 c 1.36893,0 2.47099,1.338 2.47099,3 v 5 c 0,1.662 -1.10206,3 -2.47099,3 h -8.23663 c -1.36893,0 -2.47099,-1.338 -2.47099,-3 v -5 c 0,-1.662 1.10206,-3 2.47099,-3 z m 20.13148,0 h 8.23663 c 1.36893,0 2.47099,1.338 2.47099,3 v 5 c 0,1.662 -1.10206,3 -2.47099,3 h -8.23663 c -1.36893,0 -2.47099,-1.338 -2.47099,-3 v -5 c 0,-1.662 1.10206,-3 2.47099,-3 z m 20.13792,0 h 8.23664 c 1.36893,0 2.47099,1.338 2.47099,3 v 5 c 0,1.662 -1.10206,3 -2.47099,3 h -8.23664 c -1.36892,0 -2.47098,-1.338 -2.47098,-3 v -5 c 0,-1.662 1.10206,-3 2.47098,-3 z m 20.12988,0 h 8.23663 c 1.36894,0 2.47099,1.338 2.47099,3 v 5 c 0,1.662 -1.10205,3 -2.47099,3 h -8.23663 c -1.36893,0 -2.47099,-1.338 -2.47099,-3 v -5 c 0,-1.662 1.10206,-3 2.47099,-3 z m 20.13954,0 h 8.23663 c 1.36893,0 2.47099,1.338 2.47099,3 v 5 c 0,1.662 -1.10206,3 -2.47099,3 h -8.23663 c -1.36893,0 -2.47099,-1.338 -2.47099,-3 v -5 c 0,-1.662 1.10206,-3 2.47099,-3 z m 40.25975,0 h 8.23664 c 1.36892,0 2.47099,1.338 2.47099,3 v 5 c 0,1.662 -1.10207,3 -2.47099,3 h -8.23664 c -1.36892,0 -2.47099,-1.338 -2.47099,-3 v -5 c 0,-1.662 1.10207,-3 2.47099,-3 z m 20.13953,0 h 8.23664 c 1.36893,0 2.47099,1.338 2.47099,3 v 5 c 0,1.662 -1.10206,3 -2.47099,3 h -8.23664 c -1.36892,0 -2.47099,-1.338 -2.47099,-3 v -5 c 0,-1.662 1.10207,-3 2.47099,-3 z m 20.12989,0 h 8.23663 c 1.36893,0 2.47099,1.338 2.47099,3 v 5 c 0,1.662 -1.10206,3 -2.47099,3 h -8.23663 c -1.36893,0 -2.47099,-1.338 -2.47099,-3 v -5 c 0,-1.662 1.10206,-3 2.47099,-3 z m 20.13792,0 h 8.23664 c 1.36892,0 2.47099,1.338 2.47099,3 v 5 c 0,1.662 -1.10207,3 -2.47099,3 h -8.23664 c -1.36892,0 -2.47099,-1.338 -2.47099,-3 v -5 c 0,-1.662 1.10207,-3 2.47099,-3 z m 20.13149,0 h 8.23663 c 1.36893,0 2.47099,1.338 2.47099,3 v 5 c 0,1.662 -1.10206,3 -2.47099,3 h -8.23663 c -1.36893,0 -2.47099,-1.338 -2.47099,-3 v -5 c 0,-1.662 1.10206,-3 2.47099,-3 z m 20.1379,0 h 8.23664 c 1.36892,0 2.47099,1.338 2.47099,3 v 5 c 0,1.662 -1.10207,3 -2.47099,3 h -8.23664 c -1.36892,0 -2.47099,-1.338 -2.47099,-3 v -5 c 0,-1.662 1.10207,-3 2.47099,-3 z m 20.12992,0 h 8.23663 c 1.36893,0 2.47099,1.338 2.47099,3 v 5 c 0,1.662 -1.10206,3 -2.47099,3 h -8.23663 c -1.36893,0 -2.47099,-1.338 -2.47099,-3 v -5 c 0,-1.662 1.10206,-3 2.47099,-3 z m 20.13947,0 h 8.23664 c 1.36893,0 2.47099,1.338 2.47099,3 v 5 c 0,1.662 -1.10206,3 -2.47099,3 h -8.23664 c -1.36892,0 -2.47098,-1.338 -2.47098,-3 v -5 c 0,-1.662 1.10206,-3 2.47098,-3 z"
     style="fill:#111111;stroke-width:0.907559"
     id="path197" />
  <g
     transform="scale(0.82366325,1)"
     id="g21">
    <text
       x="212"
       y="18"
       text-anchor="end"
       font-family="'Courier Prime', monospace"
       font-size="13px"
       font-weight="700"
       fill="#d4a84b"
       filter="url(#glow)"
       id="text19">2</text>
    <text
       x="110"
       y="270"
       text-anchor="middle"
       font-family="'Courier Prime', monospace"
       font-size="13px"
       font-weight="700"
       fill="#d4a84b"
       filter="url(#glow)"
       id="text20">2</text>
    <polygon
       points="8,267 16,262 8,257 "
       fill="#d4a84b"
       filter="url(#glow)"
       id="polygon20" />
    <text
       x="22"
       y="270"
       text-anchor="start"
       font-family="'Courier Prime', monospace"
       font-size="11px"
       font-weight="700"
       fill="#d4a84b"
       filter="url(#glow)"
       id="text21">1A</text>
  </g>
  <g
     transform="matrix(0.82366325,0,0,1,181.20592,0)"
     id="g38">
    <text
       x="212"
       y="18"
       text-anchor="end"
       font-family="'Courier Prime', monospace"
       font-size="13px"
       font-weight="700"
       fill="#d4a84b"
       filter="url(#glow)"
       id="text37">2</text>
    <text
       x="110"
       y="270"
       text-anchor="middle"
       font-family="'Courier Prime', monospace"
       font-size="13px"
       font-weight="700"
       fill="#d4a84b"
       filter="url(#glow)"
       id="text38">2</text>
  </g>
  <g
     transform="matrix(0.82366325,0,0,1,362.41183,0)"
     id="g56">
    <text
       x="212"
       y="18"
       text-anchor="end"
       font-family="'Courier Prime', monospace"
       font-size="13px"
       font-weight="700"
       fill="#d4a84b"
       filter="url(#glow)"
       id="text54">3</text>
    <text
       x="110"
       y="270"
       text-anchor="middle"
       font-family="'Courier Prime', monospace"
       font-size="13px"
       font-weight="700"
       fill="#d4a84b"
       filter="url(#glow)"
       id="text55">3</text>
    <polygon
       points="8,267 16,262 8,257 "
       fill="#d4a84b"
       filter="url(#glow)"
       id="polygon55" />
    <text
       x="22"
       y="270"
       text-anchor="start"
       font-family="'Courier Prime', monospace"
       font-size="11px"
       font-weight="700"
       fill="#d4a84b"
       filter="url(#glow)"
       id="text56">2A</text>
  </g>
  <g
     transform="matrix(0.82366325,0,0,1,543.61775,0)"
     id="g73">
    <text
       x="212"
       y="18"
       text-anchor="end"
       font-family="'Courier Prime', monospace"
       font-size="13px"
       font-weight="700"
       fill="#d4a84b"
       filter="url(#glow)"
       id="text72">3</text>
    <text
       x="110"
       y="270"
       text-anchor="middle"
       font-family="'Courier Prime', monospace"
       font-size="13px"
       font-weight="700"
       fill="#d4a84b"
       filter="url(#glow)"
       id="text73">3</text>
  </g>
  <g
     transform="matrix(0.82366325,0,0,1,724.82366,0)"
     id="g91">
    <text
       x="212"
       y="18"
       text-anchor="end"
       font-family="'Courier Prime', monospace"
       font-size="13px"
       font-weight="700"
       fill="#d4a84b"
       filter="url(#glow)"
       id="text89">4</text>
    <text
       x="110"
       y="270"
       text-anchor="middle"
       font-family="'Courier Prime', monospace"
       font-size="13px"
       font-weight="700"
       fill="#d4a84b"
       filter="url(#glow)"
       id="text90">4</text>
    <polygon
       points="8,267 16,262 8,257 "
       fill="#d4a84b"
       filter="url(#glow)"
       id="polygon90" />
    <text
       x="22"
       y="270"
       text-anchor="start"
       font-family="'Courier Prime', monospace"
       font-size="11px"
       font-weight="700"
       fill="#d4a84b"
       filter="url(#glow)"
       id="text91">3A</text>
  </g>
</svg>
