<?xml version="1.0" encoding="UTF-8" standalone="no"?>
<!-- Created with Inkscape (http://www.inkscape.org/) -->

<svg
   width="56.726757mm"
   height="51.053162mm"
   viewBox="0 0 56.726759 51.053163"
   version="1.1"
   id="svg1"
   xml:space="preserve"
   inkscape:version="1.4.2 (f4327f4, 2025-05-13)"
   sodipodi:docname="strelka.svg"
   xmlns:inkscape="http://www.inkscape.org/namespaces/inkscape"
   xmlns:sodipodi="http://sodipodi.sourceforge.net/DTD/sodipodi-0.dtd"
   xmlns:xlink="http://www.w3.org/1999/xlink"
   xmlns="http://www.w3.org/2000/svg"
   xmlns:svg="http://www.w3.org/2000/svg"><sodipodi:namedview
     id="namedview1"
     pagecolor="#ffffff"
     bordercolor="#000000"
     borderopacity="0.25"
     inkscape:showpageshadow="2"
     inkscape:pageopacity="0.0"
     inkscape:pagecheckerboard="0"
     inkscape:deskcolor="#d1d1d1"
     inkscape:document-units="mm"
     inkscape:zoom="1.4142136"
     inkscape:cx="-100.76272"
     inkscape:cy="-39.951533"
     inkscape:window-width="1920"
     inkscape:window-height="991"
     inkscape:window-x="-9"
     inkscape:window-y="-9"
     inkscape:window-maximized="1"
     inkscape:current-layer="layer1"
     showgrid="true"><inkscape:grid
       id="grid1"
       units="mm"
       originx="-0.0055150397"
       originy="-0.12401892"
       spacingx="0.26458333"
       spacingy="0.26458333"
       empcolor="#0099e5"
       empopacity="0.30196078"
       color="#0099e5"
       opacity="0.14901961"
       empspacing="5"
       enabled="true"
       visible="true" /></sodipodi:namedview><defs
     id="defs1"><linearGradient
       id="linearGradient11"
       inkscape:collect="always"
       inkscape:label="sadda"><stop
         style="stop-color:#b39b51;stop-opacity:1;"
         offset="0"
         id="stop11" /><stop
         style="stop-color:#e4deb7;stop-opacity:1;"
         offset="1"
         id="stop12" /></linearGradient><linearGradient
       inkscape:collect="always"
       xlink:href="#linearGradient11"
       id="linearGradient12"
       x1="11.87501"
       y1="2.4999988"
       x2="11.87501"
       y2="29"
       gradientUnits="userSpaceOnUse"
       gradientTransform="matrix(8.9552111,0,0,8.9552111,-15.893004,-23.473941)" /><pattern
       patternUnits="userSpaceOnUse"
       width="100"
       height="100"
       id="Gingham"
       preserveAspectRatio="xMidYMid"
       patternTransform="scale(0.5,0.5)"
       style="fill:#0000ff">
      <rect
   style="fill-opacity:0.5;stroke:none"
   id="rect3"
   width="50"
   height="50"
   x="50"
   y="0" />
      <rect
   style="stroke:none"
   id="rect4"
   width="50"
   height="50"
   x="50"
   y="50" />
      <rect
   style="fill-opacity:0.5;stroke:none"
   id="rect5"
   width="50"
   height="50"
   x="0"
   y="50" />
    </pattern></defs><g
     inkscape:label="Слой 1"
     inkscape:groupmode="layer"
     id="layer1"
     transform="translate(-101.04043,-144.875)"><g
       style="display:inline;fill:currentColor"
       id="g1"
       transform="matrix(0.3167148,0,0,0.3167148,100.40149,143.80084)"><path
         stroke="none"
         d="M -1.7752236,-2.2973482 H 43.736309 V 43.214185 H -1.7752236 Z"
         fill="none"
         id="path1"
         style="display:inline;stroke-width:1.89631"
         inkscape:label="path1" /><path
         id="path2"
         style="display:inline;fill:url(#linearGradient12);fill-opacity:1;stroke-width:8.95519"
         inkscape:label="path2"
         d="M 28.888277,3.391567 27.310214,3.435391 C 13.108848,4.2699864 2.0166143,16.036568 2.0174066,30.262438 V 137.71669 l 0.043824,1.57806 c 0.8345844,14.20137 12.6011664,25.2936 26.8270354,25.29282 H 154.25644 l 1.57807,-0.0439 c 14.20137,-0.83458 25.29359,-12.60116 25.2928,-26.82703 V 30.262438 l -0.0439,-1.578061 C 180.2489,14.483009 168.48232,3.3907747 154.25644,3.391567 Z m 62.684083,11.16332 c 28.76062,0 52.06906,23.301392 52.07601,52.061392 0,37.447691 -52.07601,86.807961 -52.07601,86.807961 -0.008,-0.008 -52.090621,-49.36312 -52.090621,-86.807961 0.0071,-28.76 23.33063,-52.061392 52.090621,-52.061392 z m 0,26.023392 c -34.728629,0.0061 -34.728629,52.097569 0,52.090616 34.716,0.0071 34.716,-52.084298 0,-52.090616 z" /></g></g></svg>
